<?xml version="1.0" encoding="UTF-8" standalone="no"?>
<!-- Created with Inkscape (http://www.inkscape.org/) -->

<svg
   xmlns:dc="http://purl.org/dc/elements/1.1/"
   xmlns:cc="http://creativecommons.org/ns#"
   xmlns:rdf="http://www.w3.org/1999/02/22-rdf-syntax-ns#"
   xmlns:svg="http://www.w3.org/2000/svg"
   xmlns="http://www.w3.org/2000/svg"
   xmlns:xlink="http://www.w3.org/1999/xlink"
   xmlns:sodipodi="http://sodipodi.sourceforge.net/DTD/sodipodi-0.dtd"
   xmlns:inkscape="http://www.inkscape.org/namespaces/inkscape"
   width="1917.8632"
   height="1158.929"
   id="svg2"
   version="1.1"
   inkscape:version="0.48.3.1 r9886"
   sodipodi:docname="proteome_complexity.svg">
  <defs
     id="defs4">
    <inkscape:path-effect
       effect="spiro"
       id="path-effect9852"
       is_visible="true" />
    <inkscape:path-effect
       effect="spiro"
       id="path-effect9833"
       is_visible="true" />
    <inkscape:path-effect
       effect="spiro"
       id="path-effect9635"
       is_visible="true" />
    <linearGradient
       id="linearGradient6465">
      <stop
         style="stop-color:#13bc7f;stop-opacity:1;"
         offset="0"
         id="stop6467" />
      <stop
         id="stop4121"
         offset="0.9501245"
         style="stop-color:#13bc7f;stop-opacity:1" />
      <stop
         style="stop-color:#13bc7f;stop-opacity:0;"
         offset="1"
         id="stop6469" />
    </linearGradient>
    <linearGradient
       id="linearGradient4342">
      <stop
         style="stop-color:#ff478e;stop-opacity:0.45454547;"
         offset="0"
         id="stop4344" />
      <stop
         style="stop-color:#ff478e;stop-opacity:0;"
         offset="1"
         id="stop4346" />
    </linearGradient>
    <linearGradient
       id="linearGradient5638">
      <stop
         style="stop-color:#ff478e;stop-opacity:1;"
         offset="0"
         id="stop5640" />
      <stop
         style="stop-color:#ff5496;stop-opacity:0;"
         offset="1"
         id="stop5642" />
    </linearGradient>
    <linearGradient
       inkscape:collect="always"
       id="linearGradient5596">
      <stop
         style="stop-color:#ff5496;stop-opacity:1;"
         offset="0"
         id="stop5598" />
      <stop
         style="stop-color:#ff5496;stop-opacity:0;"
         offset="1"
         id="stop5600" />
    </linearGradient>
    <linearGradient
       inkscape:collect="always"
       id="linearGradient5588">
      <stop
         style="stop-color:#ff0071;stop-opacity:1;"
         offset="0"
         id="stop5590" />
      <stop
         style="stop-color:#ff0071;stop-opacity:0;"
         offset="1"
         id="stop5592" />
    </linearGradient>
    <linearGradient
       gradientUnits="userSpaceOnUse"
       y2="785.78577"
       x2="3054.9106"
       y1="1672.9286"
       x1="3616.3438"
       id="linearGradient6704"
       xlink:href="#linearGradient6698"
       inkscape:collect="always" />
    <marker
       style="overflow:visible"
       id="Arrow1Send"
       refX="0"
       refY="0"
       orient="auto"
       inkscape:stockid="Arrow1Send">
      <path
         inkscape:connector-curvature="0"
         transform="matrix(-0.2,0,0,-0.2,-1.2,0)"
         style="fill-rule:evenodd;stroke:#000000;stroke-width:1pt"
         d="M 0,0 5,-5 -12.5,0 5,5 0,0 z"
         id="path4832" />
    </marker>
    <marker
       style="overflow:visible"
       id="TriangleOutM"
       refX="0"
       refY="0"
       orient="auto"
       inkscape:stockid="TriangleOutM">
      <path
         inkscape:connector-curvature="0"
         transform="scale(0.4,0.4)"
         style="fill-rule:evenodd;stroke:#000000;stroke-width:1pt"
         d="m 5.77,0 -8.65,5 0,-10 8.65,5 z"
         id="path4962" />
    </marker>
    <linearGradient
       id="linearGradient6698"
       inkscape:collect="always">
      <stop
         id="stop6700"
         offset="0"
         style="stop-color:#a0004e;stop-opacity:1" />
      <stop
         id="stop6702"
         offset="1"
         style="stop-color:#d30073;stop-opacity:1" />
    </linearGradient>
    <linearGradient
       gradientUnits="userSpaceOnUse"
       y2="785.78577"
       x2="3054.9106"
       y1="1672.9286"
       x1="3616.3438"
       id="linearGradient6704-2"
       xlink:href="#linearGradient6698-0"
       inkscape:collect="always" />
    <linearGradient
       y2="-154.10365"
       x2="2390.3813"
       y1="305.18207"
       x1="2432.3572"
       gradientUnits="userSpaceOnUse"
       id="linearGradient3995-7"
       xlink:href="#linearGradient3792-2-0"
       inkscape:collect="always" />
    <linearGradient
       y2="-200.10016"
       x2="2292.3843"
       y1="330.90369"
       x1="2408.8677"
       gradientUnits="userSpaceOnUse"
       id="linearGradient3990-6"
       xlink:href="#linearGradient3792-7"
       inkscape:collect="always" />
    <linearGradient
       id="linearGradient3792-2-0"
       inkscape:collect="always">
      <stop
         id="stop3794-4-1"
         offset="0"
         style="stop-color:#0075ff;stop-opacity:1;" />
      <stop
         id="stop3796-5-1"
         offset="1"
         style="stop-color:#0075ff;stop-opacity:0;" />
    </linearGradient>
    <linearGradient
       gradientUnits="userSpaceOnUse"
       y2="-357.24301"
       x2="2199.5271"
       y1="368.04654"
       x1="2434.582"
       id="linearGradient3798-1-4"
       xlink:href="#linearGradient3792-2-0"
       inkscape:collect="always"
       gradientTransform="translate(-2138.2194,-351.86908)" />
    <linearGradient
       id="linearGradient3800-6-9"
       inkscape:collect="always">
      <stop
         id="stop3802-5-7"
         offset="0"
         style="stop-color:#0075ff;stop-opacity:1;" />
      <stop
         id="stop3804-2-6"
         offset="1"
         style="stop-color:#0075ff;stop-opacity:0;" />
    </linearGradient>
    <linearGradient
       gradientUnits="userSpaceOnUse"
       y2="120.58695"
       x2="2491.0938"
       y1="120.58695"
       x1="1780"
       id="linearGradient3806-3-4"
       xlink:href="#linearGradient3800-6-9"
       inkscape:collect="always"
       gradientTransform="translate(-2138.2194,-351.86908)" />
    <linearGradient
       id="linearGradient3792-7"
       inkscape:collect="always">
      <stop
         id="stop3794-2"
         offset="0"
         style="stop-color:#0075ff;stop-opacity:1;" />
      <stop
         id="stop3796-6"
         offset="1"
         style="stop-color:#0075ff;stop-opacity:0;" />
    </linearGradient>
    <marker
       style="overflow:visible"
       id="Arrow1Send-5"
       refX="0"
       refY="0"
       orient="auto"
       inkscape:stockid="Arrow1Send">
      <path
         inkscape:connector-curvature="0"
         transform="matrix(-0.2,0,0,-0.2,-1.2,0)"
         style="fill-rule:evenodd;stroke:#000000;stroke-width:1pt"
         d="M 0,0 5,-5 -12.5,0 5,5 0,0 z"
         id="path4832-3" />
    </marker>
    <marker
       style="overflow:visible"
       id="TriangleOutM-1"
       refX="0"
       refY="0"
       orient="auto"
       inkscape:stockid="TriangleOutM">
      <path
         inkscape:connector-curvature="0"
         transform="scale(0.4,0.4)"
         style="fill-rule:evenodd;stroke:#000000;stroke-width:1pt"
         d="m 5.77,0 -8.65,5 0,-10 8.65,5 z"
         id="path4962-7" />
    </marker>
    <linearGradient
       id="linearGradient6698-0"
       inkscape:collect="always">
      <stop
         id="stop6700-3"
         offset="0"
         style="stop-color:#a0004e;stop-opacity:1" />
      <stop
         id="stop6702-1"
         offset="1"
         style="stop-color:#d30073;stop-opacity:1" />
    </linearGradient>
    <linearGradient
       inkscape:collect="always"
       xlink:href="#linearGradient5588"
       id="linearGradient5594"
       x1="2032.3518"
       y1="180.91884"
       x2="2189.5674"
       y2="1809.4902"
       gradientUnits="userSpaceOnUse" />
    <linearGradient
       inkscape:collect="always"
       xlink:href="#linearGradient5596"
       id="linearGradient5602"
       x1="1960.9998"
       y1="129.66092"
       x2="2017.8513"
       y2="1726.8038"
       gradientUnits="userSpaceOnUse" />
    <radialGradient
       inkscape:collect="always"
       xlink:href="#linearGradient4157-7"
       id="radialGradient4163-3"
       cx="3528.5715"
       cy="1482.3622"
       fx="3528.5715"
       fy="1482.3622"
       r="145.71428"
       gradientTransform="matrix(1,0,0,0.5,0,741.18109)"
       gradientUnits="userSpaceOnUse" />
    <linearGradient
       inkscape:collect="always"
       id="linearGradient4157-7">
      <stop
         style="stop-color:#258b63;stop-opacity:0.41568628"
         offset="0"
         id="stop4159-3" />
      <stop
         id="stop4165-3"
         offset="0.36231861"
         style="stop-color:#258b63;stop-opacity:0.41568628" />
      <stop
         style="stop-color:#258b63;stop-opacity:0;"
         offset="1"
         id="stop4161-8" />
    </linearGradient>
    <clipPath
       clipPathUnits="userSpaceOnUse"
       id="clipPath3711">
      <rect
         style="fill:#ffffff;fill-rule:evenodd;stroke:#000000;stroke-width:0.83645147px;stroke-linecap:butt;stroke-linejoin:miter;stroke-opacity:1"
         id="rect3713"
         width="1588.8246"
         height="952.4126"
         x="1154.985"
         y="-150.4375" />
    </clipPath>
    <linearGradient
       gradientUnits="userSpaceOnUse"
       y2="785.78577"
       x2="3054.9106"
       y1="1672.9286"
       x1="3616.3438"
       id="linearGradient6704-5"
       xlink:href="#linearGradient6698-1"
       inkscape:collect="always" />
    <linearGradient
       id="linearGradient3792-2"
       inkscape:collect="always">
      <stop
         id="stop3794-4"
         offset="0"
         style="stop-color:#0075ff;stop-opacity:1;" />
      <stop
         id="stop3796-5"
         offset="1"
         style="stop-color:#0075ff;stop-opacity:0;" />
    </linearGradient>
    <linearGradient
       gradientUnits="userSpaceOnUse"
       y2="-357.24301"
       x2="2199.5271"
       y1="368.04654"
       x1="2434.582"
       id="linearGradient3798-1"
       xlink:href="#linearGradient3792-2"
       inkscape:collect="always"
       gradientTransform="translate(-2138.2194,-351.86908)" />
    <linearGradient
       id="linearGradient3800-6"
       inkscape:collect="always">
      <stop
         id="stop3802-5"
         offset="0"
         style="stop-color:#0075ff;stop-opacity:1;" />
      <stop
         id="stop3804-2"
         offset="1"
         style="stop-color:#0075ff;stop-opacity:0;" />
    </linearGradient>
    <linearGradient
       gradientUnits="userSpaceOnUse"
       y2="120.58695"
       x2="2491.0938"
       y1="120.58695"
       x1="1780"
       id="linearGradient3806-3"
       xlink:href="#linearGradient3800-6"
       inkscape:collect="always"
       gradientTransform="translate(-2138.2194,-351.86908)" />
    <marker
       style="overflow:visible"
       id="Arrow1Send-0"
       refX="0"
       refY="0"
       orient="auto"
       inkscape:stockid="Arrow1Send">
      <path
         inkscape:connector-curvature="0"
         transform="matrix(-0.2,0,0,-0.2,-1.2,0)"
         style="fill-rule:evenodd;stroke:#000000;stroke-width:1pt"
         d="M 0,0 5,-5 -12.5,0 5,5 0,0 z"
         id="path4832-7" />
    </marker>
    <marker
       style="overflow:visible"
       id="TriangleOutM-6"
       refX="0"
       refY="0"
       orient="auto"
       inkscape:stockid="TriangleOutM">
      <path
         inkscape:connector-curvature="0"
         transform="scale(0.4,0.4)"
         style="fill-rule:evenodd;stroke:#000000;stroke-width:1pt"
         d="m 5.77,0 -8.65,5 0,-10 8.65,5 z"
         id="path4962-6" />
    </marker>
    <linearGradient
       id="linearGradient6698-1"
       inkscape:collect="always">
      <stop
         id="stop6700-7"
         offset="0"
         style="stop-color:#a0004e;stop-opacity:1" />
      <stop
         id="stop6702-7"
         offset="1"
         style="stop-color:#d30073;stop-opacity:1" />
    </linearGradient>
    <clipPath
       clipPathUnits="userSpaceOnUse"
       id="clipPath3295">
      <rect
         style="fill:none;stroke:#162d50;stroke-width:1.5;stroke-linecap:round;stroke-linejoin:round;stroke-miterlimit:4;stroke-opacity:1;stroke-dasharray:none;stroke-dashoffset:0"
         id="rect3297"
         width="132"
         height="88"
         x="6119.1387"
         y="-1247.7379"
         transform="matrix(0.98066434,0.19569735,-0.19569735,0.98066434,0,0)"
         ry="22.201704" />
    </clipPath>
    <clipPath
       clipPathUnits="userSpaceOnUse"
       id="clipPath5327">
      <rect
         style="fill:none;stroke:none"
         id="rect5329"
         width="400"
         height="320"
         x="3795.4062"
         y="737.5625"
         ry="19.625816" />
    </clipPath>
    <clipPath
       clipPathUnits="userSpaceOnUse"
       id="clipPath9957">
      <rect
         style="fill:#ffffff;fill-opacity:1;stroke:none"
         id="rect9959"
         width="102.53048"
         height="63.639606"
         x="-6334.2046"
         y="-1224.6937"
         transform="matrix(-0.98066434,-0.19569735,-0.19569735,0.98066434,0,0)"
         ry="22.201704"
         rx="22.201704" />
    </clipPath>
  </defs>
  <sodipodi:namedview
     id="base"
     pagecolor="#ffffff"
     bordercolor="#666666"
     borderopacity="1.0"
     inkscape:pageopacity="0.0"
     inkscape:pageshadow="2"
     inkscape:zoom="0.27414199"
     inkscape:cx="516.63276"
     inkscape:cy="116.52586"
     inkscape:document-units="px"
     inkscape:current-layer="layer1"
     showgrid="false"
     inkscape:window-width="1280"
     inkscape:window-height="971"
     inkscape:window-x="0"
     inkscape:window-y="1"
     inkscape:window-maximized="1"
     fit-margin-top="0"
     fit-margin-left="0"
     fit-margin-right="0"
     fit-margin-bottom="0">
    <inkscape:grid
       type="xygrid"
       id="grid2985"
       empspacing="5"
       visible="true"
       enabled="true"
       snapvisiblegridlinesonly="true"
       originx="-2914.9215px"
       originy="-339.87074px" />
  </sodipodi:namedview>
  <metadata
     id="metadata7">
    <rdf:RDF>
      <cc:Work
         rdf:about="">
        <dc:format>image/svg+xml</dc:format>
        <dc:type
           rdf:resource="http://purl.org/dc/dcmitype/StillImage" />
        <dc:title />
      </cc:Work>
    </rdf:RDF>
  </metadata>
  <g
     inkscape:label="Layer 1"
     inkscape:groupmode="layer"
     id="layer1"
     transform="translate(-2914.9216,446.4375)">
    <text
       sodipodi:linespacing="125%"
       id="text12606"
       y="1.5625"
       x="3031.4062"
       style="font-size:40px;font-style:normal;font-weight:normal;line-height:125%;letter-spacing:0px;word-spacing:0px;fill:#000000;fill-opacity:1;stroke:none;font-family:Sans"
       xml:space="preserve"><tspan
         y="1.5625"
         x="3031.4062"
         id="tspan12608"
         sodipodi:role="line" /></text>
    <rect
       style="fill:#ffffff;stroke:none"
       id="rect12708"
       width="1917.8632"
       height="1158.929"
       x="2914.9216"
       y="-446.4375"
       ry="22.201704"
       rx="22.201704" />
    <path
       sodipodi:nodetypes="cc"
       inkscape:connector-curvature="0"
       id="path11226"
       d="m 4037.4666,-204.57332 -34.9849,80.18255"
       style="fill:none;stroke:#53d4ff;stroke-width:8;stroke-linecap:butt;stroke-linejoin:miter;stroke-miterlimit:4;stroke-opacity:1;stroke-dasharray:none" />
    <path
       sodipodi:nodetypes="cc"
       inkscape:connector-curvature="0"
       id="path11228"
       d="m 4016.0323,-200.66015 -9.9752,68.63639"
       style="fill:none;stroke:#388dff;stroke-width:8;stroke-linecap:butt;stroke-linejoin:miter;stroke-miterlimit:4;stroke-opacity:1;stroke-dasharray:none" />
    <path
       sodipodi:nodetypes="cc"
       inkscape:connector-curvature="0"
       id="path11230"
       d="m 3999.2185,-191.84211 4.0627,65.26511"
       style="fill:none;stroke:#54baff;stroke-width:8;stroke-linecap:butt;stroke-linejoin:miter;stroke-miterlimit:4;stroke-opacity:1;stroke-dasharray:none" />
    <path
       inkscape:connector-curvature="0"
       id="path11232"
       d="m 3977.6701,-248.725 32.3445,34.33414"
       style="fill:none;stroke:#b6d8ff;stroke-width:8;stroke-linecap:butt;stroke-linejoin:miter;stroke-miterlimit:4;stroke-opacity:1;stroke-dasharray:none" />
    <path
       inkscape:connector-curvature="0"
       id="path11234"
       d="m 4025.703,-212.42299 -45.0975,-21.59204"
       style="fill:none;stroke:#b6d8ff;stroke-width:8;stroke-linecap:butt;stroke-linejoin:miter;stroke-miterlimit:4;stroke-opacity:1;stroke-dasharray:none" />
    <path
       inkscape:connector-curvature="0"
       id="path11236"
       d="m 3902.2417,-263.53597 -2.388,15.40812"
       style="fill:none;stroke:#b6d8ff;stroke-width:7;stroke-linecap:butt;stroke-linejoin:miter;stroke-miterlimit:4;stroke-opacity:1;stroke-dasharray:none" />
    <path
       sodipodi:nodetypes="cc"
       inkscape:connector-curvature="0"
       id="path11238"
       d="m 3915.5263,-268.6738 -3.8383,26.92477"
       style="fill:none;stroke:#b6d8ff;stroke-width:7;stroke-linecap:butt;stroke-linejoin:miter;stroke-miterlimit:4;stroke-opacity:1;stroke-dasharray:none" />
    <path
       inkscape:connector-curvature="0"
       id="path11240"
       d="m 3929.9121,-272.69959 -4.7792,38.10054"
       style="fill:none;stroke:#b6d8ff;stroke-width:7;stroke-linecap:butt;stroke-linejoin:miter;stroke-miterlimit:4;stroke-opacity:1;stroke-dasharray:none" />
    <path
       inkscape:connector-curvature="0"
       id="path11242"
       d="m 3945.8831,-276.61508 -6.3935,46.43476"
       style="fill:none;stroke:#b6d8ff;stroke-width:7;stroke-linecap:butt;stroke-linejoin:miter;stroke-miterlimit:4;stroke-opacity:1;stroke-dasharray:none" />
    <path
       inkscape:connector-curvature="0"
       id="path11244"
       d="m 3962.1315,-273.66641 -6.8153,49.79659"
       style="fill:none;stroke:#b6d8ff;stroke-width:7;stroke-linecap:butt;stroke-linejoin:miter;stroke-miterlimit:4;stroke-opacity:1;stroke-dasharray:none" />
    <path
       sodipodi:nodetypes="cc"
       inkscape:connector-curvature="0"
       id="path11246"
       d="m 3974.0985,-258.05102 -5.4749,35.16748"
       style="fill:none;stroke:#b6d8ff;stroke-width:7;stroke-linecap:butt;stroke-linejoin:miter;stroke-miterlimit:4;stroke-opacity:1;stroke-dasharray:none" />
    <path
       inkscape:connector-curvature="0"
       id="path11248"
       d="m 3715.1854,-297.48968 -1.7407,17.08602"
       style="fill:#0075ff;fill-opacity:0.5372549;stroke:#b6d8ff;stroke-width:6;stroke-linecap:butt;stroke-linejoin:miter;stroke-miterlimit:4;stroke-opacity:1;stroke-dasharray:none" />
    <path
       inkscape:connector-curvature="0"
       id="path11250"
       d="m 3724.6962,-301.44776 -0.9011,22.58384"
       style="fill:#0075ff;fill-opacity:0.5372549;stroke:#b6d8ff;stroke-width:6;stroke-linecap:butt;stroke-linejoin:miter;stroke-miterlimit:4;stroke-opacity:1;stroke-dasharray:none" />
    <path
       inkscape:connector-curvature="0"
       id="path11252"
       d="m 3736.9313,-305.94948 -2.1927,31.59717"
       style="fill:#0075ff;fill-opacity:0.5372549;stroke:#b6d8ff;stroke-width:6;stroke-linecap:butt;stroke-linejoin:miter;stroke-miterlimit:4;stroke-opacity:1;stroke-dasharray:none" />
    <path
       inkscape:connector-curvature="0"
       id="path11254"
       d="m 3747.9753,-304.80564 -3.5293,30.06127"
       style="fill:#0075ff;fill-opacity:0.5372549;stroke:#b6d8ff;stroke-width:6;stroke-linecap:butt;stroke-linejoin:miter;stroke-miterlimit:4;stroke-opacity:1;stroke-dasharray:none" />
    <path
       sodipodi:nodetypes="cc"
       inkscape:connector-curvature="0"
       id="path11256"
       d="m 3757.1111,-300.31957 -4.6412,24.48903"
       style="fill:#0075ff;fill-opacity:0.5372549;stroke:#b6d8ff;stroke-width:6;stroke-linecap:butt;stroke-linejoin:miter;stroke-miterlimit:4;stroke-opacity:1;stroke-dasharray:none" />
    <path
       sodipodi:nodetypes="cc"
       inkscape:connector-curvature="0"
       id="path11258"
       d="m 3764.9331,-292.73863 -3.0787,18.76935"
       style="fill:#0075ff;fill-opacity:0.5372549;stroke:#b6d8ff;stroke-width:6;stroke-linecap:butt;stroke-linejoin:miter;stroke-miterlimit:4;stroke-opacity:1;stroke-dasharray:none" />
    <path
       sodipodi:nodetypes="cc"
       inkscape:connector-curvature="0"
       id="path11260"
       d="m 3772.4583,-285.99976 -1.4901,9.95425"
       style="fill:#0075ff;fill-opacity:0.5372549;stroke:#b6d8ff;stroke-width:6;stroke-linecap:butt;stroke-linejoin:miter;stroke-miterlimit:4;stroke-opacity:1;stroke-dasharray:none" />
    <path
       sodipodi:nodetypes="cc"
       inkscape:connector-curvature="0"
       id="path11262"
       d="m 3799.0042,-284.6017 -0.9965,13.71852"
       style="fill:#0075ff;fill-opacity:0.5372549;stroke:#b6d8ff;stroke-width:6;stroke-linecap:butt;stroke-linejoin:miter;stroke-miterlimit:4;stroke-opacity:1;stroke-dasharray:none" />
    <path
       inkscape:connector-curvature="0"
       id="path11264"
       d="m 3807.5981,-287.34675 -1.5935,20.40436"
       style="fill:#0075ff;fill-opacity:0.5372549;stroke:#b6d8ff;stroke-width:6;stroke-linecap:butt;stroke-linejoin:miter;stroke-miterlimit:4;stroke-opacity:1;stroke-dasharray:none" />
    <path
       inkscape:connector-curvature="0"
       id="path11266"
       d="m 3816.3166,-291.40422 -0.9522,26.19927"
       style="fill:#0075ff;fill-opacity:0.5372549;stroke:#b6d8ff;stroke-width:6;stroke-linecap:butt;stroke-linejoin:miter;stroke-miterlimit:4;stroke-opacity:1;stroke-dasharray:none" />
    <path
       inkscape:connector-curvature="0"
       id="path11268"
       d="m 3825.5798,-295.31289 -0.9555,33.92546"
       style="fill:#0075ff;fill-opacity:0.5372549;stroke:#b6d8ff;stroke-width:6;stroke-linecap:butt;stroke-linejoin:miter;stroke-miterlimit:4;stroke-opacity:1;stroke-dasharray:none" />
    <path
       inkscape:connector-curvature="0"
       id="path11270"
       d="m 3836.8231,-297.04152 -1.6506,38.18446"
       style="fill:#0075ff;fill-opacity:0.5372549;stroke:#b6d8ff;stroke-width:6;stroke-linecap:butt;stroke-linejoin:miter;stroke-miterlimit:4;stroke-opacity:1;stroke-dasharray:none" />
    <path
       inkscape:connector-curvature="0"
       id="path11272"
       d="m 3847.816,-292.28225 -1.649,34.32136"
       style="fill:#0075ff;fill-opacity:0.5372549;stroke:#b6d8ff;stroke-width:6;stroke-linecap:butt;stroke-linejoin:miter;stroke-miterlimit:4;stroke-opacity:1;stroke-dasharray:none" />
    <path
       sodipodi:nodetypes="cc"
       inkscape:connector-curvature="0"
       id="path11274"
       d="m 3857.3463,-283.88338 -0.5307,25.08509"
       style="fill:#0075ff;fill-opacity:0.5372549;stroke:#b6d8ff;stroke-width:6;stroke-linecap:butt;stroke-linejoin:miter;stroke-miterlimit:4;stroke-opacity:1;stroke-dasharray:none" />
    <path
       sodipodi:nodetypes="cc"
       inkscape:connector-curvature="0"
       id="path11276"
       d="m 3867.99,-273.13153 -0.9973,15.65007"
       style="fill:#0075ff;fill-opacity:0.5372549;stroke:#b6d8ff;stroke-width:6;stroke-linecap:butt;stroke-linejoin:miter;stroke-miterlimit:4;stroke-opacity:1;stroke-dasharray:none" />
    <path
       inkscape:connector-curvature="0"
       id="path11278"
       d="m 3678.0192,-299.45794 -0.5665,14.49834"
       style="fill:#0075ff;fill-opacity:0.5372549;stroke:#b6d8ff;stroke-width:6;stroke-linecap:butt;stroke-linejoin:miter;stroke-miterlimit:4;stroke-opacity:1;stroke-dasharray:none" />
    <path
       inkscape:connector-curvature="0"
       id="path11280"
       d="m 3668.041,-305.66087 -0.3595,21.92282"
       style="fill:#0075ff;fill-opacity:0.5372549;stroke:#b6d8ff;stroke-width:6;stroke-linecap:butt;stroke-linejoin:miter;stroke-miterlimit:4;stroke-opacity:1;stroke-dasharray:none" />
    <path
       inkscape:connector-curvature="0"
       id="path11282"
       d="m 3655.4709,-311.1645 0.5482,28.297"
       style="fill:#0075ff;fill-opacity:0.5372549;stroke:#b6d8ff;stroke-width:6;stroke-linecap:butt;stroke-linejoin:miter;stroke-miterlimit:4;stroke-opacity:1;stroke-dasharray:none" />
    <path
       inkscape:connector-curvature="0"
       id="path11284"
       d="m 3642.6189,-312.60584 0.163,28.19177"
       style="fill:#0075ff;fill-opacity:0.5372549;stroke:#b6d8ff;stroke-width:6;stroke-linecap:butt;stroke-linejoin:miter;stroke-miterlimit:4;stroke-opacity:1;stroke-dasharray:none" />
    <path
       inkscape:connector-curvature="0"
       id="path11286"
       d="m 3631.096,-310.1243 0.7603,23.88448"
       style="fill:#0075ff;fill-opacity:0.5372549;stroke:#b6d8ff;stroke-width:6;stroke-linecap:butt;stroke-linejoin:miter;stroke-miterlimit:4;stroke-opacity:1;stroke-dasharray:none" />
    <path
       inkscape:connector-curvature="0"
       id="path11288"
       d="m 3620.3788,-308.1677 0.3774,18.31602"
       style="fill:#0075ff;fill-opacity:0.5372549;stroke:#b6d8ff;stroke-width:6;stroke-linecap:butt;stroke-linejoin:miter;stroke-miterlimit:4;stroke-opacity:1;stroke-dasharray:none" />
    <path
       inkscape:connector-curvature="0"
       id="path11290"
       d="m 3609.4516,-306.35129 -0.1802,11.87195"
       style="fill:#0075ff;fill-opacity:0.5372549;stroke:#b6d8ff;stroke-width:6;stroke-linecap:butt;stroke-linejoin:miter;stroke-miterlimit:4;stroke-opacity:1;stroke-dasharray:none" />
    <path
       sodipodi:nodetypes="cccc"
       inkscape:connector-curvature="0"
       id="path11292"
       d="m 3965.2715,-174.77828 11.3221,27.87319 c -3.707,-6.8373 -13.0713,-2.16904 -11.0002,6.46237 l -13.971,-27.28351"
       style="fill:#2d93ff;fill-opacity:1;stroke:none" />
    <path
       sodipodi:nodetypes="ccccc"
       inkscape:connector-curvature="0"
       id="path11296"
       d="m 3977.1005,-86.544005 -19.3731,-29.020345 7.5646,0.99329 3.3153,-5.32105 19.561,31.358448"
       style="fill:#2dd8ff;fill-opacity:1;stroke:none" />
    <path
       sodipodi:nodetypes="cccc"
       inkscape:connector-curvature="0"
       id="path11300"
       d="m 3990.3028,-91.010629 -18.9198,-38.302091 c -4.1065,-8.85015 6.8035,-13.09844 10.3702,-6.29693 l 17.1699,37.370782"
       style="fill:#0e60ff;fill-opacity:1;stroke:none" />
    <path
       sodipodi:nodetypes="cccccsccccccsscsscccscccccccsccscccscscsscsccscscscsssssscsscscccsscssscscssssccccscsscsccscccsscssssccccssssccccsccsscscccccccscccccsccc"
       inkscape:connector-curvature="0"
       id="path11302"
       d="m 3321.5569,-342.24586 c 13.9738,-2.59764 34.3423,-0.77487 53.4897,2.32721 17.7001,2.86764 41.8215,9.73467 61.3954,17.1925 -2.5438,0.54069 -5.0985,1.09219 -7.6432,1.6208 -7.4938,1.55682 -13.4015,2.92506 -23.9893,4.50041 -22.1667,3.29816 -46.3774,4.46711 -67.1589,3.26852 -9.5768,-0.55234 -44.3375,-4.53092 -65.0584,-7.28408 3.5537,-2.36401 5.9007,-3.98682 7.6199,-4.93029 12.7564,-7.00052 25.5898,-12.93122 38.6235,-16.1202 0.8721,-0.21339 1.7897,-0.40173 2.7213,-0.57492 z m 130.4885,19.46511 c 20.9759,-4.26224 43.3556,-5.14874 63.476,-3.99941 3.4865,0.19917 16.8348,2.21984 25.4136,4.55216 11.9276,3.24294 32.9924,11.7856 40.736,16.50342 1.2027,0.66643 2.5323,1.42031 3.7682,2.11597 -29.2501,4.82014 -56.7535,5.10254 -78.9063,0.60981 -15.0245,-3.04687 -37.7678,-10.29854 -59.4397,-18.72996 1.6351,-0.37912 3.2975,-0.71577 4.9522,-1.05199 z m 143.156,20.82491 c 30.5834,-6.02845 50.6374,-8.80423 57.2141,-7.91213 6.9113,0.93749 13.9826,3.92778 20.3863,8.58266 6.1636,4.48039 11.5225,8.22037 16.3647,11.42463 -7.4851,2.02804 -14.7465,3.45512 -20.7226,3.94412 -24.5341,2.0075 -43.7323,-2.11266 -72.1825,-15.51787 -0.3343,-0.1576 -0.7094,-0.35251 -1.06,-0.52141 z m 142.596,-2.73988 c 1.3878,-0.30529 2.5872,-0.47171 3.5364,-0.48263 6.3456,-0.0732 14.1954,4.89465 24.5693,15.49139 3.4108,3.48434 6.9336,6.71248 10.5431,9.7184 -0.273,0.0565 -0.5564,0.11089 -0.8274,0.16511 -24.7777,4.95657 -45.5645,3.01328 -68.2028,-6.43355 -1.6535,-0.69 -3.4851,-1.49654 -5.386,-2.39859 3.9504,-1.76715 7.9838,-3.88743 12.5358,-6.48487 7.6851,-4.3852 17.2171,-8.252 23.2316,-9.57526 z m 92.5135,10.09046 c 2.7701,-0.58266 5.1714,-0.78994 6.993,-0.56697 6.6909,0.81904 15.7394,7.80038 24.2184,18.68429 4.1702,5.3526 8.387,10.25666 12.7046,14.79992 -27.2077,2.94018 -45.4463,0.66059 -67.3011,-8.30239 -4.1343,-1.69536 -9.4561,-4.50225 -15.1467,-7.87561 4.9078,-1.91842 9.9056,-4.42226 16.5876,-8.05821 7.9098,-4.30407 15.8498,-7.39921 21.9442,-8.68103 z m 100.1868,23.79124 c 8.7555,-1.89002 18.3065,-2.93895 22.3949,-2.11094 5.8017,1.175 11.176,3.94963 14.926,7.72844 l 3.1856,3.18825 0.8272,14.52522 c 0.4655,7.90929 1.2182,18.47059 1.663,23.66335 -27.2096,-4.82158 -42.1893,-10.21516 -60.9527,-20.40374 -5.5082,-2.99098 -14.2369,-8.49078 -19.3858,-12.19199 -0.5282,-0.37976 -1.0854,-0.81396 -1.6481,-1.23256 8.6084,-2.35898 17.2083,-5.39556 25.4623,-9.09627 3.3271,-1.49173 8.2742,-2.93574 13.5276,-4.06976 z m 59.1217,60.25129 c 2.2473,0.24247 4.4995,0.47226 6.7596,0.65865 1.1149,0.092 2.2474,0.17462 3.3645,0.25271 l 10.829,0.77069 -9.1451,2.55788 c -3.2649,0.91286 -6.6645,1.95232 -10.1564,3.07836 -0.405,-1.81488 -0.7234,-3.21603 -1.15,-5.12403 -0.1957,-0.87314 -0.3124,-1.3505 -0.5011,-2.19436 z m -879.4947,-93.20013 c 55.859,-15.98595 95.2427,-21.03399 143.9051,-19.81339 l 3.9833,0.79843 c 1.1166,0.22575 2.9743,0.53681 5.3069,0.8848 l 3.2305,-1.53692 c 6.2813,-2.95196 11.6061,-5.55256 11.8185,-5.76813 14.0652,-7.81707 25.8889,-14.5271 44.5692,-18.58135 1.2454,-0.27029 2.5217,-0.51812 3.8308,-0.76445 l 7.8511,-0.89756 c 25.6384,-2.92937 56.5145,3.56139 92.5033,19.46114 4.6973,2.07524 9.5996,4.12365 14.6081,6.13487 19.5071,-4.1575 39.0552,-8.26289 59.0167,-9.73769 26.3044,-1.94346 49.4188,5.04182 73.0631,19.93086 4.1302,2.60079 10.6127,6.22986 16.4024,9.21833 6.1648,-1.11325 12.3878,-2.40363 18.6573,-3.91436 34.5903,-8.33512 39.7733,-9.14928 46.789,-7.2976 4.3075,1.13687 7.7855,3.06696 12.4014,6.89388 5.1964,4.30802 17.0081,11.41453 27.731,16.96363 11.7636,-3.66955 23.399,-8.55924 31.0104,-13.39006 15.7304,-9.98358 18.3606,-9.84663 29.4353,1.3915 5.9048,5.99194 17.4336,14.54597 28.7523,21.76279 13.7188,-3.68712 28.3198,-9.41552 36.2202,-14.42971 10.2763,-6.52202 13.146,-7.68981 17.5004,-7.15691 4.4829,0.54879 8.325,3.55904 13.9685,10.91495 4.3254,5.6377 19.4994,19.57919 31.8073,29.56583 17.0653,-2.88466 37.1564,-8.51971 48.5998,-13.87285 21.7395,-10.1696 33.5824,-8.12216 39.2877,6.8502 1.3975,3.66759 3.6842,8.87468 5.0758,11.54236 1.683,3.22685 4.15,12.67248 9.6797,37.00881 4.0126,0.60671 8.199,1.20689 12.7284,1.82563 4.1204,0.56297 8.3894,1.12264 12.9919,1.70932 22.6377,2.88562 28.6449,3.31896 35.8268,2.44225 11.2523,-1.37359 16.4031,-0.77095 17.3923,2.04212 0.5972,1.69875 0.2988,2.23474 -1.521,2.59789 -1.2628,0.252 -5.2278,1.93722 -8.7778,3.75922 -3.5502,1.82203 -18.0466,7.26208 -32.2295,12.07191 -10.5238,3.56888 -19.7942,6.79541 -28.294,9.91629 10.1903,46.06654 11.4544,54.21531 11.4264,65.56283 -0.015,6.02523 0.3053,14.8777 0.7086,19.679347 1.3755,16.371492 -2.5662,23.825399 -16.5913,31.353104 -5.4084,2.902847 -7.9304,3.638755 -17.3523,5.024194 l -4.9244,-21.48295 c 12.6342,-2.701184 14.652,-3.38768 18.4131,-6.255587 5.0368,-3.840656 10.8715,-12.243648 12.4979,-18.012848 1.2858,-4.56113 2.2448,-0.81838 -13.2591,-50.79361 -1.304,-4.19967 -3.0467,-11.51949 -4.8332,-19.74851 -18.4928,7.29666 -34.2404,14.71731 -53.7773,25.2944 l -12.0483,-15.66379 c 19.1815,-10.55412 41.5266,-20.66921 62.0215,-28.21423 -0.9492,-5.00672 -1.7971,-9.81934 -2.4821,-14.03564 -17.471,-2.86344 -34.0724,-7.38501 -48.3738,-13.25849 -17.5213,-7.19587 -32.2641,-16.56666 -45.8051,-29.2899 -14.7663,3.05292 -29.2007,3.95931 -41.6451,2.41528 -20.8017,-2.58097 -39.5884,-10.03004 -56.3616,-22.30778 -3.4476,0.93343 -7.2335,1.77725 -11.7988,2.67318 -16.0908,3.15799 -25.955,3.22731 -41.5399,0.2274 -11.9224,-2.29482 -21.2387,-5.85343 -34.2531,-13.87759 -5.3939,1.94109 -10.9855,3.42281 -17.7567,4.75437 -14.7896,2.90821 -25.9267,3.0848 -39.9958,0.62031 -15.9438,-2.79297 -32.5093,-11.99984 -47.341,-20.37955 -17.2606,3.44855 -35.1861,6.56678 -40.1027,6.95115 -33.3503,2.60697 -56.881,-2.70505 -97.5584,-21.95764 -3.1789,-1.50463 -6.7079,-3.00352 -10.4289,-4.51514 -1.4395,0.37944 -2.8724,0.75911 -4.2906,1.17486 l -11.015,3.2497 c -17.3284,5.08004 -51.0253,10.70251 -65.0723,10.85053 -29.1826,0.30753 -56.8758,-2.8831 -95.7979,-11.0602 l -9.1711,5.94087 c -15.8388,8.13156 -57.6465,28.47928 -140.3916,33.17433 l -0.5222,-7.17948 c 53.2548,-1.35669 128.6751,-19.5983 139.3058,-33.7361 l 0.7294,-0.33675 -0.8334,-0.18423 c -54.6688,-0.7201 -101.0141,6.6483 -144.0294,21.92771 z"
       style="fill:#117eff;fill-opacity:1;fill-rule:evenodd;stroke:none" />
    <path
       inkscape:connector-curvature="0"
       id="path11348"
       d="m 3961.8305,-192.36644 c -1.3826,0.57 -2.7574,1.16413 -4.1437,1.75103 1.382,-0.58493 2.7653,-1.18287 4.1437,-1.75103 z m -25.0709,11.21695 c -1.8527,0.88962 -3.69,1.78727 -5.5168,2.69423 1.8239,-0.90526 3.6672,-1.8063 5.5168,-2.69423 z m -7.7236,3.77192 c -1.7757,0.89352 -3.5549,1.77602 -5.2963,2.68209 1.7496,-0.91035 3.5122,-1.78448 5.2963,-2.68209 z m -13.529,7.09732 c -2.0803,1.14464 -4.1308,2.30187 -6.1301,3.45393 -17.2032,9.91298 -35.8278,22.48988 -63.3515,42.78755 -50.5704,37.293776 -93.2089,61.200668 -157.7458,88.423917 l 45.9512,-11.496071 c 16.4545,-9.4297 42.6078,-23.6517 58.1313,-31.580518 28.4135,-14.512503 44.1044,-23.249508 93.582,-52.261758 16.283,-9.54786 29.6576,-17.19165 41.6112,-23.66326 l -12.0483,-15.66379 z"
       style="fill:#2a7fff;fill-opacity:1;stroke:#a7d0ff;stroke-opacity:1" />
    <text
       xml:space="preserve"
       style="font-size:40px;font-style:normal;font-weight:normal;line-height:125%;letter-spacing:0px;word-spacing:0px;fill:#000000;fill-opacity:1;stroke:none;font-family:Sans"
       x="3267.5527"
       y="-230.85034"
       id="text11788"
       sodipodi:linespacing="125%"><tspan
         sodipodi:role="line"
         id="tspan11790"
         x="3267.5527"
         y="-230.85034">Genoma</tspan><tspan
         sodipodi:role="line"
         x="3267.5527"
         y="-180.85034"
         id="tspan11792">~ 2.3·10<tspan
   style="font-size:65.00091553%;baseline-shift:super"
   id="tspan12694">4</tspan> genes</tspan></text>
    <text
       xml:space="preserve"
       style="font-size:31.72786903px;font-style:normal;font-weight:normal;line-height:125%;letter-spacing:0px;word-spacing:0px;fill:#000000;fill-opacity:1;stroke:none;font-family:Sans"
       x="3106.4121"
       y="-58.268227"
       id="text12602"
       sodipodi:linespacing="125%"><tspan
         sodipodi:role="line"
         id="tspan12604"
         x="3106.4121"
         y="-58.268227">splicing alternativo</tspan></text>
    <text
       sodipodi:linespacing="125%"
       id="text12610"
       y="-15.435607"
       x="3106.4121"
       style="font-size:31.72786903px;font-style:normal;font-weight:normal;line-height:125%;letter-spacing:0px;word-spacing:0px;fill:#000000;fill-opacity:1;stroke:none;font-family:Sans"
       xml:space="preserve"><tspan
         y="-15.435607"
         x="3106.4121"
         id="tspan12612"
         sodipodi:role="line">promotores alternativos</tspan></text>
    <text
       xml:space="preserve"
       style="font-size:31.72786903px;font-style:normal;font-weight:normal;line-height:125%;letter-spacing:0px;word-spacing:0px;fill:#000000;fill-opacity:1;stroke:none;font-family:Sans"
       x="3106.4121"
       y="28.983414"
       id="text12614"
       sodipodi:linespacing="125%"><tspan
         sodipodi:role="line"
         id="tspan12616"
         x="3106.4121"
         y="28.983414">edicion de ARNm</tspan></text>
    <path
       style="fill:none;stroke:#000080;stroke-width:12;stroke-linecap:butt;stroke-linejoin:miter;stroke-miterlimit:4;stroke-opacity:1;stroke-dasharray:none"
       d="m 3264.7242,251.39649 c 117.8823,-96.3782 217.6839,27.77283 301.2275,-15.55635"
       id="path12620"
       inkscape:connector-curvature="0"
       sodipodi:nodetypes="cc" />
    <path
       sodipodi:nodetypes="cc"
       inkscape:connector-curvature="0"
       id="path12622"
       d="m 3179.8714,340.49194 c 109.397,30.90102 216.2696,-58.4942 311.127,0"
       style="fill:none;stroke:#800080;stroke-width:12;stroke-linecap:butt;stroke-linejoin:miter;stroke-miterlimit:4;stroke-opacity:1;stroke-dasharray:none" />
    <path
       style="fill:none;stroke:#ff00ff;stroke-width:12;stroke-linecap:butt;stroke-linejoin:miter;stroke-miterlimit:4;stroke-opacity:1;stroke-dasharray:none"
       d="m 3657.8756,292.40869 c -109.397,30.90102 -216.2696,-58.4942 -311.127,0"
       id="path12624"
       inkscape:connector-curvature="0"
       sodipodi:nodetypes="cc" />
    <path
       inkscape:connector-curvature="0"
       id="path12626"
       d="m 3897.037,309.76392 -186.8582,0"
       style="fill:none;stroke:#000000;stroke-width:3;stroke-linecap:butt;stroke-linejoin:miter;stroke-miterlimit:4;stroke-opacity:1;stroke-dasharray:12, 12;stroke-dashoffset:0" />
    <text
       sodipodi:linespacing="125%"
       id="text12628"
       y="439.48691"
       x="3276.0378"
       style="font-size:40px;font-style:normal;font-weight:normal;line-height:125%;letter-spacing:0px;word-spacing:0px;fill:#000000;fill-opacity:1;stroke:none;font-family:Sans"
       xml:space="preserve"><tspan
         y="439.48691"
         x="3276.0378"
         id="tspan12630"
         sodipodi:role="line">Transcriptoma</tspan><tspan
         y="489.48691"
         x="3276.0378"
         sodipodi:role="line"
         id="tspan12634">~ 10<tspan
   style="font-size:65.00091553%;baseline-shift:super"
   id="tspan12696">5</tspan> transcritos</tspan></text>
    <path
       style="fill:none;stroke:#ff5555;stroke-width:6.61997747;stroke-linecap:round;stroke-linejoin:round;stroke-miterlimit:4;stroke-opacity:1;stroke-dasharray:none"
       d="m 4370.0853,38.344329 c -11.5174,3.163957 -2.3277,20.98009 7.6468,16.792503 4.96,-2.082314 19.7728,-22.909545 21.1759,-21.731461 8.0329,6.744858 -2.4506,19.673881 4.1175,25.188744 8.2738,6.947125 21.0064,-3.666624 24.1169,-8.890148 10.7643,-18.076543 -12.7235,-39.8231869 -24.7051,-49.8835989 -15.2938,-12.8414331 -11.1185,46.9686119 -44.7045,18.7680839 -7.5239,-6.317353 16.2705,-18.9269299 18.2347,-22.2253679 3.4227,-5.747644 -14.6707,-19.3203461 -20.5876,-9.3840231 -3.5018,5.8804571 16.3444,23.0189501 20.5876,21.2375741 9.7488,-4.092799 10.1188,-13.632221 19.9994,-17.78029"
       id="path12652"
       inkscape:connector-curvature="0" />
    <path
       style="fill:none;stroke:#000080;stroke-width:6.0181613;stroke-linecap:butt;stroke-linejoin:miter;stroke-miterlimit:4;stroke-opacity:1;stroke-dasharray:none"
       d="m 4475.9095,27.815522 c 0.3838,23.596669 49.8481,17.951847 34.9053,3.009081 -5.9819,-5.981902 -18.9466,-2.386108 -23.4708,-11.434505 -3.4521,-6.904157 12.7272,-31.027051 16.8508,-18.6562999 11.3184,33.9550669 -57.6812,65.3185649 -43.9325,24.0726469 5.6596,-16.9791929 27.4031,-56.249267 49.9507,-33.7017089 3.2231,3.223097 19.8147,16.339431 17.4527,21.0635699 -17.2465,34.493061 -60.0996,-9.1913879 -76.4307,23.470828 -1.1735,2.347111 -4.6514,6.946282 -3.0091,10.230874 9.0384,18.076751 34.5387,14.998371 52.3581,11.434506 11.0082,-2.201654 22.8846,-4.830206 22.869,-4.814529 -1.4248,1.424709 -3.6997,1.671574 -5.4164,2.407264"
       id="path12654"
       inkscape:connector-curvature="0" />
    <path
       style="fill:none;stroke:#0000ff;stroke-width:6.0181613;stroke-linecap:round;stroke-linejoin:round;stroke-miterlimit:4;stroke-opacity:1;stroke-dasharray:none"
       d="m 4319.8357,32.138526 c -2.499,20.165381 -46.0921,25.382616 -33.0999,-0.601817 3.9114,-7.822798 16.1022,-9.335312 19.8599,-16.850853 3.1688,-6.3376339 -2.1115,-14.8975379 -7.2218,-17.4526699 -12.0722,-6.036092 -12.6381,18.7437139 -12.6381,22.2672009 0,21.255299 24.1002,16.276595 33.0999,25.276277 8.9373,8.937297 -3.7805,22.483307 -15.0454,16.85085 -30.4708,-15.235365 -59.1933,-58.2685309 -18.0545,-78.837914 24.8744,-12.437212 41.5303,61.38025 60.7834,42.127128"
       id="path12656"
       inkscape:connector-curvature="0" />
    <path
       style="fill:none;stroke:#ff6600;stroke-width:6.24260044;stroke-linecap:butt;stroke-linejoin:miter;stroke-miterlimit:4;stroke-opacity:1;stroke-dasharray:none"
       d="m 4590.7882,31.604757 c -5.5946,4.628312 -15.4195,9.948513 -22.1481,9.948513 -47.8081,0 6.1992,-23.844157 6.8148,-24.871282 2.4862,-4.147936 -8.752,-14.0174659 -11.074,-12.0803329 -7.593,6.3339359 45.9999,67.2163749 45.9999,18.4758089 0,-11.101569 -33.9153,-41.636786 -46.8518,-36.241014 -30.9512,12.9096441 -16.9694,59.709907 11.0741,67.507764 9.2483,2.57163 44.3389,-7.852193 48.5555,-11.369727 4.7871,-3.993274 -18.3149,-24.101447 7.6667,-27.713713"
       id="path12658"
       inkscape:connector-curvature="0" />
    <path
       inkscape:connector-curvature="0"
       id="path12662"
       d="m 4680.8836,11.172634 c -23.2921,3.798096 -10.5412,51.922802 2.0793,34.972987 5.0522,-6.785386 -0.3838,-19.092466 7.9138,-24.879754 6.3312,-4.415812 32.5435,8.098231 20.9005,13.970465 -31.9571,16.117945 -72.9855,-47.61029 -30.183,-39.9817989 17.62,3.140224 59.6257,18.9654269 40.5824,44.5415429 -2.7222,3.656022 -13.2966,21.972716 -18.3131,20.320012 -36.6276,-12.06772 0.388,-60.7971769 -34.2955,-72.224305 -2.4923,-0.821121 -7.5468,-3.596071 -10.5588,-1.495262 -16.5768,11.5617601 -9.8367,36.347081 -3.729,53.46223 3.7732,10.573133 8.0945,21.943524 8.0767,21.93027 -1.616,-1.203285 -2.1899,-3.418518 -3.1665,-5.010464"
       style="fill:none;stroke:#008000;stroke-width:6.0181613;stroke-linecap:butt;stroke-linejoin:miter;stroke-miterlimit:4;stroke-opacity:1;stroke-dasharray:none" />
    <path
       inkscape:connector-curvature="0"
       id="path12664"
       d="m 4623.2277,-65.830212 c 11.5174,3.16396 2.3276,20.98009 -7.6469,16.79251 -4.9599,-2.08232 -19.7728,-22.90955 -21.1758,-21.73147 -8.0329,6.74486 2.4505,19.67389 -4.1175,25.18875 -8.2739,6.94712 -21.0064,-3.66663 -24.1169,-8.89015 -10.7643,-18.07654 12.7234,-39.82319 24.7051,-49.883598 15.2938,-12.84143 11.1184,46.968618 44.7045,18.768078 7.5238,-6.31735 -16.2706,-18.926928 -18.2347,-22.225368 -3.4227,-5.74764 14.6706,-19.32034 20.5876,-9.38402 3.5017,5.88046 -16.3444,23.018958 -20.5876,21.237578 -9.7488,-4.092798 -10.1189,-13.632228 -19.9995,-17.780288"
       style="fill:none;stroke:#ff5555;stroke-width:6.61997747;stroke-linecap:round;stroke-linejoin:round;stroke-miterlimit:4;stroke-opacity:1;stroke-dasharray:none" />
    <path
       inkscape:connector-curvature="0"
       id="path12666"
       d="m 4414.3609,-76.359022 c -0.3838,23.59667 -49.848,17.95185 -34.9053,3.00909 5.9819,-5.98191 18.9467,-2.38611 23.4709,-11.43451 3.452,-6.90415 -12.7273,-31.027048 -16.8509,-18.656298 -11.3184,33.955068 57.6812,65.318568 43.9325,24.072648 -5.6596,-16.97919 -27.4031,-56.249268 -49.9507,-33.701708 -3.2231,3.22309 -19.8147,16.339428 -17.4527,21.063568 17.2466,34.49306 60.0997,-9.191388 76.4307,23.47083 1.1735,2.34711 4.6514,6.94628 3.0091,10.23087 -9.0384,18.07675 -34.5386,14.99837 -52.358,11.43451 -11.0082,-2.20166 -22.8847,-4.83021 -22.869,-4.81453 1.4247,1.42471 3.6997,1.67158 5.4163,2.40727"
       style="fill:none;stroke:#d45500;stroke-width:6.0181613;stroke-linecap:butt;stroke-linejoin:miter;stroke-miterlimit:4;stroke-opacity:1;stroke-dasharray:none" />
    <path
       inkscape:connector-curvature="0"
       id="path12668"
       d="m 4673.4773,-91.988452 c 2.4989,-20.165378 46.0921,-25.382618 33.0999,0.60181 -3.9114,7.8228 -16.1022,9.33532 -19.86,16.85086 -3.1688,6.33763 2.1116,14.89754 7.2218,17.45267 12.0722,6.03609 12.6382,-18.74372 12.6382,-22.2672 0,-21.255298 -24.1002,-16.2766 -33.0999,-25.276278 -8.9373,-8.9373 3.7805,-22.48331 15.0454,-16.85085 30.4707,15.23536 59.1933,58.268528 18.0545,78.837908 -24.8745,12.43722 -41.5304,-61.380248 -60.7834,-42.12713"
       style="fill:none;stroke:#536c67;stroke-width:6.0181613;stroke-linecap:round;stroke-linejoin:round;stroke-miterlimit:4;stroke-opacity:1;stroke-dasharray:none" />
    <path
       inkscape:connector-curvature="0"
       id="path12670"
       d="m 4500.5989,-72.569782 c 5.5946,4.62831 15.4195,9.94851 22.1481,9.94851 47.8081,0 -6.1992,-23.84416 -6.8148,-24.87128 -2.4862,-4.14793 8.752,-14.017468 11.074,-12.08033 7.593,6.33393 -45.9999,67.21637 -45.9999,18.47581 0,-11.10157 33.9153,-41.636788 46.8518,-36.241018 30.9512,12.90965 16.9694,59.709908 -11.0741,67.507768 -9.2483,2.57162 -44.3389,-7.8522 -48.5555,-11.36973 -4.7871,-3.99328 18.3149,-24.10145 -7.6667,-27.71371"
       style="fill:none;stroke:#008080;stroke-width:6.24260044;stroke-linecap:butt;stroke-linejoin:miter;stroke-miterlimit:4;stroke-opacity:1;stroke-dasharray:none" />
    <path
       style="fill:none;stroke:#806600;stroke-width:6.0181613;stroke-linecap:butt;stroke-linejoin:miter;stroke-miterlimit:4;stroke-opacity:1;stroke-dasharray:none"
       d="m 4312.4293,-93.001902 c 23.2922,3.79809 10.5412,51.9228 -2.0792,34.97298 -5.0522,-6.78538 0.3838,-19.09246 -7.9138,-24.87975 -6.3312,-4.41581 -32.5435,8.09823 -20.9006,13.97047 31.9572,16.11794 72.9856,-47.610288 30.183,-39.981798 -17.6199,3.14022 -59.6257,18.965418 -40.5824,44.541538 2.7222,3.65602 13.2966,21.97272 18.3131,20.32001 36.6277,-12.06772 -0.3879,-60.797178 34.2955,-72.224308 2.4923,-0.82111 7.5468,-3.59607 10.5589,-1.49526 16.5767,11.56176 9.8367,36.347088 3.7289,53.462238 -3.7731,10.57312 -8.0944,21.94352 -8.0766,21.93027 1.616,-1.20329 2.1898,-3.41852 3.1665,-5.01047"
       id="path12672"
       inkscape:connector-curvature="0" />
    <path
       inkscape:connector-curvature="0"
       id="path12674"
       d="m 4305.35,-182.99479 c -5.5947,4.62831 -15.4195,9.94851 -22.1482,9.94851 -47.8081,0 6.1993,-23.84415 6.8148,-24.87128 2.4863,-4.14794 -8.7519,-14.01746 -11.0739,-12.08033 -7.593,6.33393 45.9999,67.21638 45.9999,18.47581 0,-11.10157 -33.9153,-41.63679 -46.8518,-36.24101 -30.9513,12.90964 -16.9694,59.7099 11.0741,67.50776 9.2482,2.57163 44.3389,-7.85219 48.5555,-11.36973 4.7871,-3.99327 -18.3149,-24.10144 7.6667,-27.71371"
       style="fill:none;stroke:#ff6600;stroke-width:6.24260044;stroke-linecap:butt;stroke-linejoin:miter;stroke-miterlimit:4;stroke-opacity:1;stroke-dasharray:none" />
    <path
       inkscape:connector-curvature="0"
       id="path12676"
       d="m 4415.6763,-178.29404 c -2.4989,20.16538 -46.0921,25.38262 -33.0999,-0.60182 3.9114,-7.8228 16.1022,-9.33531 19.8599,-16.85085 3.1688,-6.33764 -2.1115,-14.89754 -7.2218,-17.45267 -12.0721,-6.03609 -12.6381,18.74371 -12.6381,22.2672 0,21.2553 24.1002,16.2766 33.0999,25.27628 8.9373,8.9373 -3.7805,22.4833 -15.0454,16.85085 -30.4708,-15.23537 -59.1933,-58.26853 -18.0545,-78.83792 24.8744,-12.43721 41.5303,61.38025 60.7834,42.12713"
       style="fill:none;stroke:#0000ff;stroke-width:6.0181613;stroke-linecap:round;stroke-linejoin:round;stroke-miterlimit:4;stroke-opacity:1;stroke-dasharray:none" />
    <path
       inkscape:connector-curvature="0"
       id="path12678"
       d="m 4499.9435,-205.5104 c 23.2922,3.79809 10.5412,51.9228 -2.0793,34.97298 -5.0522,-6.78539 0.3838,-19.09246 -7.9138,-24.87975 -6.3312,-4.41581 -32.5435,8.09823 -20.9005,13.97046 31.9571,16.11794 72.9855,-47.61029 30.183,-39.9818 -17.62,3.14023 -59.6257,18.96543 -40.5824,44.54154 2.7222,3.65603 13.2966,21.97272 18.3131,20.32002 36.6276,-12.06772 -0.388,-60.79718 34.2955,-72.22431 2.4923,-0.82112 7.5468,-3.59607 10.5588,-1.49526 16.5768,11.56176 9.8367,36.34708 3.729,53.46223 -3.7732,10.57313 -8.0945,21.94353 -8.0767,21.93027 1.616,-1.20328 2.1899,-3.41852 3.1665,-5.01047"
       style="fill:none;stroke:#806600;stroke-width:6.0181613;stroke-linecap:butt;stroke-linejoin:miter;stroke-miterlimit:4;stroke-opacity:1;stroke-dasharray:none" />
    <path
       inkscape:connector-curvature="0"
       id="path12680"
       d="m 4594.9553,-186.12003 c -5.5947,4.62831 -15.4196,9.94852 -22.1482,9.94852 -47.8081,0 6.1993,-23.84416 6.8148,-24.87128 2.4862,-4.14794 -8.7519,-14.01747 -11.074,-12.08033 -7.593,6.33393 46,67.21637 46,18.4758 0,-11.10157 -33.9154,-41.63678 -46.8519,-36.24101 -30.9512,12.90964 -16.9693,59.70991 11.0741,67.50776 9.2483,2.57163 44.3389,-7.8522 48.5556,-11.36973 4.787,-3.99327 -18.315,-24.10144 7.6666,-27.71371"
       style="fill:none;stroke:#374845;stroke-width:6.24260044;stroke-linecap:butt;stroke-linejoin:miter;stroke-miterlimit:4;stroke-opacity:1;stroke-dasharray:none" />
    <path
       style="fill:none;stroke:#a02c5a;stroke-width:6.61997747;stroke-linecap:round;stroke-linejoin:round;stroke-miterlimit:4;stroke-opacity:1;stroke-dasharray:none"
       d="m 4712.8178,-203.41054 c 11.5174,-3.16396 2.3277,-20.98009 -7.6468,-16.7925 -4.96,2.08231 -19.7728,22.90954 -21.1759,21.73146 -8.0329,-6.74486 2.4506,-19.67388 -4.1175,-25.18875 -8.2738,-6.94712 -21.0064,3.66663 -24.1169,8.89015 -10.7643,18.07655 12.7234,39.82319 24.7051,49.8836 15.2938,12.84144 11.1185,-46.96861 44.7045,-18.76808 7.5238,6.31735 -16.2705,18.92693 -18.2347,22.22537 -3.4227,5.74764 14.6706,19.32034 20.5876,9.38402 3.5018,-5.88046 -16.3444,-23.01896 -20.5876,-21.23757 -9.7488,4.0928 -10.1189,13.63222 -19.9994,17.78029"
       id="path12682"
       inkscape:connector-curvature="0" />
    <text
       sodipodi:linespacing="125%"
       id="text12684"
       y="-315.70316"
       x="4251.8452"
       style="font-size:40px;font-style:normal;font-weight:normal;line-height:125%;letter-spacing:0px;word-spacing:0px;fill:#000000;fill-opacity:1;stroke:none;font-family:Sans"
       xml:space="preserve"><tspan
         y="-315.70316"
         x="4251.8452"
         id="tspan12686"
         sodipodi:role="line">Proteoma</tspan><tspan
         id="tspan12688"
         y="-265.70316"
         x="4251.8452"
         sodipodi:role="line">~ 10<tspan
   style="font-size:65.00091553%;baseline-shift:super"
   id="tspan12690">6 </tspan>proteinas</tspan></text>
    <text
       xml:space="preserve"
       style="font-size:31.05157471px;font-style:normal;font-weight:normal;line-height:125%;letter-spacing:0px;word-spacing:0px;fill:#000000;fill-opacity:1;stroke:none;font-family:Sans"
       x="4188.0718"
       y="187.12671"
       id="text12698"
       sodipodi:linespacing="125%"><tspan
         sodipodi:role="line"
         id="tspan12700"
         x="4188.0718"
         y="187.12671">modificaciones</tspan><tspan
         sodipodi:role="line"
         x="4188.0718"
         y="225.94118"
         id="tspan12704">post-traduccionales</tspan></text>
    <path
       style="fill:#f2ecf4;fill-opacity:1;stroke:#000080;stroke-width:5.41200018;stroke-linecap:round;stroke-linejoin:round;stroke-miterlimit:4;stroke-opacity:1;stroke-dasharray:none"
       d="m 2979.4063,673.5625 1756.008,0 0,-351.56349 C 4306.0912,547.2552 3740.4385,631.6473 2979.4063,673.5625 z"
       id="path12710"
       inkscape:connector-curvature="0"
       sodipodi:nodetypes="cccc" />
    <path
       sodipodi:nodetypes="cc"
       inkscape:connector-curvature="0"
       id="path3190"
       d="m 4174.7692,571.07009 c 56.6696,-44.3888 104.6473,12.79131 144.8093,-7.16477"
       style="fill:none;stroke:#000080;stroke-width:7.30000019;stroke-linecap:butt;stroke-linejoin:miter;stroke-miterlimit:4;stroke-opacity:1;stroke-dasharray:none" />
    <path
       style="fill:none;stroke:#800080;stroke-width:7.30000019;stroke-linecap:butt;stroke-linejoin:miter;stroke-miterlimit:4;stroke-opacity:1;stroke-dasharray:none"
       d="m 4133.9778,612.10469 c 52.5905,14.23205 103.9675,-26.94061 149.5684,0"
       id="path3192"
       inkscape:connector-curvature="0"
       sodipodi:nodetypes="cc" />
    <path
       sodipodi:nodetypes="cc"
       inkscape:connector-curvature="0"
       id="path3194"
       d="m 4363.7692,589.95904 c -52.5905,14.23205 -103.9675,-26.94061 -149.5684,0"
       style="fill:none;stroke:#ff00ff;stroke-width:7.30000019;stroke-linecap:butt;stroke-linejoin:miter;stroke-miterlimit:4;stroke-opacity:1;stroke-dasharray:none" />
    <g
       id="g9961"
       transform="translate(41.012192,-152.73506)">
      <path
         inkscape:connector-curvature="0"
         id="path3222"
         d="m 3702.2542,788.29563 1.7407,17.08602"
         style="fill:#0066ff;fill-opacity:1;stroke:#0066ff;stroke-width:6;stroke-linecap:butt;stroke-linejoin:miter;stroke-miterlimit:4;stroke-opacity:1;stroke-dasharray:none" />
      <path
         inkscape:connector-curvature="0"
         id="path3224"
         d="m 3692.7434,784.33755 0.9011,22.58384"
         style="fill:#0066ff;fill-opacity:1;stroke:#0066ff;stroke-width:6;stroke-linecap:butt;stroke-linejoin:miter;stroke-miterlimit:4;stroke-opacity:1;stroke-dasharray:none" />
      <path
         inkscape:connector-curvature="0"
         id="path3226"
         d="m 3680.5083,779.83583 2.1927,31.59717"
         style="fill:#0066ff;fill-opacity:1;stroke:#0066ff;stroke-width:6;stroke-linecap:butt;stroke-linejoin:miter;stroke-miterlimit:4;stroke-opacity:1;stroke-dasharray:none" />
      <path
         inkscape:connector-curvature="0"
         id="path3252"
         d="m 3739.4204,786.32737 0.5665,14.49834"
         style="fill:#0066ff;fill-opacity:1;stroke:#0066ff;stroke-width:6;stroke-linecap:butt;stroke-linejoin:miter;stroke-miterlimit:4;stroke-opacity:1;stroke-dasharray:none" />
      <path
         inkscape:connector-curvature="0"
         id="path3254"
         d="m 3749.3986,780.12444 0.3595,21.92282"
         style="fill:#0066ff;fill-opacity:1;stroke:#0066ff;stroke-width:6;stroke-linecap:butt;stroke-linejoin:miter;stroke-miterlimit:4;stroke-opacity:1;stroke-dasharray:none" />
      <g
         clip-path="url(#clipPath9957)"
         transform="matrix(-0.98066434,-0.19569735,-0.19569735,0.98066434,10011.172,1983.0859)"
         id="g3272"
         style="fill:#000080;fill-opacity:1">
        <path
           style="fill:#000080;fill-opacity:1;fill-rule:evenodd;stroke:none"
           d="m 6043.4894,-57.972432 c 14.212,0.187228 33.8299,5.960808 52,12.75 16.7967,6.276058 39.1078,17.7308 56.8438,28.875 -2.6005,0.0324 -5.2137,0.0733 -7.8126,0.0937 -7.6536,0.0602 -13.7148,0.24587 -24.4062,-0.28125 -22.3835,-1.10357 -46.3549,-4.69521 -66.5,-9.9375 -9.2835,-2.41581 -42.5935,-13.120045 -62.375,-19.875 3.9477,-1.622834 6.5669,-2.754965 8.4375,-3.34375 13.8797,-4.36877 27.6256,-7.673329 41.0313,-8.25 0.897,-0.0386 1.8337,-0.04373 2.7812,-0.03125 z m 124.1562,44.625 c 21.4044,-0.0749 43.5248,3.4353701 63.0313,8.5000001 3.3801,0.87762 16.0749,5.47145002 24.0313,9.4375 11.0624,5.5144499 30.0481,18.0142499 36.7187,24.1562499 1.049,0.88891 2.2054,1.88842 3.2813,2.8125 -29.6279,-0.99725 -56.6547,-6.10264 -77.5,-14.84375 -14.1377,-5.92821 -35.0221,-17.49045988 -54.625,-30 1.6777,-0.0518 3.3739,-0.0566 5.0624,-0.0625 z m 136.3126,48.4375 c 31.1718,0.0732 51.3812,1.27559 57.6562,3.4375 6.5942,2.27188 12.9436,6.58819 18.3125,12.40625 5.1676,5.59995 9.691,10.31634 13.8125,14.40625 -7.7373,0.52401 -15.1375,0.50247 -21.0938,-0.1875 -24.4526,-2.83258 -42.4732,-10.6301 -67.75,-29.34375 -0.297,-0.21998 -0.6267,-0.48452 -0.9374,-0.71875 z m 140.375,25.21875 c 1.4207,-0.0278 2.6294,0.0437 3.5624,0.21875 6.2373,1.17008 12.9631,7.57802 21.0626,20 2.663,4.08446 5.486,7.9396 8.4374,11.59375 -0.2788,0.002 -0.5673,-1.3e-4 -0.8437,0 -25.2686,0.0118 -45.2732,-5.96184 -65.625,-19.65625 -1.4865,-1.00025 -3.1249,-2.14964 -4.8125,-3.40625 4.2199,-0.95988 8.5902,-2.24985 13.5625,-3.90625 8.3947,-2.79645 18.4991,-4.7231 24.6563,-4.84375 z m 88.75,28 c 2.8305,-0.0293 5.226,0.23736 6.9687,0.8125 6.4013,2.1126 13.9086,10.72972 20.0937,23.062502 3.042,6.06518 6.2176,11.69965 9.5626,17 -27.257,-2.44114 -44.6968,-8.2459 -64.375,-21.3125 -3.7226,-2.47165 -8.3922,-6.26573 -13.3126,-10.687502 5.1883,-0.92089 10.5795,-2.39825 17.8438,-4.65625 8.5992,-2.67292 16.9914,-4.15437 23.2188,-4.21875 z m 93.5937,42.937502 c 8.9561,-0.14004 18.5277,0.70042 22.375,2.3125 5.4596,2.28767 10.187,6.06039 13.125,10.5 l 2.5,3.75 -2.0313,14.40625 c -1.0913,7.84746 -2.42,18.35185 -3,23.53125 -25.7399,-10.05319 -39.3745,-18.27398 -55.7812,-31.9375 -4.8164,-4.0111 -12.3,-11.11273 -16.625,-15.75 -0.4437,-0.47579 -0.9051,-1.01062 -1.375,-1.53125 8.9035,-0.62874 17.9314,-1.92363 26.75,-3.9375 3.5547,-0.81178 8.6888,-1.25972 14.0625,-1.34375 z m 46.1875,70.65625 c 2.1564,0.67757 4.3201,1.34367 6.5,1.96875 1.0754,0.30837 2.1698,0.61106 3.25,0.90625 l 10.4688,2.875 -9.4688,0.71875 c -3.3804,0.25628 -6.9177,0.61035 -10.5625,1.03125 -0.042,-1.85904 -0.08,-3.2954 -0.125,-5.25 -0.021,-0.89455 -0.042,-1.38551 -0.062,-2.25 z m -844.25,-263.512815 c 57.9073,-4.745394 97.5174,-1.988536 145,8.731563 l 3.75,1.5625 c 1.0509,0.43992 2.8118,1.108512 5.0312,1.90625 l 3.4688,-0.875 c 6.7375,-1.665658 12.4683,-3.173919 12.7188,-3.34375 15.323,-4.913404 28.2312,-9.179823 47.3437,-9.5 1.2742,-0.02135 2.5743,-0.01462 3.9063,0 l 7.875,0.65625 c 25.7159,2.14463 54.7248,14.552269 86.9062,37.1875 4.2003,2.95435 8.607,5.92253 13.125,8.875 19.9436,-0.25961 39.9171,-0.46012 59.7812,2 26.1762,3.24184 47.4766,14.61547012 67.75,33.84375 3.5414,3.35877 9.1883,8.18627 14.2813,12.25 6.2634,0.1147 12.6186,0.0671 19.0625,-0.1875 35.5527,-1.40471 40.7948,-1.18883 47.3125,2 4.0017,1.95785 7.0347,4.53125 10.8125,9.1875 4.2528,5.24164 14.4454,14.52226 23.875,22.0625 12.2543,-1.29648 24.6216,-3.81462 33.0312,-7.0625 17.38,-6.71214 19.9326,-6.06311 28.5938,7.125 4.6181,7.03165 14.25,17.67644 23.9375,26.96875 14.1751,-0.93109 29.6148,-3.69135 38.3437,-7.0625 11.3539,-4.38488 14.3967,-4.96849 18.5626,-3.59375 4.2888,1.41546 7.4675,5.1194 11.5624,13.4375 3.1385,6.375172 15.2908,23.016602 25.4063,35.218752 17.2999,0.51077 38.1053,-1.08355 50.375,-4.09375 23.3093,-5.7186 34.5225,-1.39313 37.1875,14.40625 0.6527,3.87016 1.8762,9.42407 2.7188,12.3125 1.019,3.49382 1.5898,13.23959 2.25,38.1875 3.8163,1.38024 7.8043,2.78808 12.125,4.28125 3.9306,1.35844 8.0075,2.74271 12.4062,4.21875 21.6353,7.25997 27.4415,8.86051 34.6562,9.40625 11.3035,0.85501 16.2368,2.454 16.6563,5.40625 0.2532,1.78277 -0.1443,2.25 -2,2.25 -1.2877,0 -5.5058,0.8767 -9.3437,1.96875 -3.8381,1.09204 -19.1188,3.58999 -33.9688,5.53125 -11.0187,1.44041 -20.7413,2.79035 -29.6875,4.1875 0.9782,47.17003 0.6231,55.40861 -1.625,66.53125 -1.1936,5.90583 -2.6121,14.64978 -3.1563,19.4375 -1.8549,16.32413 -7.1791,22.86253 -22.4062,27.5 -5.8719,1.78831 -8.4892,2.01643 -18,1.53125 l -0.625,-22.03125 c 12.9185,-0.17648 15.0316,-0.45483 19.2812,-2.53125 5.6911,-2.78069 13.0574,-9.87937 15.7813,-15.21875 2.1536,-4.2213 2.3616,-0.36325 -3.0625,-52.40625 -0.4569,-4.37365 -0.7335,-11.89299 -0.875,-20.3125 -19.5632,3.53658 -36.4585,7.73198 -57.6875,14.28125 l -8.75,-17.71875 c 20.876,-6.59628 44.7685,-12.14292 66.3437,-15.53125 0.049,-5.09566 0.1593,-9.98116 0.3126,-14.25 -16.5728,-6.22709 -31.9683,-13.91008 -44.8438,-22.46875 -15.7743,-10.4856 -28.3982,-22.56033 -39.1875,-37.6875 -15.0782,0.10417 -29.4109,-1.83174 -41.3125,-5.78125 -19.8944,-6.6019 -36.8601,-17.58345 -50.9062,-32.906252 -3.5636,0.2407 -7.4415,0.3273 -12.0938,0.3125 -16.3977,-0.052 -26.0847,-1.91442 -40.7812,-7.90625 -11.2428,-4.58363 -19.6825,-9.8966 -30.875,-20.3125 -5.6695,0.84798 -11.4429,1.2068 -18.3438,1.1875 -15.0727,-0.0423 -26.0291,-2.04864 -39.3438,-7.21875 -15.089,-5.85914 -29.5324,-18.1298 -42.4374,-29.25 -17.6018,0.004 -35.7909,-0.44603 -40.6876,-1.03125 -33.2157,-3.97002 -55.2518,-13.78421 -91.375,-40.6249999 -2.823,-2.09764 -5.9905,-4.2581701 -9.3437,-6.4687501 -1.4859,0.0904 -2.9654,0.18231 -4.4375,0.3125 l -11.438,1.03125 c -17.9875,1.59069 -52.1332,0.51004 -65.9375,-2.09375 -28.6785,-5.40937 -55.2119,-13.9578 -91.7812,-29.59375 l -10.1563,4.03125 c -17.1239,4.87472 -62.1052,16.64735 -144.1692,5.05862 l 0.8929,-7.142861 c 52.4906,9.091371 130.0224,5.962021 143.2143,-5.822009 l 0.7812,-0.1875 -0.7812,-0.34375 c -53.4709,-11.404732 -100.362,-13.248447 -145.5357,-6.682455 z"
           id="path3274"
           inkscape:connector-curvature="0"
           sodipodi:nodetypes="cccccsccccccsscsscccscccccccsccscccscscsscsccscscscsssssscsscscccsscssscscssssccccscsscsccscccsscssssccccssssccccsccsscscccccccscccccsccc" />
      </g>
    </g>
    <text
       xml:space="preserve"
       style="font-size:40px;font-style:normal;font-weight:normal;line-height:125%;letter-spacing:0px;word-spacing:0px;fill:#000000;fill-opacity:1;stroke:none;font-family:Sans"
       x="3631.4062"
       y="656.5625"
       id="text3299"
       sodipodi:linespacing="125%"><tspan
         sodipodi:role="line"
         id="tspan3301"
         x="3631.4062"
         y="656.5625">Gen</tspan></text>
    <text
       sodipodi:linespacing="125%"
       id="text3303"
       y="656.5625"
       x="3961.4062"
       style="font-size:40px;font-style:normal;font-weight:normal;line-height:125%;letter-spacing:0px;word-spacing:0px;fill:#000000;fill-opacity:1;stroke:none;font-family:Sans"
       xml:space="preserve"><tspan
         y="656.5625"
         x="3961.4062"
         id="tspan3305"
         sodipodi:role="line">Tránscritos</tspan></text>
    <text
       xml:space="preserve"
       style="font-size:40px;font-style:normal;font-weight:normal;line-height:125%;letter-spacing:0px;word-spacing:0px;fill:#000000;fill-opacity:1;stroke:none;font-family:Sans"
       x="4501.4062"
       y="656.5625"
       id="text3307"
       sodipodi:linespacing="125%"><tspan
         sodipodi:role="line"
         id="tspan3309"
         x="4501.4062"
         y="656.5625">Proteínas</tspan></text>
    <path
       inkscape:connector-curvature="0"
       id="path3311"
       d="m 4475.9095,27.815522 c 0.3838,23.596669 49.8481,17.951847 34.9053,3.009081 -5.9819,-5.981902 -18.9466,-2.386108 -23.4708,-11.434505 -3.4521,-6.904157 12.7272,-31.027051 16.8508,-18.6562999 11.3184,33.9550669 -57.6812,65.3185649 -43.9325,24.0726469 5.6596,-16.9791929 27.4031,-56.249267 49.9507,-33.7017089 3.2231,3.223097 19.8147,16.339431 17.4527,21.0635699 -17.2465,34.493061 -60.0996,-9.1913879 -76.4307,23.470828 -1.1735,2.347111 -4.6514,6.946282 -3.0091,10.230874 9.0384,18.076751 34.5387,14.998371 52.3581,11.434506 11.0082,-2.201654 22.8846,-4.830206 22.869,-4.814529 -1.4248,1.424709 -3.6997,1.671574 -5.4164,2.407264"
       style="fill:none;stroke:#000080;stroke-width:6.0181613;stroke-linecap:butt;stroke-linejoin:miter;stroke-miterlimit:4;stroke-opacity:1;stroke-dasharray:none" />
    <path
       inkscape:connector-curvature="0"
       id="path3313"
       d="m 4590.7882,31.604757 c -5.5946,4.628312 -15.4195,9.948513 -22.1481,9.948513 -47.8081,0 6.1992,-23.844157 6.8148,-24.871282 2.4862,-4.147936 -8.752,-14.0174659 -11.074,-12.0803329 -7.593,6.3339359 45.9999,67.2163749 45.9999,18.4758089 0,-11.101569 -33.9153,-41.636786 -46.8518,-36.241014 -30.9512,12.9096441 -16.9694,59.709907 11.0741,67.507764 9.2483,2.57163 44.3389,-7.852193 48.5555,-11.369727 4.7871,-3.993274 -18.3149,-24.101447 7.6667,-27.713713"
       style="fill:none;stroke:#ff6600;stroke-width:6.24260044;stroke-linecap:butt;stroke-linejoin:miter;stroke-miterlimit:4;stroke-opacity:1;stroke-dasharray:none" />
    <path
       style="fill:none;stroke:#008000;stroke-width:6.0181613;stroke-linecap:butt;stroke-linejoin:miter;stroke-miterlimit:4;stroke-opacity:1;stroke-dasharray:none"
       d="m 4680.8836,11.172634 c -23.2921,3.798096 -10.5412,51.922802 2.0793,34.972987 5.0522,-6.785386 -0.3838,-19.092466 7.9138,-24.879754 6.3312,-4.415812 32.5435,8.098231 20.9005,13.970465 -31.9571,16.117945 -72.9855,-47.61029 -30.183,-39.9817989 17.62,3.140224 59.6257,18.9654269 40.5824,44.5415429 -2.7222,3.656022 -13.2966,21.972716 -18.3131,20.320012 -36.6276,-12.06772 0.388,-60.7971769 -34.2955,-72.224305 -2.4923,-0.821121 -7.5468,-3.596071 -10.5588,-1.495262 -16.5768,11.5617601 -9.8367,36.347081 -3.729,53.46223 3.7732,10.573133 8.0945,21.943524 8.0767,21.93027 -1.616,-1.203285 -2.1899,-3.418518 -3.1665,-5.010464"
       id="path3315"
       inkscape:connector-curvature="0" />
    <path
       style="fill:none;stroke:#ff5555;stroke-width:6.61997747;stroke-linecap:round;stroke-linejoin:round;stroke-miterlimit:4;stroke-opacity:1;stroke-dasharray:none"
       d="m 4623.2277,-65.830212 c 11.5174,3.16396 2.3276,20.98009 -7.6469,16.79251 -4.9599,-2.08232 -19.7728,-22.90955 -21.1758,-21.73147 -8.0329,6.74486 2.4505,19.67389 -4.1175,25.18875 -8.2739,6.94712 -21.0064,-3.66663 -24.1169,-8.89015 -10.7643,-18.07654 12.7234,-39.82319 24.7051,-49.883598 15.2938,-12.84143 11.1184,46.968618 44.7045,18.768078 7.5238,-6.31735 -16.2706,-18.926928 -18.2347,-22.225368 -3.4227,-5.74764 14.6706,-19.32034 20.5876,-9.38402 3.5017,5.88046 -16.3444,23.018958 -20.5876,21.237578 -9.7488,-4.092798 -10.1189,-13.632228 -19.9995,-17.780288"
       id="path3317"
       inkscape:connector-curvature="0" />
    <path
       style="fill:none;stroke:#008080;stroke-width:6.24260044;stroke-linecap:butt;stroke-linejoin:miter;stroke-miterlimit:4;stroke-opacity:1;stroke-dasharray:none"
       d="m 4500.5989,-72.569782 c 5.5946,4.62831 15.4195,9.94851 22.1481,9.94851 47.8081,0 -6.1992,-23.84416 -6.8148,-24.87128 -2.4862,-4.14793 8.752,-14.017468 11.074,-12.08033 7.593,6.33393 -45.9999,67.21637 -45.9999,18.47581 0,-11.10157 33.9153,-41.636788 46.8518,-36.241018 30.9512,12.90965 16.9694,59.709908 -11.0741,67.507768 -9.2483,2.57162 -44.3389,-7.8522 -48.5555,-11.36973 -4.7871,-3.99328 18.3149,-24.10145 -7.6667,-27.71371"
       id="path3319"
       inkscape:connector-curvature="0" />
    <path
       style="fill:none;stroke:#806600;stroke-width:6.0181613;stroke-linecap:butt;stroke-linejoin:miter;stroke-miterlimit:4;stroke-opacity:1;stroke-dasharray:none"
       d="m 4499.9435,-205.5104 c 23.2922,3.79809 10.5412,51.9228 -2.0793,34.97298 -5.0522,-6.78539 0.3838,-19.09246 -7.9138,-24.87975 -6.3312,-4.41581 -32.5435,8.09823 -20.9005,13.97046 31.9571,16.11794 72.9855,-47.61029 30.183,-39.9818 -17.62,3.14023 -59.6257,18.96543 -40.5824,44.54154 2.7222,3.65603 13.2966,21.97272 18.3131,20.32002 36.6276,-12.06772 -0.388,-60.79718 34.2955,-72.22431 2.4923,-0.82112 7.5468,-3.59607 10.5588,-1.49526 16.5768,11.56176 9.8367,36.34708 3.729,53.46223 -3.7732,10.57313 -8.0945,21.94353 -8.0767,21.93027 1.616,-1.20328 2.1899,-3.41852 3.1665,-5.01047"
       id="path3321"
       inkscape:connector-curvature="0" />
    <path
       style="fill:none;stroke:#374845;stroke-width:6.24260044;stroke-linecap:butt;stroke-linejoin:miter;stroke-miterlimit:4;stroke-opacity:1;stroke-dasharray:none"
       d="m 4594.9553,-186.12003 c -5.5947,4.62831 -15.4196,9.94852 -22.1482,9.94852 -47.8081,0 6.1993,-23.84416 6.8148,-24.87128 2.4862,-4.14794 -8.7519,-14.01747 -11.074,-12.08033 -7.593,6.33393 46,67.21637 46,18.4758 0,-11.10157 -33.9154,-41.63678 -46.8519,-36.24101 -30.9512,12.90964 -16.9693,59.70991 11.0741,67.50776 9.2483,2.57163 44.3389,-7.8522 48.5556,-11.36973 4.787,-3.99327 -18.315,-24.10144 7.6666,-27.71371"
       id="path3323"
       inkscape:connector-curvature="0" />
    <path
       inkscape:connector-curvature="0"
       id="path3325"
       d="m 4712.8178,-203.41054 c 11.5174,-3.16396 2.3277,-20.98009 -7.6468,-16.7925 -4.96,2.08231 -19.7728,22.90954 -21.1759,21.73146 -8.0329,-6.74486 2.4506,-19.67388 -4.1175,-25.18875 -8.2738,-6.94712 -21.0064,3.66663 -24.1169,8.89015 -10.7643,18.07655 12.7234,39.82319 24.7051,49.8836 15.2938,12.84144 11.1185,-46.96861 44.7045,-18.76808 7.5238,6.31735 -16.2705,18.92693 -18.2347,22.22537 -3.4227,5.74764 14.6706,19.32034 20.5876,9.38402 3.5018,-5.88046 -16.3444,-23.01896 -20.5876,-21.23757 -9.7488,4.0928 -10.1189,13.63222 -19.9994,17.78029"
       style="fill:none;stroke:#a02c5a;stroke-width:6.61997747;stroke-linecap:round;stroke-linejoin:round;stroke-miterlimit:4;stroke-opacity:1;stroke-dasharray:none" />
    <path
       style="fill:none;stroke:#536c67;stroke-width:6.0181613;stroke-linecap:round;stroke-linejoin:round;stroke-miterlimit:4;stroke-opacity:1;stroke-dasharray:none"
       d="m 4643.3208,504.83283 c 1.5002,-12.11372 27.6707,-15.24782 19.871,0.36152 -2.3481,4.69931 -9.6667,5.60791 -11.9226,10.12264 -1.9023,3.80714 1.2677,8.94924 4.3355,10.48416 7.2474,3.62599 7.5871,-11.25972 7.5871,-13.37634 0,-12.76846 -14.4681,-9.77767 -19.871,-15.18394 -5.3653,-5.36881 2.2696,-13.50616 9.0323,-10.12264 18.2926,9.15218 35.5358,35.00303 10.8387,47.35946 -14.933,7.47127 -24.9321,-36.8723 -36.4903,-25.30659"
       id="path3327"
       inkscape:connector-curvature="0" />
    <path
       style="fill:none;stroke:#000080;stroke-width:6.0181613;stroke-linecap:butt;stroke-linejoin:miter;stroke-miterlimit:4;stroke-opacity:1;stroke-dasharray:none"
       d="m 4524.714,576.8014 c 0.2304,14.17498 29.9256,10.78402 20.9549,1.80762 -3.5912,-3.59345 -11.3743,-1.43339 -14.0904,-6.86894 -2.0724,-4.14745 7.6406,-18.63854 10.1162,-11.2072 6.7948,20.39747 -34.6281,39.23813 -26.3742,14.46091 3.3976,-10.19973 16.451,-33.79002 29.9871,-20.24527 1.9349,1.93618 11.8954,9.81541 10.4775,12.6533 -10.3537,20.72064 -36.0799,-5.52145 -45.8841,14.09938 -0.7044,1.40995 -2.7923,4.17276 -1.8064,6.14588 5.426,10.85905 20.7348,9.00981 31.4324,6.86893 6.6086,-1.32257 13.7384,-2.9016 13.729,-2.89218 -0.8553,0.85585 -2.221,1.00414 -3.2516,1.44609"
       id="path3329"
       inkscape:connector-curvature="0" />
    <path
       style="fill:none;stroke:#ff6600;stroke-width:6.24260092;stroke-linecap:butt;stroke-linejoin:miter;stroke-miterlimit:4;stroke-opacity:1;stroke-dasharray:none"
       d="m 4593.6797,579.07767 c -3.3586,2.78031 -9.2569,5.97627 -13.2963,5.97627 -28.7009,0 3.7216,-14.32365 4.0912,-14.94067 1.4925,-2.49174 -5.2542,-8.42056 -6.6481,-7.25689 -4.5584,3.80492 27.6153,40.37818 27.6153,11.09878 0,-6.66893 -20.3605,-25.01203 -28.1268,-21.77068 -18.581,7.75507 -10.1873,35.8689 6.6482,40.55322 5.5521,1.54483 26.6182,-4.71696 29.1496,-6.83002 2.8738,-2.39883 -10.9951,-14.4782 4.6026,-16.64816"
       id="path3331"
       inkscape:connector-curvature="0" />
    <path
       inkscape:connector-curvature="0"
       id="path3333"
       d="m 4647.7671,566.8037 c -13.9831,2.28159 -6.3283,31.19103 1.2483,21.00895 3.033,-4.07612 -0.2304,-11.46922 4.7509,-14.94575 3.8008,-2.65267 19.537,4.86476 12.5473,8.39233 -19.185,9.68236 -43.8157,-28.60043 -18.1199,-24.01784 10.5779,1.88639 35.7954,11.3929 24.363,26.75696 -1.6342,2.19624 -7.9824,13.19944 -10.994,12.20662 -21.9888,-7.24931 0.233,-36.52203 -20.5888,-43.38653 -1.4962,-0.49326 -4.5306,-2.16023 -6.3388,-0.89823 -9.9516,6.94537 -5.9053,21.83439 -2.2386,32.11579 2.2652,6.35149 4.8594,13.1819 4.8487,13.17394 -0.9701,-0.72284 -1.3147,-2.05357 -1.901,-3.00988"
       style="fill:none;stroke:#008000;stroke-width:6.0181613;stroke-linecap:butt;stroke-linejoin:miter;stroke-miterlimit:4;stroke-opacity:1;stroke-dasharray:none" />
    <path
       inkscape:connector-curvature="0"
       id="path3335"
       d="m 4613.1542,520.5466 c 6.9143,1.90065 1.3974,12.60314 -4.5907,10.08758 -2.9776,-1.25089 -11.8703,-13.76221 -12.7125,-13.05451 -4.8225,4.05176 1.4711,11.81848 -2.4719,15.13137 -4.9671,4.17327 -12.6109,-2.20262 -14.4782,-5.34049 -6.4622,-10.85893 7.6383,-23.92256 14.8313,-29.96604 9.1814,-7.71409 6.6748,28.21496 26.8377,11.27435 4.5168,-3.79496 -9.7678,-11.36977 -10.9469,-13.35121 -2.0548,-3.45272 8.8072,-11.6061 12.3594,-5.63716 2.1022,3.53251 -9.8121,13.82793 -12.3594,12.75782 -5.8526,-2.45862 -6.0748,-8.18914 -12.0064,-10.68096"
       style="fill:none;stroke:#ff5555;stroke-width:6.61997747;stroke-linecap:round;stroke-linejoin:round;stroke-miterlimit:4;stroke-opacity:1;stroke-dasharray:none" />
    <path
       inkscape:connector-curvature="0"
       id="path3337"
       d="m 4539.5359,516.49801 c 3.3586,2.78031 9.2569,5.97626 13.2963,5.97626 28.7009,0 -3.7216,-14.32365 -4.0912,-14.94066 -1.4925,-2.49174 5.2542,-8.42056 6.6481,-7.25689 4.5584,3.80491 -27.6153,40.37817 -27.6153,11.09878 0,-6.66893 20.3605,-25.01202 28.1268,-21.77068 18.581,7.75508 10.1873,35.86889 -6.6482,40.55322 -5.5521,1.54482 -26.6182,-4.71697 -29.1496,-6.83002 -2.8738,-2.39884 10.9951,-14.47821 -4.6025,-16.64816"
       style="fill:none;stroke:#008080;stroke-width:6.24260092;stroke-linecap:butt;stroke-linejoin:miter;stroke-miterlimit:4;stroke-opacity:1;stroke-dasharray:none" />
    <path
       inkscape:connector-curvature="0"
       id="path3339"
       d="m 4539.1425,436.63801 c 13.9831,2.28158 6.3282,31.19103 -1.2483,21.00894 -3.033,-4.07611 0.2304,-11.46921 -4.751,-14.94574 -3.8008,-2.65267 -19.5369,4.86476 -12.5472,8.39232 19.1849,9.68236 43.8157,-28.60042 18.1199,-24.01784 -10.5779,1.8864 -35.7954,11.3929 -24.3631,26.75697 1.6343,2.19624 7.9824,13.19943 10.994,12.20663 21.9888,-7.24932 -0.2329,-36.52205 20.5888,-43.38654 1.4962,-0.49327 4.5306,-2.16023 6.3388,-0.89824 9.9516,6.94538 5.9053,21.8344 2.2387,32.1158 -2.2652,6.35148 -4.8594,13.1819 -4.8488,13.17394 0.9702,-0.72284 1.3147,-2.05357 1.901,-3.00989"
       style="fill:none;stroke:#806600;stroke-width:6.0181613;stroke-linecap:butt;stroke-linejoin:miter;stroke-miterlimit:4;stroke-opacity:1;stroke-dasharray:none" />
    <path
       inkscape:connector-curvature="0"
       id="path3341"
       d="m 4596.1813,448.28618 c -3.3587,2.78031 -9.2569,5.97627 -13.2963,5.97627 -28.7009,0 3.7217,-14.32365 4.0912,-14.94066 1.4925,-2.49175 -5.2541,-8.42057 -6.6481,-7.25689 -4.5584,3.80491 27.6154,40.37817 27.6154,11.09877 0,-6.66893 -20.3606,-25.01202 -28.1269,-21.77068 -18.581,7.75508 -10.1872,35.8689 6.6482,40.55322 5.5521,1.54483 26.6182,-4.71697 29.1496,-6.83001 2.8738,-2.39884 -10.9951,-14.47821 4.6025,-16.64817"
       style="fill:none;stroke:#374845;stroke-width:6.24260092;stroke-linecap:butt;stroke-linejoin:miter;stroke-miterlimit:4;stroke-opacity:1;stroke-dasharray:none" />
    <path
       style="fill:none;stroke:#a02c5a;stroke-width:6.61997747;stroke-linecap:round;stroke-linejoin:round;stroke-miterlimit:4;stroke-opacity:1;stroke-dasharray:none"
       d="m 4666.9383,437.89943 c 6.9143,-1.90065 1.3974,-12.60314 -4.5906,-10.08757 -2.9777,1.25088 -11.8703,13.7622 -12.7127,13.0545 -4.8224,-4.05176 1.4712,-11.81848 -2.4718,-15.13137 -4.9671,-4.17327 -12.6109,2.20262 -14.4783,5.34049 -6.4621,10.85893 7.6383,23.92256 14.8314,29.96604 9.1814,7.7141 6.6748,-28.21495 26.8376,-11.27435 4.5168,3.79496 -9.7677,11.36978 -10.9469,13.35121 -2.0548,3.45272 8.8073,11.60611 12.3595,5.63717 2.1022,-3.53251 -9.8122,-13.82794 -12.3595,-12.75782 -5.8525,2.45862 -6.0747,8.18914 -12.0063,10.68096"
       id="path3343"
       inkscape:connector-curvature="0" />
    <g
       id="g5331"
       transform="translate(43.999999,-623.99998)">
      <path
         style="fill:none;stroke:#2c8035;stroke-width:1.80300617;stroke-linecap:butt;stroke-linejoin:miter;stroke-miterlimit:4;stroke-opacity:1;stroke-dasharray:none"
         d="m 3865.1514,779.06989 9.6108,8.28356"
         id="path5213"
         inkscape:connector-curvature="0" />
      <path
         style="fill:none;stroke:#2c8035;stroke-width:1.80300617;stroke-linecap:butt;stroke-linejoin:miter;stroke-miterlimit:4;stroke-opacity:1;stroke-dasharray:none"
         d="m 3915.8543,795.1223 12.4597,6.64429"
         id="path5215"
         inkscape:connector-curvature="0"
         sodipodi:nodetypes="cc" />
      <path
         style="fill:#4fc115;fill-opacity:1;stroke:none"
         d="m 3836.5054,753.34659 21.8563,29.80404 10.6855,-0.63579 -0.6224,-10.91524 -28.6494,-21.07607 z"
         id="path5219"
         inkscape:connector-curvature="0"
         sodipodi:nodetypes="cccccc" />
      <path
         style="fill:#76cc2f;fill-opacity:1;stroke:none"
         d="m 3872.491,790.67025 28.1968,15.23269 18.1987,-9.91904 -10.6881,-14.87672 -17.3151,9.45859 -17.8673,-15.94481 z"
         id="path5221"
         inkscape:connector-curvature="0"
         sodipodi:nodetypes="ccccccc" />
      <path
         sodipodi:nodetypes="cc"
         inkscape:connector-curvature="0"
         id="path5223"
         d="m 4000.086,792.86161 44.9265,-9.46901"
         style="fill:none;stroke:#b0f0b5;stroke-width:2.40400815;stroke-linecap:butt;stroke-linejoin:miter;stroke-miterlimit:4;stroke-opacity:1;stroke-dasharray:none" />
      <path
         inkscape:connector-curvature="0"
         id="path5225"
         d="m 3954.9107,802.7209 14.1159,-1.84079"
         style="fill:none;stroke:#2c8035;stroke-width:2.10350728;stroke-linecap:butt;stroke-linejoin:miter;stroke-miterlimit:4;stroke-opacity:1;stroke-dasharray:none" />
      <path
         style="fill:#713775;fill-opacity:1;stroke:none"
         d="m 4081.8477,998.52149 c 6.4036,-4.21374 8.0197,-23.07546 -0.096,-25.94767 -18.8624,-6.67563 -77.1268,-0.0212 -94.7421,7.88086 -10.5532,4.7341 -8.8603,15.93601 -1.7861,20.88042 10.4319,1.2389 22.3025,-8.72261 42.5546,-10.99098 32.4287,-3.63216 42.8357,10.06528 54.0694,8.17737 z"
         id="path5227"
         inkscape:connector-curvature="0"
         sodipodi:nodetypes="csscsc" />
      <path
         sodipodi:nodetypes="sssssssss"
         inkscape:connector-curvature="0"
         id="path5229"
         d="m 4045.4147,864.73385 c -24.1423,-4.01944 -47.1146,8.93677 -56.573,16.08746 -15.0814,11.40198 -22.8054,26.45778 -24.3577,49.49278 -1.5523,23.03508 7.1515,53.34855 23.1421,52.93037 5.3144,-0.139 9.0415,-4.2234 13.774,-6.95245 10.2169,-5.89168 31.0538,-8.59492 40.4705,-7.02687 9.8936,1.64747 37.2625,7.00832 40.0102,4.78867 12.9034,-10.42331 11.177,-43.89429 7.3153,-61.39806 -4.538,-20.56884 -14.1828,-42.99405 -43.7814,-47.9219 z"
         style="fill:#6f2972;fill-opacity:1;stroke:none" />
      <path
         sodipodi:nodetypes="ccccc"
         inkscape:connector-curvature="0"
         id="path5231"
         d="m 3958.4942,981.82471 -9.3045,-29.19815 3.54,-7.37023 7.3101,4.94414 8.5718,28.81842"
         style="fill:#ff5496;fill-opacity:1;stroke:none" />
      <path
         sodipodi:nodetypes="ccccc"
         inkscape:connector-curvature="0"
         id="path5233"
         d="m 3976.8062,979.37136 -8.4008,-30.91382 3.7556,-7.21058 7.5614,4.21529 7.3879,31.66597"
         style="fill:#ff5496;fill-opacity:1;stroke:none" />
      <path
         sodipodi:nodetypes="cccc"
         inkscape:connector-curvature="0"
         id="path5235"
         d="m 4014.7035,973.41499 -4.6639,-27.45285 c 2.6076,8.9046 12.5688,7.17415 11.9856,-1.28532 l 3.6359,26.83193"
         style="fill:#ff2d93;fill-opacity:1;stroke:none" />
      <path
         sodipodi:nodetypes="cccc"
         inkscape:connector-curvature="0"
         id="path5237"
         d="m 4006.3752,974.88364 -6.3142,-32.43592 c -1.4354,-9.57587 -12.9906,-7.55552 -11.3645,1.85876 l 6.6706,33.40758"
         style="fill:#f10091;fill-opacity:1;stroke:none" />
      <path
         sodipodi:nodetypes="cccc"
         inkscape:connector-curvature="0"
         id="path5239"
         d="m 4045.9507,972.21181 -2.5568,-34.07072 c -0.9908,-9.90354 -13.624,-9.0476 -12.4285,0.88506 l 3.7634,35.36987"
         style="fill:#f10091;fill-opacity:1;stroke:none" />
      <path
         sodipodi:nodetypes="cccc"
         inkscape:connector-curvature="0"
         id="path5241"
         d="m 4066.3833,971.86818 -0.5992,-34.57758 c -0.4689,-9.50564 -13.388,-9.10106 -12.7129,0.32618 l 1.7648,35.00228"
         style="fill:#f10091;fill-opacity:1;stroke:none" />
      <path
         sodipodi:nodetypes="ccccc"
         inkscape:connector-curvature="0"
         id="path5243"
         d="m 4075.6658,972.49499 0.441,-28.45721 6.2764,6.55421 6.2562,-5.88478 -1.4199,29.04475"
         style="fill:#ff3575;fill-opacity:1;stroke:none" />
      <path
         sodipodi:nodetypes="cccc"
         inkscape:connector-curvature="0"
         id="path5245"
         d="m 4096.9275,972.50587 2.2359,-27.55729 c -0.2659,8.97825 11.4601,10.00397 12.9079,1.65351 l -3.2354,26.92976"
         style="fill:#ff2d93;fill-opacity:1;stroke:none" />
      <path
         sodipodi:nodetypes="cccc"
         inkscape:connector-curvature="0"
         id="path5247"
         d="m 4118.2429,974.88699 4.5436,-27.37269 c -1.0932,8.91268 10.7112,11.29304 12.9232,3.11918 l -5.5559,26.57501"
         style="fill:#ff2d93;fill-opacity:1;stroke:none" />
      <path
         sodipodi:nodetypes="ccccc"
         inkscape:connector-curvature="0"
         id="path5249"
         d="m 3941.8877,988.01844 -9.4408,-25.07446 6.8585,3.32568 3.5341,-6.57298 8.3758,25.07297"
         style="fill:#ff3575;fill-opacity:1;stroke:none" />
      <path
         sodipodi:nodetypes="ssssss"
         inkscape:connector-curvature="0"
         id="path5251"
         d="m 4081.8477,998.52149 c 6.4036,-4.21374 4.5799,-19.60412 -3.5356,-22.47629 -18.8623,-6.67567 -69.5795,-3.01319 -87.1947,4.88887 -10.5533,4.73406 -12.9679,15.45662 -5.8937,20.40103 12.9345,9.0404 23.1216,-1.1648 43.3738,-3.43315 32.4286,-3.63217 40.4037,9.07295 53.2502,0.61954 z"
         style="fill:#7f338b;fill-opacity:1;stroke:none" />
      <path
         sodipodi:nodetypes="cccc"
         inkscape:connector-curvature="0"
         id="path5253"
         d="m 4039.5292,894.50983 2.6388,33.41642 c -1.8768,-7.94843 -12.0099,-7.34228 -12.0137,0.60688 l -3.5106,-32.70265"
         style="fill:#33b67a;fill-opacity:1;stroke:none" />
      <path
         sodipodi:nodetypes="cccc"
         inkscape:connector-curvature="0"
         id="path5255"
         d="m 4064.3739,892.98111 0.9336,35.1883 c -1.4282,-7.89014 -11.3704,-8.70803 -12.6298,-0.0514 l -1.8868,-34.48981"
         style="fill:#33b67a;fill-opacity:1;stroke:none" />
      <path
         sodipodi:nodetypes="ccccc"
         inkscape:connector-curvature="0"
         id="path5257"
         d="m 4089.8588,894.26973 -1.547,41.93949 -6.1438,6.82845 -5.8373,-7.46159 0.1326,-38.71579"
         style="fill:#46c471;fill-opacity:1;stroke:none" />
      <g
         id="g5259"
         transform="matrix(0.8800552,0.43534358,-0.54886839,0.72087784,2702.0814,58.572811)">
        <path
           style="fill:none;stroke:#2c8035;stroke-width:2.57240677;stroke-linecap:butt;stroke-linejoin:miter;stroke-miterlimit:4;stroke-opacity:1;stroke-dasharray:none"
           d="m 1584.6633,59.383764 13.6009,19.518202"
           id="path5261"
           inkscape:connector-curvature="0" />
        <path
           sodipodi:nodetypes="cccccsssccccccccccsssccc"
           inkscape:connector-curvature="0"
           id="path5263"
           d="m 1597.4571,71.059742 -4.5931,3.180205 -8.5137,22.349161 14.4423,20.742932 -2.7378,1.81307 c -3.4132,-1.66252 -7.1848,-1.78663 -10.1988,0.0336 -5.2076,3.14495 -6.192,10.88123 -2.2004,17.28141 3.9917,6.40016 11.4471,9.03962 16.6548,5.89467 2.9249,-1.76642 4.5202,-4.98497 4.6475,-8.59842 l 3.3342,-2.23126 26.0962,37.18912 -19.1881,12.46212 7.914,9.89596 52.8452,-34.05252 -5.8232,-10.95923 -19.3288,12.5795 -24.6131,-39.76089 2.9274,-1.91301 c 3.4445,1.71844 7.2613,1.85651 10.3106,0.015 5.2076,-3.14495 6.1919,-10.88123 2.2003,-17.281388 -3.9916,-6.400182 -11.447,-9.039637 -16.6547,-5.894688 -3.1405,1.896614 -4.7389,5.471788 -4.6429,9.408446 l -2.7113,1.81158 z"
           style="fill:#2f9f52;fill-opacity:1;stroke:none" />
      </g>
      <path
         sodipodi:nodetypes="cccc"
         inkscape:connector-curvature="0"
         id="path5265"
         d="m 3992.7514,899.25295 5.8858,32.89622 c -3.0664,-7.30134 -11.6671,-4.85676 -11.8641,1.82788 l -6.6814,-32.09887"
         style="fill:#33b67a;fill-opacity:1;stroke:none" />
      <path
         sodipodi:nodetypes="cccc"
         inkscape:connector-curvature="0"
         id="path5267"
         d="m 4015.809,896.67692 4.9687,39.60275 c 0.3421,7.20924 -10.0447,8.09683 -11.6384,1.1854 l -5.5373,-36.36622"
         style="fill:#56ad73;fill-opacity:1;stroke:none" />
      <path
         sodipodi:nodetypes="ccccc"
         inkscape:connector-curvature="0"
         id="path5269"
         d="m 3969.6998,910.74314 7.0612,26.33433 -6.9922,-3.73227 -3.4998,7.26156 -7.0846,-28.11724"
         style="fill:#56ad5b;fill-opacity:1;stroke:none" />
      <g
         id="g5271"
         transform="matrix(0.88817501,0.27796987,-0.41265462,0.75829714,2595.0389,318.27602)">
        <path
           sodipodi:nodetypes="cccccsssccccccccccsssccc"
           inkscape:connector-curvature="0"
           id="path5273"
           d="m 1597.4571,71.059742 -4.5931,3.180205 -8.5137,22.349161 14.4423,20.742932 -2.7378,1.81307 c -3.4132,-1.66252 -7.1848,-1.78663 -10.1988,0.0336 -5.2076,3.14495 -6.192,10.88123 -2.2004,17.28141 3.9917,6.40016 11.4471,9.03962 16.6548,5.89467 2.9249,-1.76642 4.5202,-4.98497 4.6475,-8.59842 l 3.3342,-2.23126 26.0962,37.18912 -19.1881,12.46212 7.914,9.89596 52.8452,-34.05252 -5.8232,-10.95923 -19.3288,12.5795 -24.6131,-39.76089 2.9274,-1.91301 c 3.4445,1.71844 7.2613,1.85651 10.3106,0.015 5.2076,-3.14495 6.1919,-10.88123 2.2003,-17.281388 -3.9916,-6.400182 -11.447,-9.039637 -16.6547,-5.894688 -3.1405,1.896614 -4.7389,5.471788 -4.6429,9.408446 l -2.7113,1.81158 z"
           style="fill:#2f9f52;fill-opacity:1;stroke:none" />
      </g>
      <path
         transform="matrix(0.41272042,0.20253343,-0.19826959,0.42159607,3107.8399,468.7044)"
         inkscape:transform-center-y="9.1472979"
         inkscape:transform-center-x="0.76245111"
         d="m 1968.5715,-116.92353 -47.7222,-1.45886 -13.3596,-45.83734 39.4656,-26.87019 37.7506,29.23066 z"
         inkscape:randomized="0"
         inkscape:rounded="0"
         inkscape:flatsided="true"
         sodipodi:arg2="1.6013565"
         sodipodi:arg1="0.97303793"
         sodipodi:r2="27.818707"
         sodipodi:r1="40.613914"
         sodipodi:cy="-150.49496"
         sodipodi:cx="1945.7144"
         sodipodi:sides="5"
         id="path5275"
         style="fill:#52dc26;fill-opacity:1;fill-rule:evenodd;stroke:none"
         sodipodi:type="star" />
      <path
         sodipodi:nodetypes="ccccccc"
         inkscape:connector-curvature="0"
         id="path5277"
         d="m 3962.8244,801.9238 9.6699,-24.5362 19.1453,-3.88411 13.0225,13.7287 -6.1228,17.6129 -23.5925,7.45812 z"
         inkscape:transform-center-y="-0.14052398"
         inkscape:transform-center-x="9.4197883"
         style="fill:#50b530;fill-opacity:1;fill-rule:evenodd;stroke:none" />
      <text
         transform="matrix(0.62113752,0.78671535,-0.77015301,0.63449524,0,0)"
         sodipodi:linespacing="125%"
         id="text5279"
         y="-2564.0264"
         x="3015.3486"
         style="font-size:6.61102247px;font-style:normal;font-variant:normal;font-weight:normal;font-stretch:normal;line-height:125%;letter-spacing:-0.36060125px;word-spacing:0px;fill:#ffffff;fill-opacity:1;stroke:none;font-family:Frutiger Neue 55;-inkscape-font-specification:'Frutiger Neue 55,'"
         xml:space="preserve"><tspan
           y="-2564.0264"
           x="3015.3486"
           id="tspan5281"
           sodipodi:role="line">Methionina</tspan></text>
      <path
         inkscape:connector-curvature="0"
         id="path5283"
         d="m 4051.8903,763.63478 -14.7767,34.60686 40.726,-5.89053 z"
         style="fill:#26dc55;fill-opacity:1;stroke:none" />
      <path
         clip-path="url(#clipPath5327)"
         sodipodi:nodetypes="ccssssssssssssssssscccssssssssssssssccc"
         inkscape:connector-curvature="0"
         id="path5217"
         d="m 3924.9016,1475.9635 c 0,-0.1252 -0.4023,-2.5409 -0.8897,-5.3681 -2.9846,-17.3118 -4.2846,-31.6313 -4.262,-46.9468 0.019,-13.0374 0.7284,-20.9077 2.8189,-31.2826 4.0595,-20.1479 12.3825,-36.7217 25.2216,-50.2252 21.4232,-22.5318 51.3389,-36.4551 105.4087,-49.0594 3.5976,-0.8387 13.4315,-3.0275 21.8531,-4.8641 24.8245,-5.4137 29.4512,-6.6035 40.2102,-10.3404 24.8239,-8.622 49.5943,-22.574 70.6988,-39.8213 20.5285,-16.7765 37.7674,-36.8217 48.8237,-56.7716 20.2182,-36.4813 23.7167,-74.8256 10.2058,-111.8541 -3.4983,-9.5873 -6.9464,-16.6686 -11.641,-23.9065 -16.5229,-25.4737 -47.033,-44.2625 -88.2784,-54.36386 -32.0616,-7.85215 -70.8213,-10.34399 -110.7521,-7.1202 -48.9223,3.94973 -98.2504,15.89357 -139.1462,33.69156 -6.8095,2.9635 -20.2633,9.6014 -26.6102,13.1291 -20.347,11.309 -36.4594,23.7026 -52.4772,40.3653 -6.5324,6.7955 -9.3366,10.0058 -14.4922,16.591 -11.0681,14.1373 -20.9708,31.2667 -26.9952,46.6956 -0.9458,2.4222 -2.0073,5.9613 -2.2673,6.1774 l -7.1729,0.506 -3.421,-6.2393 c -0.048,-0.036 0.6363,-1.9619 1.5209,-4.2792 12.4506,-32.6146 33.9365,-62.5247 62.1041,-86.4538 28.0064,-23.7921 66.134,-42.9934 114.0503,-57.4363 71.2832,-21.48615 150.229,-25.71189 209.8215,-11.23114 48.7016,11.83431 83.2394,34.69934 101.0994,66.93074 5.938,10.716 11.5993,26.171 14.5185,39.6348 2.2016,10.1539 3.1625,19.2134 3.1571,29.7641 -0.01,19.6918 -3.7911,37.9088 -11.8196,56.9465 -12.4997,29.64 -35.0482,57.8263 -64.1411,80.1779 -27.1613,20.8676 -58.0858,35.7523 -88.6017,42.6462 -2.6165,0.591 -12.3835,2.519 -21.7044,4.2843 -39.5112,7.4831 -54.032,10.9621 -73.4384,17.5951 -32.4814,11.1021 -53.885,25.874 -66.9137,46.1814 -16.6236,25.9106 -20.511,60.3417 -12.3151,109.0772 0.6501,3.8659 1.1821,7.1118 1.182,7.2132 0,0.1013 -1.2041,0.1843 -2.6758,0.1843 -1.4718,10e-5 -2.6775,-0.1025 -2.6794,-0.2278 z"
         style="fill:#000080;fill-opacity:1" />
    </g>
    <g
       id="g5385">
      <path
         inkscape:connector-curvature="0"
         id="path11784"
         d="m 3670.7629,-67.021276 -158.8582,0"
         style="fill:none;stroke:#000000;stroke-width:3;stroke-linecap:butt;stroke-linejoin:miter;stroke-miterlimit:4;stroke-opacity:1;stroke-dasharray:12.00000002, 12.00000002;stroke-dashoffset:0" />
      <path
         inkscape:connector-curvature="0"
         id="path5371"
         d="m 3521.2272,-75.11001 -7.7782,7.77817 8.2201,8.22012"
         style="fill:none;stroke:#000000;stroke-width:2.5999999;stroke-linecap:round;stroke-linejoin:miter;stroke-miterlimit:4;stroke-opacity:1;stroke-dasharray:none" />
    </g>
    <g
       id="g5381">
      <path
         style="fill:none;stroke:#000000;stroke-width:3;stroke-linecap:butt;stroke-linejoin:miter;stroke-miterlimit:4;stroke-opacity:1;stroke-dasharray:12.00000002, 12.00000002;stroke-dashoffset:0"
         d="m 3670.7629,-24.188657 -158.8582,0"
         id="path11794"
         inkscape:connector-curvature="0" />
      <path
         style="fill:none;stroke:#000000;stroke-width:2.5999999;stroke-linecap:round;stroke-linejoin:miter;stroke-miterlimit:4;stroke-opacity:1;stroke-dasharray:none"
         d="m 3521.2272,-32.330051 -7.7782,7.77817 8.2201,8.22012"
         id="path5373"
         inkscape:connector-curvature="0" />
    </g>
    <path
       style="fill:none;stroke:#000000;stroke-width:3;stroke-linecap:butt;stroke-linejoin:miter;stroke-miterlimit:4;stroke-opacity:1;stroke-dasharray:12.00000002, 12.00000002;stroke-dashoffset:0"
       d="m 3671.47,17.155177 -158.8582,0"
       id="path11796"
       inkscape:connector-curvature="0" />
    <path
       style="fill:none;stroke:#000000;stroke-width:2.5999999;stroke-linecap:round;stroke-linejoin:miter;stroke-miterlimit:4;stroke-opacity:1;stroke-dasharray:none"
       d="m 3521.2272,9.0356947 -7.7782,7.7781703 8.2201,8.22012"
       id="path5375"
       inkscape:connector-curvature="0" />
    <path
       inkscape:connector-curvature="0"
       id="path5391"
       d="m 3890.3909,301.53569 7.7782,7.77817 -8.2201,8.22012"
       style="fill:none;stroke:#000000;stroke-width:2.5999999;stroke-linecap:round;stroke-linejoin:miter;stroke-miterlimit:4;stroke-opacity:1;stroke-dasharray:none" />
    <path
       style="fill:none;stroke:#4fc115;stroke-width:10.60000038;stroke-linecap:butt;stroke-linejoin:miter;stroke-miterlimit:0;stroke-opacity:1;stroke-dasharray:none"
       d="m 3896.6563,142.06259 c -23.5295,-23.1497 -16.6085,-40.64156 -5.25,-52.000001 10.913,-10.91301 29.6029,26.801491 36,30.000001 14.701,7.35054 34,-0.27171 34,-16 0,-41.69309 -48.7879,2.78786 -57,11"
       id="path9079"
       inkscape:connector-curvature="0"
       sodipodi:nodetypes="csssc" />
    <g
       id="g9840">
      <path
         style="fill:none;stroke:#000000;stroke-width:7;stroke-linecap:round;stroke-linejoin:round;stroke-miterlimit:4;stroke-opacity:1;stroke-dasharray:none"
         d="m 4390.1133,320.53988 c 156.0317,0.50267 163.0219,-54.16498 162.5903,-203.55924 l -11.0965,22.38547"
         id="path12638"
         inkscape:connector-curvature="0"
         sodipodi:nodetypes="ccc" />
      <path
         inkscape:connector-curvature="0"
         inkscape:original-d="m 4553.1847,115.6205 10.1761,25.12541"
         inkscape:path-effect="#path-effect9833"
         id="path9831"
         d="m 4553.1847,115.6205 10.1761,25.12541"
         style="fill:none;stroke:#000000;stroke-width:6.97689247;stroke-linecap:round;stroke-linejoin:round;stroke-miterlimit:4;stroke-opacity:1;stroke-dasharray:none" />
    </g>
    <g
       id="g9854">
      <path
         sodipodi:nodetypes="ccc"
         inkscape:connector-curvature="0"
         id="path12618"
         d="M 3069.9027,-24.375161 C 2911.7308,40.233905 2922.3134,286.34237 3107.5039,319.5625 l -10.6527,-22"
         style="fill:none;stroke:#000000;stroke-width:7;stroke-linecap:round;stroke-linejoin:round;stroke-miterlimit:4;stroke-opacity:1;stroke-dasharray:none" />
      <path
         inkscape:connector-curvature="0"
         inkscape:original-d="m 3106.8626,320.3091 -19.5486,11.2864"
         inkscape:path-effect="#path-effect9852"
         id="path9850"
         d="m 3106.8626,320.3091 -19.5486,11.2864"
         style="fill:none;stroke:#000000;stroke-width:7;stroke-linecap:round;stroke-linejoin:round;stroke-miterlimit:4;stroke-opacity:1;stroke-dasharray:none" />
    </g>
  </g>
  <g
     inkscape:groupmode="layer"
     id="layer3"
     inkscape:label="Capa"
     transform="translate(-139.51533,-142.1875)" />
</svg>
