<?xml version="1.0" encoding="UTF-8" standalone="no"?>
<!-- Created with Inkscape (http://www.inkscape.org/) -->

<svg
   xmlns:dc="http://purl.org/dc/elements/1.1/"
   xmlns:cc="http://creativecommons.org/ns#"
   xmlns:rdf="http://www.w3.org/1999/02/22-rdf-syntax-ns#"
   xmlns:svg="http://www.w3.org/2000/svg"
   xmlns="http://www.w3.org/2000/svg"
   xmlns:xlink="http://www.w3.org/1999/xlink"
   xmlns:sodipodi="http://sodipodi.sourceforge.net/DTD/sodipodi-0.dtd"
   xmlns:inkscape="http://www.inkscape.org/namespaces/inkscape"
   width="1717.8583"
   height="939.96497"
   id="svg2"
   version="1.1"
   inkscape:version="0.91 r13725"
   sodipodi:docname="proteome_complexity.svg">
  <defs
     id="defs4">
    <inkscape:path-effect
       effect="spiro"
       id="path-effect9852"
       is_visible="true" />
    <inkscape:path-effect
       effect="spiro"
       id="path-effect9833"
       is_visible="true" />
    <inkscape:path-effect
       effect="spiro"
       id="path-effect9635"
       is_visible="true" />
    <linearGradient
       id="linearGradient6465">
      <stop
         style="stop-color:#13bc7f;stop-opacity:1;"
         offset="0"
         id="stop6467" />
      <stop
         id="stop4121"
         offset="0.9501245"
         style="stop-color:#13bc7f;stop-opacity:1" />
      <stop
         style="stop-color:#13bc7f;stop-opacity:0;"
         offset="1"
         id="stop6469" />
    </linearGradient>
    <linearGradient
       id="linearGradient4342">
      <stop
         style="stop-color:#ff478e;stop-opacity:0.45454547;"
         offset="0"
         id="stop4344" />
      <stop
         style="stop-color:#ff478e;stop-opacity:0;"
         offset="1"
         id="stop4346" />
    </linearGradient>
    <linearGradient
       id="linearGradient5638">
      <stop
         style="stop-color:#ff478e;stop-opacity:1;"
         offset="0"
         id="stop5640" />
      <stop
         style="stop-color:#ff5496;stop-opacity:0;"
         offset="1"
         id="stop5642" />
    </linearGradient>
    <linearGradient
       inkscape:collect="always"
       id="linearGradient5596">
      <stop
         style="stop-color:#ff5496;stop-opacity:1;"
         offset="0"
         id="stop5598" />
      <stop
         style="stop-color:#ff5496;stop-opacity:0;"
         offset="1"
         id="stop5600" />
    </linearGradient>
    <linearGradient
       inkscape:collect="always"
       id="linearGradient5588">
      <stop
         style="stop-color:#ff0071;stop-opacity:1;"
         offset="0"
         id="stop5590" />
      <stop
         style="stop-color:#ff0071;stop-opacity:0;"
         offset="1"
         id="stop5592" />
    </linearGradient>
    <linearGradient
       gradientUnits="userSpaceOnUse"
       y2="785.78577"
       x2="3054.9106"
       y1="1672.9286"
       x1="3616.3438"
       id="linearGradient6704"
       xlink:href="#linearGradient6698"
       inkscape:collect="always" />
    <marker
       style="overflow:visible"
       id="Arrow1Send"
       refX="0"
       refY="0"
       orient="auto"
       inkscape:stockid="Arrow1Send">
      <path
         inkscape:connector-curvature="0"
         transform="matrix(-0.2,0,0,-0.2,-1.2,0)"
         style="fill-rule:evenodd;stroke:#000000;stroke-width:1pt"
         d="M 0,0 5,-5 -12.5,0 5,5 0,0 z"
         id="path4832" />
    </marker>
    <marker
       style="overflow:visible"
       id="TriangleOutM"
       refX="0"
       refY="0"
       orient="auto"
       inkscape:stockid="TriangleOutM">
      <path
         inkscape:connector-curvature="0"
         transform="scale(0.4,0.4)"
         style="fill-rule:evenodd;stroke:#000000;stroke-width:1pt"
         d="m 5.77,0 -8.65,5 0,-10 8.65,5 z"
         id="path4962" />
    </marker>
    <linearGradient
       id="linearGradient6698"
       inkscape:collect="always">
      <stop
         id="stop6700"
         offset="0"
         style="stop-color:#a0004e;stop-opacity:1" />
      <stop
         id="stop6702"
         offset="1"
         style="stop-color:#d30073;stop-opacity:1" />
    </linearGradient>
    <linearGradient
       gradientUnits="userSpaceOnUse"
       y2="785.78577"
       x2="3054.9106"
       y1="1672.9286"
       x1="3616.3438"
       id="linearGradient6704-2"
       xlink:href="#linearGradient6698-0"
       inkscape:collect="always" />
    <linearGradient
       y2="-154.10365"
       x2="2390.3813"
       y1="305.18207"
       x1="2432.3572"
       gradientUnits="userSpaceOnUse"
       id="linearGradient3995-7"
       xlink:href="#linearGradient3792-2-0"
       inkscape:collect="always" />
    <linearGradient
       y2="-200.10016"
       x2="2292.3843"
       y1="330.90369"
       x1="2408.8677"
       gradientUnits="userSpaceOnUse"
       id="linearGradient3990-6"
       xlink:href="#linearGradient3792-7"
       inkscape:collect="always" />
    <linearGradient
       id="linearGradient3792-2-0"
       inkscape:collect="always">
      <stop
         id="stop3794-4-1"
         offset="0"
         style="stop-color:#0075ff;stop-opacity:1;" />
      <stop
         id="stop3796-5-1"
         offset="1"
         style="stop-color:#0075ff;stop-opacity:0;" />
    </linearGradient>
    <linearGradient
       gradientUnits="userSpaceOnUse"
       y2="-357.24301"
       x2="2199.5271"
       y1="368.04654"
       x1="2434.582"
       id="linearGradient3798-1-4"
       xlink:href="#linearGradient3792-2-0"
       inkscape:collect="always"
       gradientTransform="translate(-2138.2194,-351.86908)" />
    <linearGradient
       id="linearGradient3800-6-9"
       inkscape:collect="always">
      <stop
         id="stop3802-5-7"
         offset="0"
         style="stop-color:#0075ff;stop-opacity:1;" />
      <stop
         id="stop3804-2-6"
         offset="1"
         style="stop-color:#0075ff;stop-opacity:0;" />
    </linearGradient>
    <linearGradient
       gradientUnits="userSpaceOnUse"
       y2="120.58695"
       x2="2491.0938"
       y1="120.58695"
       x1="1780"
       id="linearGradient3806-3-4"
       xlink:href="#linearGradient3800-6-9"
       inkscape:collect="always"
       gradientTransform="translate(-2138.2194,-351.86908)" />
    <linearGradient
       id="linearGradient3792-7"
       inkscape:collect="always">
      <stop
         id="stop3794-2"
         offset="0"
         style="stop-color:#0075ff;stop-opacity:1;" />
      <stop
         id="stop3796-6"
         offset="1"
         style="stop-color:#0075ff;stop-opacity:0;" />
    </linearGradient>
    <marker
       style="overflow:visible"
       id="Arrow1Send-5"
       refX="0"
       refY="0"
       orient="auto"
       inkscape:stockid="Arrow1Send">
      <path
         inkscape:connector-curvature="0"
         transform="matrix(-0.2,0,0,-0.2,-1.2,0)"
         style="fill-rule:evenodd;stroke:#000000;stroke-width:1pt"
         d="M 0,0 5,-5 -12.5,0 5,5 0,0 z"
         id="path4832-3" />
    </marker>
    <marker
       style="overflow:visible"
       id="TriangleOutM-1"
       refX="0"
       refY="0"
       orient="auto"
       inkscape:stockid="TriangleOutM">
      <path
         inkscape:connector-curvature="0"
         transform="scale(0.4,0.4)"
         style="fill-rule:evenodd;stroke:#000000;stroke-width:1pt"
         d="m 5.77,0 -8.65,5 0,-10 8.65,5 z"
         id="path4962-7" />
    </marker>
    <linearGradient
       id="linearGradient6698-0"
       inkscape:collect="always">
      <stop
         id="stop6700-3"
         offset="0"
         style="stop-color:#a0004e;stop-opacity:1" />
      <stop
         id="stop6702-1"
         offset="1"
         style="stop-color:#d30073;stop-opacity:1" />
    </linearGradient>
    <linearGradient
       inkscape:collect="always"
       xlink:href="#linearGradient5588"
       id="linearGradient5594"
       x1="2032.3518"
       y1="180.91884"
       x2="2189.5674"
       y2="1809.4902"
       gradientUnits="userSpaceOnUse" />
    <linearGradient
       inkscape:collect="always"
       xlink:href="#linearGradient5596"
       id="linearGradient5602"
       x1="1960.9998"
       y1="129.66092"
       x2="2017.8513"
       y2="1726.8038"
       gradientUnits="userSpaceOnUse" />
    <radialGradient
       inkscape:collect="always"
       xlink:href="#linearGradient4157-7"
       id="radialGradient4163-3"
       cx="3528.5715"
       cy="1482.3622"
       fx="3528.5715"
       fy="1482.3622"
       r="145.71428"
       gradientTransform="matrix(1,0,0,0.5,0,741.18109)"
       gradientUnits="userSpaceOnUse" />
    <linearGradient
       inkscape:collect="always"
       id="linearGradient4157-7">
      <stop
         style="stop-color:#258b63;stop-opacity:0.41568628"
         offset="0"
         id="stop4159-3" />
      <stop
         id="stop4165-3"
         offset="0.36231861"
         style="stop-color:#258b63;stop-opacity:0.41568628" />
      <stop
         style="stop-color:#258b63;stop-opacity:0;"
         offset="1"
         id="stop4161-8" />
    </linearGradient>
    <clipPath
       clipPathUnits="userSpaceOnUse"
       id="clipPath3711">
      <rect
         style="fill:#ffffff;fill-rule:evenodd;stroke:#000000;stroke-width:0.83645147px;stroke-linecap:butt;stroke-linejoin:miter;stroke-opacity:1"
         id="rect3713"
         width="1588.8246"
         height="952.4126"
         x="1154.985"
         y="-150.4375" />
    </clipPath>
    <linearGradient
       gradientUnits="userSpaceOnUse"
       y2="785.78577"
       x2="3054.9106"
       y1="1672.9286"
       x1="3616.3438"
       id="linearGradient6704-5"
       xlink:href="#linearGradient6698-1"
       inkscape:collect="always" />
    <linearGradient
       id="linearGradient3792-2"
       inkscape:collect="always">
      <stop
         id="stop3794-4"
         offset="0"
         style="stop-color:#0075ff;stop-opacity:1;" />
      <stop
         id="stop3796-5"
         offset="1"
         style="stop-color:#0075ff;stop-opacity:0;" />
    </linearGradient>
    <linearGradient
       gradientUnits="userSpaceOnUse"
       y2="-357.24301"
       x2="2199.5271"
       y1="368.04654"
       x1="2434.582"
       id="linearGradient3798-1"
       xlink:href="#linearGradient3792-2"
       inkscape:collect="always"
       gradientTransform="translate(-2138.2194,-351.86908)" />
    <linearGradient
       id="linearGradient3800-6"
       inkscape:collect="always">
      <stop
         id="stop3802-5"
         offset="0"
         style="stop-color:#0075ff;stop-opacity:1;" />
      <stop
         id="stop3804-2"
         offset="1"
         style="stop-color:#0075ff;stop-opacity:0;" />
    </linearGradient>
    <linearGradient
       gradientUnits="userSpaceOnUse"
       y2="120.58695"
       x2="2491.0938"
       y1="120.58695"
       x1="1780"
       id="linearGradient3806-3"
       xlink:href="#linearGradient3800-6"
       inkscape:collect="always"
       gradientTransform="translate(-2138.2194,-351.86908)" />
    <marker
       style="overflow:visible"
       id="Arrow1Send-0"
       refX="0"
       refY="0"
       orient="auto"
       inkscape:stockid="Arrow1Send">
      <path
         inkscape:connector-curvature="0"
         transform="matrix(-0.2,0,0,-0.2,-1.2,0)"
         style="fill-rule:evenodd;stroke:#000000;stroke-width:1pt"
         d="M 0,0 5,-5 -12.5,0 5,5 0,0 z"
         id="path4832-7" />
    </marker>
    <marker
       style="overflow:visible"
       id="TriangleOutM-6"
       refX="0"
       refY="0"
       orient="auto"
       inkscape:stockid="TriangleOutM">
      <path
         inkscape:connector-curvature="0"
         transform="scale(0.4,0.4)"
         style="fill-rule:evenodd;stroke:#000000;stroke-width:1pt"
         d="m 5.77,0 -8.65,5 0,-10 8.65,5 z"
         id="path4962-6" />
    </marker>
    <linearGradient
       id="linearGradient6698-1"
       inkscape:collect="always">
      <stop
         id="stop6700-7"
         offset="0"
         style="stop-color:#a0004e;stop-opacity:1" />
      <stop
         id="stop6702-7"
         offset="1"
         style="stop-color:#d30073;stop-opacity:1" />
    </linearGradient>
    <clipPath
       clipPathUnits="userSpaceOnUse"
       id="clipPath3295">
      <rect
         style="fill:none;stroke:#162d50;stroke-width:1.5;stroke-linecap:round;stroke-linejoin:round;stroke-miterlimit:4;stroke-opacity:1;stroke-dasharray:none;stroke-dashoffset:0"
         id="rect3297"
         width="132"
         height="88"
         x="6119.1387"
         y="-1247.7379"
         transform="matrix(0.98066434,0.19569735,-0.19569735,0.98066434,0,0)"
         ry="22.201704" />
    </clipPath>
    <clipPath
       clipPathUnits="userSpaceOnUse"
       id="clipPath5327">
      <rect
         style="fill:none;stroke:none"
         id="rect5329"
         width="400"
         height="320"
         x="3795.4062"
         y="737.5625"
         ry="19.625816" />
    </clipPath>
    <clipPath
       clipPathUnits="userSpaceOnUse"
       id="clipPath9957">
      <rect
         style="fill:#ffffff;fill-opacity:1;stroke:none"
         id="rect9959"
         width="102.53048"
         height="63.639606"
         x="-6334.2046"
         y="-1224.6937"
         transform="matrix(-0.98066434,-0.19569735,-0.19569735,0.98066434,0,0)"
         ry="22.201704"
         rx="22.201704" />
    </clipPath>
  </defs>
  <sodipodi:namedview
     id="base"
     pagecolor="#ffffff"
     bordercolor="#666666"
     borderopacity="1.0"
     inkscape:pageopacity="0.0"
     inkscape:pageshadow="2"
     inkscape:zoom="0.370275"
     inkscape:cx="784.74075"
     inkscape:cy="357.99231"
     inkscape:document-units="px"
     inkscape:current-layer="layer1"
     showgrid="false"
     inkscape:window-width="1280"
     inkscape:window-height="975"
     inkscape:window-x="0"
     inkscape:window-y="25"
     inkscape:window-maximized="1"
     fit-margin-top="5"
     fit-margin-left="5"
     fit-margin-right="5"
     fit-margin-bottom="5">
    <inkscape:grid
       type="xygrid"
       id="grid2985"
       empspacing="5"
       visible="true"
       enabled="true"
       snapvisiblegridlinesonly="true"
       originx="-3025.2619px"
       originy="-421.09369px" />
  </sodipodi:namedview>
  <metadata
     id="metadata7">
    <rdf:RDF>
      <cc:Work
         rdf:about="">
        <dc:format>image/svg+xml</dc:format>
        <dc:type
           rdf:resource="http://purl.org/dc/dcmitype/StillImage" />
        <dc:title />
      </cc:Work>
    </rdf:RDF>
  </metadata>
  <g
     inkscape:label="Layer 1"
     inkscape:groupmode="layer"
     id="layer1"
     transform="translate(-3025.262,308.69647)">
    <rect
       style="fill:#ffffff;fill-opacity:1;stroke:none;stroke-width:0.64700001;stroke-linejoin:round;stroke-miterlimit:4;stroke-dasharray:none;stroke-opacity:1"
       id="rect4421"
       width="1712.2408"
       height="939.84198"
       x="3027.9626"
       y="-305.8728" />
    <text
       sodipodi:linespacing="125%"
       id="text12606"
       y="1.5625"
       x="3031.4062"
       style="font-size:40px;font-style:normal;font-weight:normal;line-height:125%;letter-spacing:0px;word-spacing:0px;fill:#000000;fill-opacity:1;stroke:none;font-family:Sans"
       xml:space="preserve"><tspan
         y="1.5625"
         x="3031.4062"
         id="tspan12608"
         sodipodi:role="line" /></text>
    <path
       sodipodi:nodetypes="cc"
       inkscape:connector-curvature="0"
       id="path11226"
       d="m 4069.1602,-164.72903 -33.4024,76.555548"
       style="fill:none;stroke:#53d4ff;stroke-width:7.63812542;stroke-linecap:butt;stroke-linejoin:miter;stroke-miterlimit:4;stroke-opacity:1;stroke-dasharray:none" />
    <path
       sodipodi:nodetypes="cc"
       inkscape:connector-curvature="0"
       id="path11228"
       d="m 4048.6955,-160.99287 -9.524,65.531671"
       style="fill:none;stroke:#388dff;stroke-width:7.63812542;stroke-linecap:butt;stroke-linejoin:miter;stroke-miterlimit:4;stroke-opacity:1;stroke-dasharray:none" />
    <path
       sodipodi:nodetypes="cc"
       inkscape:connector-curvature="0"
       id="path11230"
       d="m 4032.6422,-152.57371 3.879,62.312891"
       style="fill:none;stroke:#54baff;stroke-width:7.63812542;stroke-linecap:butt;stroke-linejoin:miter;stroke-miterlimit:4;stroke-opacity:1;stroke-dasharray:none" />
    <path
       inkscape:connector-curvature="0"
       id="path11232"
       d="m 4012.0686,-206.88354 30.8814,32.78106"
       style="fill:none;stroke:#b6d8ff;stroke-width:7.63812542;stroke-linecap:butt;stroke-linejoin:miter;stroke-miterlimit:4;stroke-opacity:1;stroke-dasharray:none" />
    <path
       inkscape:connector-curvature="0"
       id="path11234"
       d="m 4057.9287,-172.22362 -43.0575,-20.61534"
       style="fill:none;stroke:#b6d8ff;stroke-width:7.63812542;stroke-linecap:butt;stroke-linejoin:miter;stroke-miterlimit:4;stroke-opacity:1;stroke-dasharray:none" />
    <path
       inkscape:connector-curvature="0"
       id="path11236"
       d="m 3940.0521,-221.02454 -2.28,14.71114"
       style="fill:none;stroke:#b6d8ff;stroke-width:6.68335962;stroke-linecap:butt;stroke-linejoin:miter;stroke-miterlimit:4;stroke-opacity:1;stroke-dasharray:none" />
    <path
       sodipodi:nodetypes="cc"
       inkscape:connector-curvature="0"
       id="path11238"
       d="m 3952.7358,-225.92997 -3.6647,25.70685"
       style="fill:none;stroke:#b6d8ff;stroke-width:6.68335962;stroke-linecap:butt;stroke-linejoin:miter;stroke-miterlimit:4;stroke-opacity:1;stroke-dasharray:none" />
    <path
       inkscape:connector-curvature="0"
       id="path11240"
       d="m 3966.4709,-229.77365 -4.5631,36.37709"
       style="fill:none;stroke:#b6d8ff;stroke-width:6.68335962;stroke-linecap:butt;stroke-linejoin:miter;stroke-miterlimit:4;stroke-opacity:1;stroke-dasharray:none" />
    <path
       inkscape:connector-curvature="0"
       id="path11242"
       d="m 3981.7194,-233.51203 -6.1043,44.33432"
       style="fill:none;stroke:#b6d8ff;stroke-width:6.68335962;stroke-linecap:butt;stroke-linejoin:miter;stroke-miterlimit:4;stroke-opacity:1;stroke-dasharray:none" />
    <path
       inkscape:connector-curvature="0"
       id="path11244"
       d="m 3997.2328,-230.69674 -6.507,47.54408"
       style="fill:none;stroke:#b6d8ff;stroke-width:6.68335962;stroke-linecap:butt;stroke-linejoin:miter;stroke-miterlimit:4;stroke-opacity:1;stroke-dasharray:none" />
    <path
       sodipodi:nodetypes="cc"
       inkscape:connector-curvature="0"
       id="path11246"
       d="m 4008.6585,-215.7877 -5.2272,33.5767"
       style="fill:none;stroke:#b6d8ff;stroke-width:6.68335962;stroke-linecap:butt;stroke-linejoin:miter;stroke-miterlimit:4;stroke-opacity:1;stroke-dasharray:none" />
    <path
       inkscape:connector-curvature="0"
       id="path11248"
       d="m 3761.4572,-253.44238 -1.662,16.31315"
       style="fill:#0075ff;fill-opacity:0.5372549;stroke:#b6d8ff;stroke-width:5.72859383;stroke-linecap:butt;stroke-linejoin:miter;stroke-miterlimit:4;stroke-opacity:1;stroke-dasharray:none" />
    <path
       inkscape:connector-curvature="0"
       id="path11250"
       d="m 3770.5378,-257.22142 -0.8604,21.56228"
       style="fill:#0075ff;fill-opacity:0.5372549;stroke:#b6d8ff;stroke-width:5.72859383;stroke-linecap:butt;stroke-linejoin:miter;stroke-miterlimit:4;stroke-opacity:1;stroke-dasharray:none" />
    <path
       inkscape:connector-curvature="0"
       id="path11252"
       d="m 3782.2194,-261.5195 -2.0935,30.16789"
       style="fill:#0075ff;fill-opacity:0.5372549;stroke:#b6d8ff;stroke-width:5.72859383;stroke-linecap:butt;stroke-linejoin:miter;stroke-miterlimit:4;stroke-opacity:1;stroke-dasharray:none" />
    <path
       inkscape:connector-curvature="0"
       id="path11254"
       d="m 3792.7638,-260.42741 -3.3696,28.70147"
       style="fill:#0075ff;fill-opacity:0.5372549;stroke:#b6d8ff;stroke-width:5.72859383;stroke-linecap:butt;stroke-linejoin:miter;stroke-miterlimit:4;stroke-opacity:1;stroke-dasharray:none" />
    <path
       sodipodi:nodetypes="cc"
       inkscape:connector-curvature="0"
       id="path11256"
       d="m 3801.4864,-256.14426 -4.4313,23.38128"
       style="fill:#0075ff;fill-opacity:0.5372549;stroke:#b6d8ff;stroke-width:5.72859383;stroke-linecap:butt;stroke-linejoin:miter;stroke-miterlimit:4;stroke-opacity:1;stroke-dasharray:none" />
    <path
       sodipodi:nodetypes="cc"
       inkscape:connector-curvature="0"
       id="path11258"
       d="m 3808.9546,-248.90624 -2.9395,17.92033"
       style="fill:#0075ff;fill-opacity:0.5372549;stroke:#b6d8ff;stroke-width:5.72859383;stroke-linecap:butt;stroke-linejoin:miter;stroke-miterlimit:4;stroke-opacity:1;stroke-dasharray:none" />
    <path
       sodipodi:nodetypes="cc"
       inkscape:connector-curvature="0"
       id="path11260"
       d="m 3816.1394,-242.4722 -1.4227,9.50398"
       style="fill:#0075ff;fill-opacity:0.5372549;stroke:#b6d8ff;stroke-width:5.72859383;stroke-linecap:butt;stroke-linejoin:miter;stroke-miterlimit:4;stroke-opacity:1;stroke-dasharray:none" />
    <path
       sodipodi:nodetypes="cc"
       inkscape:connector-curvature="0"
       id="path11262"
       d="m 3841.4845,-241.13738 -0.9514,13.09797"
       style="fill:#0075ff;fill-opacity:0.5372549;stroke:#b6d8ff;stroke-width:5.72859383;stroke-linecap:butt;stroke-linejoin:miter;stroke-miterlimit:4;stroke-opacity:1;stroke-dasharray:none" />
    <path
       inkscape:connector-curvature="0"
       id="path11264"
       d="m 3849.6897,-243.75826 -1.5215,19.48139"
       style="fill:#0075ff;fill-opacity:0.5372549;stroke:#b6d8ff;stroke-width:5.72859383;stroke-linecap:butt;stroke-linejoin:miter;stroke-miterlimit:4;stroke-opacity:1;stroke-dasharray:none" />
    <path
       inkscape:connector-curvature="0"
       id="path11266"
       d="m 3858.0138,-247.63219 -0.9092,25.01416"
       style="fill:#0075ff;fill-opacity:0.5372549;stroke:#b6d8ff;stroke-width:5.72859383;stroke-linecap:butt;stroke-linejoin:miter;stroke-miterlimit:4;stroke-opacity:1;stroke-dasharray:none" />
    <path
       inkscape:connector-curvature="0"
       id="path11268"
       d="m 3866.858,-251.36405 -0.9123,32.39086"
       style="fill:#0075ff;fill-opacity:0.5372549;stroke:#b6d8ff;stroke-width:5.72859383;stroke-linecap:butt;stroke-linejoin:miter;stroke-miterlimit:4;stroke-opacity:1;stroke-dasharray:none" />
    <path
       inkscape:connector-curvature="0"
       id="path11270"
       d="m 3877.5927,-253.01449 -1.576,36.45721"
       style="fill:#0075ff;fill-opacity:0.5372549;stroke:#b6d8ff;stroke-width:5.72859383;stroke-linecap:butt;stroke-linejoin:miter;stroke-miterlimit:4;stroke-opacity:1;stroke-dasharray:none" />
    <path
       inkscape:connector-curvature="0"
       id="path11272"
       d="m 3888.0883,-248.4705 -1.5744,32.76885"
       style="fill:#0075ff;fill-opacity:0.5372549;stroke:#b6d8ff;stroke-width:5.72859383;stroke-linecap:butt;stroke-linejoin:miter;stroke-miterlimit:4;stroke-opacity:1;stroke-dasharray:none" />
    <path
       sodipodi:nodetypes="cc"
       inkscape:connector-curvature="0"
       id="path11274"
       d="m 3897.1875,-240.45155 -0.5067,23.95038"
       style="fill:#0075ff;fill-opacity:0.5372549;stroke:#b6d8ff;stroke-width:5.72859383;stroke-linecap:butt;stroke-linejoin:miter;stroke-miterlimit:4;stroke-opacity:1;stroke-dasharray:none" />
    <path
       sodipodi:nodetypes="cc"
       inkscape:connector-curvature="0"
       id="path11276"
       d="m 3907.3498,-230.18605 -0.9522,14.94215"
       style="fill:#0075ff;fill-opacity:0.5372549;stroke:#b6d8ff;stroke-width:5.72859383;stroke-linecap:butt;stroke-linejoin:miter;stroke-miterlimit:4;stroke-opacity:1;stroke-dasharray:none" />
    <path
       inkscape:connector-curvature="0"
       id="path11278"
       d="m 3725.9722,-255.32161 -0.5409,13.84252"
       style="fill:#0075ff;fill-opacity:0.5372549;stroke:#b6d8ff;stroke-width:5.72859383;stroke-linecap:butt;stroke-linejoin:miter;stroke-miterlimit:4;stroke-opacity:1;stroke-dasharray:none" />
    <path
       inkscape:connector-curvature="0"
       id="path11280"
       d="m 3716.4453,-261.24395 -0.3432,20.93116"
       style="fill:#0075ff;fill-opacity:0.5372549;stroke:#b6d8ff;stroke-width:5.72859383;stroke-linecap:butt;stroke-linejoin:miter;stroke-miterlimit:4;stroke-opacity:1;stroke-dasharray:none" />
    <path
       inkscape:connector-curvature="0"
       id="path11282"
       d="m 3704.4438,-266.49863 0.5234,27.01701"
       style="fill:#0075ff;fill-opacity:0.5372549;stroke:#b6d8ff;stroke-width:5.72859383;stroke-linecap:butt;stroke-linejoin:miter;stroke-miterlimit:4;stroke-opacity:1;stroke-dasharray:none" />
    <path
       inkscape:connector-curvature="0"
       id="path11284"
       d="m 3692.1732,-267.87477 0.1556,26.91654"
       style="fill:#0075ff;fill-opacity:0.5372549;stroke:#b6d8ff;stroke-width:5.72859383;stroke-linecap:butt;stroke-linejoin:miter;stroke-miterlimit:4;stroke-opacity:1;stroke-dasharray:none" />
    <path
       inkscape:connector-curvature="0"
       id="path11286"
       d="m 3681.1715,-265.50548 0.7259,22.80408"
       style="fill:#0075ff;fill-opacity:0.5372549;stroke:#b6d8ff;stroke-width:5.72859383;stroke-linecap:butt;stroke-linejoin:miter;stroke-miterlimit:4;stroke-opacity:1;stroke-dasharray:none" />
    <path
       inkscape:connector-curvature="0"
       id="path11288"
       d="m 3670.9391,-263.63739 0.3603,17.48751"
       style="fill:#0075ff;fill-opacity:0.5372549;stroke:#b6d8ff;stroke-width:5.72859383;stroke-linecap:butt;stroke-linejoin:miter;stroke-miterlimit:4;stroke-opacity:1;stroke-dasharray:none" />
    <path
       inkscape:connector-curvature="0"
       id="path11290"
       d="m 3660.5062,-261.90314 -0.1721,11.33493"
       style="fill:#0075ff;fill-opacity:0.5372549;stroke:#b6d8ff;stroke-width:5.72859383;stroke-linecap:butt;stroke-linejoin:miter;stroke-miterlimit:4;stroke-opacity:1;stroke-dasharray:none" />
    <path
       sodipodi:nodetypes="cccc"
       inkscape:connector-curvature="0"
       id="path11292"
       d="m 4000.2308,-136.28175 10.81,26.61237 c -3.5394,-6.52802 -12.4801,-2.07093 -10.5027,6.17005 l -13.339,-26.04936"
       style="fill:#2d93ff;fill-opacity:1;stroke:none" />
    <path
       sodipodi:nodetypes="ccccc"
       inkscape:connector-curvature="0"
       id="path11296"
       d="m 4011.5247,-52.03869 -18.4967,-27.707629 7.2224,0.948359 3.1653,-5.080356 18.6762,29.93997"
       style="fill:#2dd8ff;fill-opacity:1;stroke:none" />
    <path
       sodipodi:nodetypes="cccc"
       inkscape:connector-curvature="0"
       id="path11300"
       d="m 4024.1298,-56.30327 -18.0639,-36.569521 c -3.9208,-8.449819 6.4957,-12.505939 9.9011,-6.012093 l 16.3932,35.68034"
       style="fill:#0e60ff;fill-opacity:1;stroke:none" />
    <path
       sodipodi:nodetypes="cccccsccccccsscsscccscccccccsccscccscscsscsccscscscsssssscsscscccsscssscscssssccccscsscsccscccsscssssccccssssccccsccsscscccccccscccccsccc"
       inkscape:connector-curvature="0"
       id="path11302"
       d="m 3385.6342,-296.17404 c 13.3417,-2.48014 32.7888,-0.73982 51.0701,2.22194 16.8995,2.73792 39.9298,9.29433 58.6182,16.41481 -2.4287,0.51623 -4.8678,1.04278 -7.2974,1.54748 -7.1548,1.4864 -12.7953,2.79275 -22.9042,4.29684 -21.164,3.14897 -44.2795,4.26504 -64.121,3.12067 -9.1436,-0.52736 -42.3319,-4.32597 -62.1155,-6.95459 3.3929,-2.25708 5.6338,-3.80648 7.2752,-4.70727 12.1794,-6.68386 24.4323,-12.34629 36.8764,-15.39102 0.8326,-0.20373 1.7087,-0.38355 2.5982,-0.54891 z m 124.5859,18.58462 c 20.0271,-4.06944 41.3945,-4.91584 60.6047,-3.8185 3.3288,0.19016 16.0733,2.11942 24.2641,4.34624 11.388,3.09625 31.5,11.25249 38.8933,15.7569 1.1483,0.63629 2.4178,1.35607 3.5978,2.02026 -27.927,4.6021 -54.1863,4.87173 -75.3371,0.58222 -14.3448,-2.90904 -36.0594,-9.83269 -56.751,-17.88272 1.5612,-0.36197 3.1484,-0.68339 4.7282,-1.0044 z m 136.6805,19.88291 c 29.2,-5.75576 48.3468,-8.40598 54.626,-7.55423 6.5987,0.89508 13.3501,3.7501 19.4642,8.19442 5.8848,4.27773 11.0013,7.84853 15.6244,10.90785 -7.1465,1.9363 -14.0794,3.29883 -19.7852,3.76571 -23.4243,1.91669 -41.7541,-2.0171 -68.9174,-14.81593 -0.3192,-0.15047 -0.6773,-0.33656 -1.012,-0.49782 z m 136.1457,-2.61595 c 1.3251,-0.29148 2.4702,-0.45037 3.3765,-0.4608 6.0585,-0.0699 13.5533,4.67325 23.4579,14.79065 3.2565,3.32673 6.62,6.40885 10.0662,9.2788 -0.2607,0.0539 -0.5312,0.10587 -0.79,0.15764 -23.6569,4.73236 -43.5034,2.87697 -65.1177,-6.14254 -1.5787,-0.65878 -3.3274,-1.42884 -5.1423,-2.29009 3.7717,-1.68721 7.6226,-3.71158 11.9687,-6.19153 7.3375,-4.18684 16.4383,-7.87872 22.1807,-9.14213 z m 88.3288,9.63403 c 2.6447,-0.55631 4.9374,-0.75421 6.6766,-0.54133 6.3883,0.78199 15.0275,7.44754 23.1229,17.83912 3.9816,5.11048 8.0076,9.79271 12.1299,14.13046 -25.9769,2.80718 -43.3905,0.63071 -64.2567,-7.92684 -3.9473,-1.61867 -9.0284,-4.29859 -14.4616,-7.51936 4.6858,-1.83164 9.4575,-4.22222 15.8373,-7.6937 7.552,-4.10938 15.1328,-7.06452 20.9516,-8.28835 z m 95.6549,22.71506 c 8.3594,-1.80453 17.4784,-2.80601 21.3819,-2.01546 5.5392,1.12185 10.6704,3.77097 14.2508,7.37885 l 3.0415,3.04403 0.7898,13.86819 c 0.4444,7.55151 1.1631,17.63508 1.5877,22.59295 -25.9787,-4.60348 -40.2809,-9.75308 -58.1955,-19.48079 -5.259,-2.85569 -13.5929,-8.10671 -18.5089,-11.64049 -0.5043,-0.36259 -1.0363,-0.77715 -1.5735,-1.17681 8.219,-2.25227 16.4298,-5.1515 24.3105,-8.68481 3.1766,-1.42425 7.8999,-2.80294 12.9157,-3.88566 z m 56.4473,57.52586 c 2.1457,0.2315 4.296,0.4509 6.4539,0.62886 1.0644,0.0878 2.1457,0.16672 3.2123,0.24127 l 10.3391,0.73583 -8.7314,2.44218 c -3.1172,0.87157 -6.363,1.86401 -9.697,2.93911 -0.3867,-1.73278 -0.6906,-3.07055 -1.098,-4.89225 -0.1868,-0.83364 -0.2982,-1.28941 -0.4784,-2.0951 z M 3183.766,-259.4318 c 53.3323,-15.26283 90.9345,-20.08253 137.3956,-18.91714 l 3.8032,0.76231 c 1.0661,0.21554 2.8397,0.51253 5.0668,0.84478 l 3.0844,-1.4674 c 5.9971,-2.81843 11.0811,-5.30139 11.2839,-5.50721 13.4289,-7.46347 24.7178,-13.86998 42.5531,-17.74084 1.1891,-0.25806 2.4077,-0.49468 3.6575,-0.72987 l 7.496,-0.85696 c 24.4787,-2.79686 53.9581,3.4003 88.319,18.58083 4.4848,1.98137 9.1653,3.93712 13.9473,5.85737 18.6247,-3.96944 37.2885,-7.88913 56.3471,-9.29722 25.1145,-1.85555 47.1834,4.81376 69.7581,19.0293 3.9434,2.48315 10.1327,5.94806 15.6605,8.80135 5.8859,-1.06289 11.8274,-2.2949 17.8133,-3.7373 33.0257,-7.95808 37.9742,-8.73542 44.6726,-6.96749 4.1126,1.08544 7.4333,2.92822 11.8404,6.58204 4.9613,4.11314 16.2388,10.8982 26.4766,16.19629 11.2315,-3.50356 22.3406,-8.17207 29.6077,-12.78437 15.0188,-9.53198 17.53,-9.40123 28.1038,1.32855 5.6377,5.7209 16.645,13.888 27.4517,20.77837 13.0982,-3.52034 27.0388,-8.98962 34.5818,-13.77699 9.8115,-6.227 12.5513,-7.34197 16.7088,-6.83318 4.2801,0.52397 7.9484,3.39805 13.3366,10.42122 4.1298,5.38269 18.6174,18.69354 30.3685,28.22844 16.2934,-2.75417 35.4757,-8.13432 46.4015,-13.24532 20.7561,-9.70958 32.0633,-7.75476 37.5105,6.54034 1.3343,3.50169 3.5176,8.47324 4.8462,11.02025 1.6069,3.08088 3.9623,12.09925 9.2419,35.33474 3.831,0.57926 7.8281,1.1523 12.1526,1.74305 3.934,0.5375 8.0099,1.07186 12.4042,1.632 21.6137,2.75509 27.3492,3.16883 34.2062,2.33177 10.7433,-1.31145 15.6611,-0.73607 16.6056,1.94975 0.5702,1.62191 0.2853,2.13365 -1.4522,2.48038 -1.2057,0.2406 -4.9913,1.84959 -8.3808,3.58917 -3.3896,1.73961 -17.2302,6.93359 -30.7716,11.52585 -10.0477,3.40744 -18.8988,6.48802 -27.0141,9.46773 9.7293,43.98275 10.9363,51.762915 10.9095,62.597138 -0.014,5.752683 0.2915,14.204717 0.6766,18.789165 1.3132,15.630938 -2.4502,22.747673 -15.8408,29.934867 -5.1638,2.771539 -7.5717,3.474158 -16.5674,4.796928 l -4.7017,-20.511183 c 12.0627,-2.578998 13.9893,-3.234441 17.5802,-5.97262 4.809,-3.666926 10.3798,-11.689815 11.9326,-17.198049 1.2276,-4.35481 2.1433,-0.781361 -12.6593,-48.495996 -1.2451,-4.0097 -2.9089,-10.99841 -4.6146,-18.8552 -17.6563,6.9666 -32.6916,14.05158 -51.3447,24.15023 l -11.5033,-14.95525 c 18.3138,-10.07671 39.6481,-19.73425 59.216,-26.93798 -0.9063,-4.78024 -1.7158,-9.37517 -2.3699,-13.40075 -16.6807,-2.73391 -32.5311,-7.05095 -46.1856,-12.65875 -16.7287,-6.87037 -30.8047,-15.81728 -43.7331,-27.96499 -14.0984,2.91482 -27.8799,3.78021 -39.7614,2.30603 -19.8607,-2.46422 -37.7976,-9.57634 -53.8121,-21.29871 -3.2916,0.89121 -6.9063,1.69686 -11.2651,2.55227 -15.3629,3.01514 -24.7809,3.08132 -39.6608,0.21711 -11.3831,-2.19102 -20.278,-5.58866 -32.7037,-13.24985 -5.1499,1.85329 -10.4886,3.26798 -16.9535,4.53931 -14.1206,2.77666 -24.7539,2.94526 -38.1866,0.59225 -15.2226,-2.66663 -31.0388,-11.45703 -45.1996,-19.45769 -16.4798,3.29255 -33.5945,6.26973 -38.2887,6.63672 -31.8417,2.48904 -54.308,-2.58269 -93.1454,-20.9644 -3.0351,-1.43657 -6.4044,-2.86766 -9.9571,-4.3109 -1.3744,0.36227 -2.7425,0.72477 -4.0965,1.12171 l -10.5168,3.1027 c -16.5446,4.85025 -48.7172,10.21839 -62.1288,10.35972 -27.8625,0.29362 -54.3031,-2.75269 -91.4645,-10.5599 l -8.7563,5.67214 c -15.1223,7.76373 -55.0389,27.19104 -134.0411,31.67371 l -0.4985,-6.85472 c 50.8458,-1.29532 122.8545,-18.71179 133.0043,-32.21007 l 0.6965,-0.32152 -0.7957,-0.1759 c -52.1959,-0.68752 -96.4448,6.34757 -137.5144,20.93583 z"
       style="fill:#117eff;fill-opacity:1;fill-rule:evenodd;stroke:none" />
    <path
       inkscape:connector-curvature="0"
       id="path11348"
       d="m 3996.9455,-153.07432 c -1.3201,0.54422 -2.6327,1.11147 -3.9563,1.67183 1.3195,-0.55848 2.6402,-1.12937 3.9563,-1.67183 z m -23.9369,10.70956 c -1.7689,0.84938 -3.5231,1.70642 -5.2672,2.57236 1.7414,-0.86431 3.5013,-1.72459 5.2672,-2.57236 z m -7.3742,3.6013 c -1.6954,0.8531 -3.3941,1.69568 -5.0567,2.56077 1.6704,-0.86917 3.3533,-1.70376 5.0567,-2.56077 z m -12.917,6.77628 c -1.9862,1.09286 -3.944,2.19774 -5.8528,3.29769 -16.4251,9.46457 -34.2072,21.47257 -60.4859,40.852085 -48.2829,35.606817 -88.9926,58.432297 -150.6103,84.4241205 l 43.8727,-10.9760535 c 15.7102,-9.003154 40.6804,-22.581832 55.5017,-30.151995 27.1283,-13.856039 42.1094,-22.197832 89.3489,-49.897732 15.5465,-9.115965 28.3161,-16.413995 39.729,-22.592865 l -11.5033,-14.95525 z"
       style="fill:#2a7fff;fill-opacity:1;stroke:none" />
    <text
       xml:space="preserve"
       style="font-size:38.19062805px;font-style:normal;font-weight:normal;line-height:125%;letter-spacing:0px;word-spacing:0px;fill:#000000;fill-opacity:1;stroke:none;font-family:Sans"
       x="3334.073"
       y="-189.81743"
       id="text11788"
       sodipodi:linespacing="125%"><tspan
         sodipodi:role="line"
         id="tspan11790"
         x="3334.073"
         y="-189.81743">Genoma</tspan><tspan
         sodipodi:role="line"
         x="3334.073"
         y="-142.07915"
         id="tspan11792">~ 2.3·10<tspan
   style="font-size:24.8242569px;baseline-shift:super"
   id="tspan12694">4</tspan> genes</tspan></text>
    <text
       xml:space="preserve"
       style="font-size:30.29268074px;font-style:normal;font-weight:normal;line-height:125%;letter-spacing:0px;word-spacing:0px;fill:#000000;fill-opacity:1;stroke:none;font-family:Sans"
       x="3180.2214"
       y="-25.041948"
       id="text12602"
       sodipodi:linespacing="125%"><tspan
         sodipodi:role="line"
         id="tspan12604"
         x="3180.2214"
         y="-25.041948">procesamiento alternativo</tspan></text>
    <text
       sodipodi:linespacing="125%"
       id="text12610"
       y="15.853167"
       x="3180.2214"
       style="font-size:30.29268074px;font-style:normal;font-weight:normal;line-height:125%;letter-spacing:0px;word-spacing:0px;fill:#000000;fill-opacity:1;stroke:none;font-family:Sans"
       xml:space="preserve"><tspan
         y="15.853167"
         x="3180.2214"
         id="tspan12612"
         sodipodi:role="line">promotores alternativos</tspan></text>
    <text
       xml:space="preserve"
       style="font-size:30.29268074px;font-style:normal;font-weight:normal;line-height:125%;letter-spacing:0px;word-spacing:0px;fill:#000000;fill-opacity:1;stroke:none;font-family:Sans"
       x="3180.2214"
       y="58.262924"
       id="text12614"
       sodipodi:linespacing="125%"><tspan
         sodipodi:role="line"
         id="tspan12616"
         x="3180.2214"
         y="58.262924">edicion de mRNA</tspan></text>
    <path
       style="fill:none;stroke:#000080;stroke-width:11.45718765;stroke-linecap:butt;stroke-linejoin:miter;stroke-miterlimit:4;stroke-opacity:1;stroke-dasharray:none"
       d="m 3331.3723,270.61529 c 112.55,-92.01859 207.8371,26.51655 287.6017,-14.85267"
       id="path12620"
       inkscape:connector-curvature="0"
       sodipodi:nodetypes="cc" />
    <path
       sodipodi:nodetypes="cc"
       inkscape:connector-curvature="0"
       id="path12622"
       d="m 3250.3577,355.68057 c 104.4485,29.50323 206.4868,-55.84826 297.0534,0"
       style="fill:none;stroke:#800080;stroke-width:11.45718765;stroke-linecap:butt;stroke-linejoin:miter;stroke-miterlimit:4;stroke-opacity:1;stroke-dasharray:none" />
    <path
       style="fill:none;stroke:#ff00ff;stroke-width:11.45718765;stroke-linecap:butt;stroke-linejoin:miter;stroke-miterlimit:4;stroke-opacity:1;stroke-dasharray:none"
       d="m 3706.7397,309.77233 c -104.4485,29.50324 -206.4867,-55.84825 -297.0533,0"
       id="path12624"
       inkscape:connector-curvature="0"
       sodipodi:nodetypes="cc" />
    <text
       sodipodi:linespacing="125%"
       id="text12628"
       y="450.19757"
       x="3342.1741"
       style="font-size:38.19062805px;font-style:normal;font-weight:normal;line-height:125%;letter-spacing:0px;word-spacing:0px;fill:#000000;fill-opacity:1;stroke:none;font-family:Sans"
       xml:space="preserve"><tspan
         y="450.19757"
         x="3342.1741"
         id="tspan12630"
         sodipodi:role="line">Transcriptoma</tspan><tspan
         y="497.93585"
         x="3342.1741"
         sodipodi:role="line"
         id="tspan12634">~ 10<tspan
   style="font-size:24.8242569px;baseline-shift:super"
   id="tspan12696">5</tspan> transcritos</tspan></text>
    <text
       sodipodi:linespacing="125%"
       id="text12684"
       y="-270.83197"
       x="4273.8413"
       style="font-size:38.19062805px;font-style:normal;font-weight:normal;line-height:125%;letter-spacing:0px;word-spacing:0px;fill:#000000;fill-opacity:1;stroke:none;font-family:Sans"
       xml:space="preserve"><tspan
         y="-270.83197"
         x="4273.8413"
         id="tspan12686"
         sodipodi:role="line">Proteoma</tspan><tspan
         id="tspan12688"
         y="-223.09369"
         x="4273.8413"
         sodipodi:role="line">~ 10<tspan
   style="font-size:24.8242569px;baseline-shift:super"
   id="tspan12690">6 </tspan>proteinas</tspan></text>
    <text
       xml:space="preserve"
       style="font-size:29.64697838px;font-style:normal;font-weight:normal;line-height:125%;letter-spacing:0px;word-spacing:0px;fill:#000000;fill-opacity:1;stroke:none;font-family:Sans"
       x="4212.9526"
       y="209.25272"
       id="text12698"
       sodipodi:linespacing="125%"><tspan
         sodipodi:role="line"
         id="tspan12700"
         x="4212.9526"
         y="209.25272">modificaciones</tspan><tspan
         sodipodi:role="line"
         x="4212.9526"
         y="246.31143"
         id="tspan12704">post-traduccionales</tspan></text>
    <g
       id="g4012">
      <path
         inkscape:connector-curvature="0"
         id="path12652"
         d="m 4386.7331,67.200403 c -10.9964,3.020838 -2.2224,20.03107 7.3009,16.032906 4.7357,-1.988122 18.8784,-21.873247 20.218,-20.748453 7.6696,6.439759 -2.3397,18.783946 3.9313,24.049348 7.8995,6.632876 20.0562,-3.500767 23.026,-8.488008 10.2774,-17.258863 -12.148,-38.021812 -23.5876,-47.627148 -14.602,-12.260559 -10.6156,44.844018 -42.6823,17.919122 -7.1836,-6.031592 15.5345,-18.070783 17.4098,-21.220018 3.2679,-5.487653 -14.007,-18.4464032 -19.6563,-8.959543 -3.3434,5.614458 15.6051,21.977703 19.6563,20.276906 9.3079,-3.907663 9.6611,-13.015576 19.0948,-16.97601"
         style="fill:none;stroke:#ff5555;stroke-width:6.32052708;stroke-linecap:round;stroke-linejoin:round;stroke-miterlimit:4;stroke-opacity:1;stroke-dasharray:none" />
      <path
         inkscape:connector-curvature="0"
         id="path12654"
         d="m 4487.7704,57.14786 c 0.3665,22.529289 47.5933,17.139807 33.3264,2.872967 -5.7113,-5.711315 -18.0896,-2.278174 -22.4091,-10.917273 -3.2959,-6.591852 12.1515,-29.623563 16.0886,-17.812394 10.8064,32.419132 -55.0721,62.363923 -41.9453,22.983736 5.4036,-16.21115 26.1636,-53.70486852 47.6912,-32.177234 3.0773,3.077302 18.9184,15.600328 16.6633,20.110773 -16.4664,32.932791 -57.3811,-8.775621 -72.9734,22.409141 -1.1205,2.240941 -4.441,6.632072 -2.873,9.768087 8.6295,17.259061 32.9763,14.31993 49.9897,10.917274 10.5102,-2.102064 21.8494,-4.611715 21.8345,-4.596747 -1.3603,1.360263 -3.5323,1.595961 -5.1714,2.298373"
         style="fill:none;stroke:#000080;stroke-width:5.74593401;stroke-linecap:butt;stroke-linejoin:miter;stroke-miterlimit:4;stroke-opacity:1;stroke-dasharray:none" />
      <path
         inkscape:connector-curvature="0"
         id="path12656"
         d="m 4338.7565,61.275316 c -2.3859,19.253213 -44.0071,24.23445 -31.6026,-0.574595 3.7344,-7.468939 15.3738,-8.913035 18.9615,-16.088615 3.0255,-6.050956 -2.016,-14.223658 -6.8951,-16.663211 -11.5261,-5.763053 -12.0664,17.895855 -12.0664,21.259959 0,20.29383 23.01,15.540334 31.6026,24.132922 8.5331,8.533024 -3.6095,21.466289 -14.3648,16.088613 -29.0925,-14.546204 -56.5157,-55.632793 -17.2378,-75.271734 23.7492,-11.8746226 39.6517,58.603756 58.0339,40.221536"
         style="fill:none;stroke:#0000ff;stroke-width:5.74593401;stroke-linecap:round;stroke-linejoin:round;stroke-miterlimit:4;stroke-opacity:1;stroke-dasharray:none" />
      <path
         inkscape:connector-curvature="0"
         id="path12658"
         d="m 4597.4527,60.765691 c -5.3416,4.418954 -14.722,9.498499 -21.1463,9.498499 -45.6455,0 5.9188,-22.765583 6.5066,-23.746246 2.3737,-3.960307 -8.3561,-13.383395 -10.5731,-11.533887 -7.2495,6.047424 43.9191,64.175887 43.9191,17.640068 0,-10.599397 -32.3812,-39.753374 -44.7325,-34.601676 -29.5511,12.325685 -16.2018,57.008969 10.5732,64.454095 8.83,2.455304 42.3333,-7.497004 46.3591,-10.855425 4.5706,-3.812641 -17.4864,-23.011234 7.3199,-26.460102"
         style="fill:none;stroke:#ff6600;stroke-width:5.96022034;stroke-linecap:butt;stroke-linejoin:miter;stroke-miterlimit:4;stroke-opacity:1;stroke-dasharray:none" />
      <path
         style="fill:none;stroke:#008000;stroke-width:5.74593401;stroke-linecap:butt;stroke-linejoin:miter;stroke-miterlimit:4;stroke-opacity:1;stroke-dasharray:none"
         d="m 4683.4727,41.257802 c -22.2385,3.626291 -10.0644,49.574108 1.9852,33.391007 4.8237,-6.478454 -0.3664,-18.228831 7.5558,-23.754335 6.0448,-4.216066 31.0714,7.731913 19.9551,13.33852 -30.5115,15.388861 -69.684,-45.45667 -28.8177,-38.173248 16.823,2.998178 56.9286,18.107538 38.7467,42.526735 -2.5991,3.490645 -12.6951,20.978795 -17.4847,19.40085 -34.9708,-11.521844 0.3704,-58.047057 -32.7442,-68.957286 -2.3795,-0.783979 -7.2054,-3.433406 -10.0812,-1.427625 -15.8269,11.038771 -9.3917,34.702945 -3.5603,51.043901 3.6025,10.094865 7.7284,20.950924 7.7114,20.938269 -1.5429,-1.148855 -2.0909,-3.263883 -3.0233,-4.783819"
         id="path12662"
         inkscape:connector-curvature="0" />
      <path
         style="fill:none;stroke:#ff5555;stroke-width:6.32052708;stroke-linecap:round;stroke-linejoin:round;stroke-miterlimit:4;stroke-opacity:1;stroke-dasharray:none"
         d="m 4628.4248,-32.261872 c 10.9964,3.020841 2.2223,20.03107 -7.301,16.032912 -4.7355,-1.988128 -18.8784,-21.873252 -20.2179,-20.748461 -7.6696,6.43976 2.3396,18.783954 -3.9313,24.049353 -7.8996,6.632872 -20.0562,-3.500772 -23.026,-8.48801 -10.2774,-17.258859 12.1479,-38.021814 23.5876,-47.627146 14.602,-12.260557 10.6155,44.844024 42.6823,17.919116 7.1835,-6.031589 -15.5346,-18.070781 -17.4098,-21.220018 -3.2679,-5.487649 14.007,-18.446397 19.6563,-8.95954 3.3433,5.614461 -15.6051,21.977711 -19.6563,20.27691 -9.3079,-3.907663 -9.6612,-13.015583 -19.0949,-16.976008"
         id="path12664"
         inkscape:connector-curvature="0" />
      <path
         style="fill:none;stroke:#d45500;stroke-width:5.74593401;stroke-linecap:butt;stroke-linejoin:miter;stroke-miterlimit:4;stroke-opacity:1;stroke-dasharray:none"
         d="m 4429.0059,-42.314418 c -0.3664,22.52929 -47.5931,17.13981 -33.3263,2.872976 5.7113,-5.711323 18.0896,-2.278176 22.4092,-10.917278 3.2958,-6.591845 -12.1516,-29.62356 -16.0887,-17.812393 -10.8064,32.419133 55.072,62.3639264 41.9452,22.983738 -5.4035,-16.211148 -26.1635,-53.70487 -47.6912,-32.177234 -3.0773,3.077296 -18.9184,15.600325 -16.6632,20.110772 16.4665,32.932789 57.3811,-8.775622 72.9734,22.409143 1.1204,2.24094 4.441,6.632069 2.873,9.768083 -8.6296,17.2590603 -32.9763,14.319929 -49.9896,10.917278 -10.5103,-2.10207 -21.8496,-4.611719 -21.8346,-4.596748 1.3603,1.360264 3.5324,1.595967 5.1713,2.298378"
         id="path12666"
         inkscape:connector-curvature="0" />
      <path
         style="fill:none;stroke:#536c67;stroke-width:5.74593401;stroke-linecap:round;stroke-linejoin:round;stroke-miterlimit:4;stroke-opacity:1;stroke-dasharray:none"
         d="m 4676.4014,-57.236861 c 2.3858,-19.253211 44.0071,-24.234453 31.6026,0.574587 -3.7344,7.468941 -15.3738,8.913043 -18.9616,16.088623 -3.0255,6.050951 2.0161,14.223659 6.8951,16.66321 11.5261,5.763051 12.0665,-17.89586 12.0665,-21.259958 0,-20.293829 -23.01,-15.540339 -31.6026,-24.132923 -8.533,-8.533027 3.6095,-21.466292 14.3648,-16.088613 29.0924,14.546199 56.5157,55.63279 17.2378,75.271728 -23.7493,11.8746308 -39.6518,-58.603753 -58.0339,-40.221537"
         id="path12668"
         inkscape:connector-curvature="0" />
      <path
         style="fill:none;stroke:#008080;stroke-width:5.96022034;stroke-linecap:butt;stroke-linejoin:miter;stroke-miterlimit:4;stroke-opacity:1;stroke-dasharray:none"
         d="m 4511.343,-38.696582 c 5.3416,4.418952 14.722,9.498496 21.1463,9.498496 45.6455,0 -5.9188,-22.765585 -6.5066,-23.746244 -2.3737,-3.960302 8.3561,-13.383398 10.5731,-11.533885 7.2495,6.047419 -43.9191,64.17588263 -43.9191,17.640069 0,-10.599398 32.3811,-39.753375 44.7325,-34.601679 29.5511,12.32569 16.2018,57.00897 -10.5732,64.454099 -8.83,2.455294 -42.3333,-7.497011 -46.3591,-10.855428 -4.5706,-3.812647 17.4864,-23.011237 -7.3199,-26.460099"
         id="path12670"
         inkscape:connector-curvature="0" />
      <path
         inkscape:connector-curvature="0"
         id="path12672"
         d="m 4331.6851,-58.204469 c 22.2386,3.626286 10.0644,49.5741072 -1.9851,33.391001 -4.8237,-6.478448 0.3664,-18.228825 -7.5558,-23.754331 -6.0448,-4.216064 -31.0714,7.731912 -19.9552,13.338525 30.5116,15.388856 69.6841,-45.456668 28.8177,-38.173248 -16.8229,2.998174 -56.9286,18.10753 -38.7467,42.526731 2.5991,3.490643 12.6951,20.9787988 17.4847,19.400848 34.9709,-11.521845 -0.3703,-58.047058 32.7442,-68.95729 2.3796,-0.783967 7.2054,-3.433404 10.0813,-1.427622 15.8268,11.038771 9.3917,34.702951 3.5602,51.043909 -3.6024,10.094852 -7.7283,20.9509194 -7.7113,20.9382688 1.5429,-1.1488598 2.0908,-3.2638858 3.0233,-4.7838248"
         style="fill:none;stroke:#806600;stroke-width:5.74593401;stroke-linecap:butt;stroke-linejoin:miter;stroke-miterlimit:4;stroke-opacity:1;stroke-dasharray:none" />
      <path
         style="fill:none;stroke:#ff6600;stroke-width:5.96022034;stroke-linecap:butt;stroke-linejoin:miter;stroke-miterlimit:4;stroke-opacity:1;stroke-dasharray:none"
         d="m 4324.9261,-144.12659 c -5.3417,4.41895 -14.722,9.4985 -21.1464,9.4985 -45.6455,0 5.9189,-22.76558 6.5066,-23.74625 2.3738,-3.96031 -8.356,-13.38339 -10.573,-11.53388 -7.2495,6.04742 43.9191,64.17589 43.9191,17.64007 0,-10.5994 -32.3811,-39.75338 -44.7325,-34.60167 -29.5512,12.32568 -16.2018,57.00896 10.5732,64.45409 8.8299,2.4553 42.3333,-7.497 46.3591,-10.85543 4.5706,-3.81264 -17.4864,-23.01123 7.3199,-26.4601"
         id="path12674"
         inkscape:connector-curvature="0" />
      <path
         style="fill:none;stroke:#0000ff;stroke-width:5.74593401;stroke-linecap:round;stroke-linejoin:round;stroke-miterlimit:4;stroke-opacity:1;stroke-dasharray:none"
         d="m 4430.2618,-139.63847 c -2.3858,19.25321 -44.0071,24.23445 -31.6026,-0.5746 3.7345,-7.46894 15.3738,-8.91303 18.9615,-16.08861 3.0255,-6.05096 -2.0159,-14.22366 -6.8951,-16.66321 -11.526,-5.76306 -12.0664,17.89585 -12.0664,21.25995 0,20.29383 23.01,15.54034 31.6026,24.13293 8.5331,8.53303 -3.6095,21.46628 -14.3648,16.08861 -29.0925,-14.54621 -56.5157,-55.63279 -17.2378,-75.27174 23.7492,-11.87462 39.6517,58.60376 58.0339,40.22154"
         id="path12676"
         inkscape:connector-curvature="0" />
      <path
         style="fill:none;stroke:#806600;stroke-width:5.74593401;stroke-linecap:butt;stroke-linejoin:miter;stroke-miterlimit:4;stroke-opacity:1;stroke-dasharray:none"
         d="m 4510.7173,-165.62372 c 22.2386,3.62629 10.0643,49.57411 -1.9853,33.391 -4.8236,-6.47846 0.3665,-18.22882 -7.5558,-23.75433 -6.0448,-4.21606 -31.0714,7.73191 -19.9551,13.33852 30.5116,15.38885 69.6841,-45.45668 28.8177,-38.17325 -16.823,2.99818 -56.9286,18.10754 -38.7467,42.52673 2.5991,3.49065 12.6952,20.9788 17.4847,19.40086 34.9708,-11.52185 -0.3704,-58.04706 32.7442,-68.9573 2.3796,-0.78397 7.2054,-3.4334 10.0812,-1.42762 15.827,11.03877 9.3917,34.70295 3.5603,51.0439 -3.6025,10.09486 -7.7283,20.95093 -7.7113,20.93827 1.5429,-1.14885 2.0908,-3.26388 3.0232,-4.78382"
         id="path12678"
         inkscape:connector-curvature="0" />
      <path
         style="fill:none;stroke:#374845;stroke-width:5.96022034;stroke-linecap:butt;stroke-linejoin:miter;stroke-miterlimit:4;stroke-opacity:1;stroke-dasharray:none"
         d="m 4601.4313,-147.11046 c -5.3417,4.41895 -14.7221,9.49851 -21.1464,9.49851 -45.6455,0 5.9189,-22.76559 6.5066,-23.74625 2.3737,-3.96031 -8.356,-13.3834 -10.5731,-11.53388 -7.2495,6.04742 43.9192,64.17588 43.9192,17.64006 0,-10.5994 -32.3812,-39.75337 -44.7326,-34.60168 -29.5511,12.32569 -16.2017,57.00898 10.5732,64.4541 8.83,2.4553 42.3333,-7.49702 46.3592,-10.85543 4.5705,-3.81264 -17.4865,-23.01123 7.3198,-26.4601"
         id="path12680"
         inkscape:connector-curvature="0" />
      <path
         inkscape:connector-curvature="0"
         id="path12682"
         d="m 4713.9623,-163.61885 c 10.9965,-3.02084 2.2224,-20.03107 -7.3009,-16.0329 -4.7356,1.98812 -18.8784,21.87324 -20.218,20.74845 -7.6695,-6.43976 2.3398,-18.78394 -3.9312,-24.04935 -7.8996,-6.63287 -20.0562,3.50077 -23.026,8.48801 -10.2774,17.25887 12.1478,38.02181 23.5876,47.62715 14.602,12.26056 10.6155,-44.84402 42.6823,-17.91912 7.1835,6.03159 -15.5345,18.07078 -17.4099,21.22002 -3.2679,5.48765 14.007,18.4464 19.6564,8.95954 3.3434,-5.61446 -15.6051,-21.97771 -19.6564,-20.2769 -9.3078,3.90766 -9.6612,13.01557 -19.0947,16.97601"
         style="fill:none;stroke:#a02c5a;stroke-width:6.32052708;stroke-linecap:round;stroke-linejoin:round;stroke-miterlimit:4;stroke-opacity:1;stroke-dasharray:none" />
      <path
         style="fill:none;stroke:#000080;stroke-width:5.74593401;stroke-linecap:butt;stroke-linejoin:miter;stroke-miterlimit:4;stroke-opacity:1;stroke-dasharray:none"
         d="m 4487.7704,57.14786 c 0.3665,22.529289 47.5933,17.139807 33.3264,2.872967 -5.7113,-5.711315 -18.0896,-2.278174 -22.4091,-10.917273 -3.2959,-6.591852 12.1515,-29.623563 16.0886,-17.812394 10.8064,32.419132 -55.0721,62.363923 -41.9453,22.983736 5.4036,-16.21115 26.1636,-53.70486852 47.6912,-32.177234 3.0773,3.077302 18.9184,15.600328 16.6633,20.110773 -16.4664,32.932791 -57.3811,-8.775621 -72.9734,22.409141 -1.1205,2.240941 -4.441,6.632072 -2.873,9.768087 8.6295,17.259061 32.9763,14.31993 49.9897,10.917274 10.5102,-2.102064 21.8494,-4.611715 21.8345,-4.596747 -1.3603,1.360263 -3.5323,1.595961 -5.1714,2.298373"
         id="path3311"
         inkscape:connector-curvature="0" />
      <path
         style="fill:none;stroke:#ff6600;stroke-width:5.96022034;stroke-linecap:butt;stroke-linejoin:miter;stroke-miterlimit:4;stroke-opacity:1;stroke-dasharray:none"
         d="m 4597.4527,60.765691 c -5.3416,4.418954 -14.722,9.498499 -21.1463,9.498499 -45.6455,0 5.9188,-22.765583 6.5066,-23.746246 2.3737,-3.960307 -8.3561,-13.383395 -10.5731,-11.533887 -7.2495,6.047424 43.9191,64.175887 43.9191,17.640068 0,-10.599397 -32.3812,-39.753374 -44.7325,-34.601676 -29.5511,12.325685 -16.2018,57.008969 10.5732,64.454095 8.83,2.455304 42.3333,-7.497004 46.3591,-10.855425 4.5706,-3.812641 -17.4864,-23.011234 7.3199,-26.460102"
         id="path3313"
         inkscape:connector-curvature="0" />
      <path
         inkscape:connector-curvature="0"
         id="path3315"
         d="m 4683.4727,41.257802 c -22.2385,3.626291 -10.0644,49.574108 1.9852,33.391007 4.8237,-6.478454 -0.3664,-18.228831 7.5558,-23.754335 6.0448,-4.216066 31.0714,7.731913 19.9551,13.33852 -30.5115,15.388861 -69.684,-45.45667 -28.8177,-38.173248 16.823,2.998178 56.9286,18.107538 38.7467,42.526735 -2.5991,3.490645 -12.6951,20.978795 -17.4847,19.40085 -34.9708,-11.521844 0.3704,-58.047057 -32.7442,-68.957286 -2.3795,-0.783979 -7.2054,-3.433406 -10.0812,-1.427625 -15.8269,11.038771 -9.3917,34.702945 -3.5603,51.043901 3.6025,10.094865 7.7284,20.950924 7.7114,20.938269 -1.5429,-1.148855 -2.0909,-3.263883 -3.0233,-4.783819"
         style="fill:none;stroke:#008000;stroke-width:5.74593401;stroke-linecap:butt;stroke-linejoin:miter;stroke-miterlimit:4;stroke-opacity:1;stroke-dasharray:none" />
      <path
         inkscape:connector-curvature="0"
         id="path3317"
         d="m 4628.4248,-32.261872 c 10.9964,3.020841 2.2223,20.03107 -7.301,16.032912 -4.7355,-1.988128 -18.8784,-21.873252 -20.2179,-20.748461 -7.6696,6.43976 2.3396,18.783954 -3.9313,24.049353 -7.8996,6.632872 -20.0562,-3.500772 -23.026,-8.48801 -10.2774,-17.258859 12.1479,-38.021814 23.5876,-47.627146 14.602,-12.260557 10.6155,44.844024 42.6823,17.919116 7.1835,-6.031589 -15.5346,-18.070781 -17.4098,-21.220018 -3.2679,-5.487649 14.007,-18.446397 19.6563,-8.95954 3.3433,5.614461 -15.6051,21.977711 -19.6563,20.27691 -9.3079,-3.907663 -9.6612,-13.015583 -19.0949,-16.976008"
         style="fill:none;stroke:#ff5555;stroke-width:6.32052708;stroke-linecap:round;stroke-linejoin:round;stroke-miterlimit:4;stroke-opacity:1;stroke-dasharray:none" />
      <path
         inkscape:connector-curvature="0"
         id="path3319"
         d="m 4511.343,-38.696582 c 5.3416,4.418952 14.722,9.498496 21.1463,9.498496 45.6455,0 -5.9188,-22.765585 -6.5066,-23.746244 -2.3737,-3.960302 8.3561,-13.383398 10.5731,-11.533885 7.2495,6.047419 -43.9191,64.17588263 -43.9191,17.640069 0,-10.599398 32.3811,-39.753375 44.7325,-34.601679 29.5511,12.32569 16.2018,57.00897 -10.5732,64.454099 -8.83,2.455294 -42.3333,-7.497011 -46.3591,-10.855428 -4.5706,-3.812647 17.4864,-23.011237 -7.3199,-26.460099"
         style="fill:none;stroke:#008080;stroke-width:5.96022034;stroke-linecap:butt;stroke-linejoin:miter;stroke-miterlimit:4;stroke-opacity:1;stroke-dasharray:none" />
      <path
         inkscape:connector-curvature="0"
         id="path3321"
         d="m 4510.7173,-165.62372 c 22.2386,3.62629 10.0643,49.57411 -1.9853,33.391 -4.8236,-6.47846 0.3665,-18.22882 -7.5558,-23.75433 -6.0448,-4.21606 -31.0714,7.73191 -19.9551,13.33852 30.5116,15.38885 69.6841,-45.45668 28.8177,-38.17325 -16.823,2.99818 -56.9286,18.10754 -38.7467,42.52673 2.5991,3.49065 12.6952,20.9788 17.4847,19.40086 34.9708,-11.52185 -0.3704,-58.04706 32.7442,-68.9573 2.3796,-0.78397 7.2054,-3.4334 10.0812,-1.42762 15.827,11.03877 9.3917,34.70295 3.5603,51.0439 -3.6025,10.09486 -7.7283,20.95093 -7.7113,20.93827 1.5429,-1.14885 2.0908,-3.26388 3.0232,-4.78382"
         style="fill:none;stroke:#806600;stroke-width:5.74593401;stroke-linecap:butt;stroke-linejoin:miter;stroke-miterlimit:4;stroke-opacity:1;stroke-dasharray:none" />
      <path
         inkscape:connector-curvature="0"
         id="path3323"
         d="m 4601.4313,-147.11046 c -5.3417,4.41895 -14.7221,9.49851 -21.1464,9.49851 -45.6455,0 5.9189,-22.76559 6.5066,-23.74625 2.3737,-3.96031 -8.356,-13.3834 -10.5731,-11.53388 -7.2495,6.04742 43.9192,64.17588 43.9192,17.64006 0,-10.5994 -32.3812,-39.75337 -44.7326,-34.60168 -29.5511,12.32569 -16.2017,57.00898 10.5732,64.4541 8.83,2.4553 42.3333,-7.49702 46.3592,-10.85543 4.5705,-3.81264 -17.4865,-23.01123 7.3198,-26.4601"
         style="fill:none;stroke:#374845;stroke-width:5.96022034;stroke-linecap:butt;stroke-linejoin:miter;stroke-miterlimit:4;stroke-opacity:1;stroke-dasharray:none" />
      <path
         style="fill:none;stroke:#a02c5a;stroke-width:6.32052708;stroke-linecap:round;stroke-linejoin:round;stroke-miterlimit:4;stroke-opacity:1;stroke-dasharray:none"
         d="m 4713.9623,-163.61885 c 10.9965,-3.02084 2.2224,-20.03107 -7.3009,-16.0329 -4.7356,1.98812 -18.8784,21.87324 -20.218,20.74845 -7.6695,-6.43976 2.3398,-18.78394 -3.9312,-24.04935 -7.8996,-6.63287 -20.0562,3.50077 -23.026,8.48801 -10.2774,17.25887 12.1478,38.02181 23.5876,47.62715 14.602,12.26056 10.6155,-44.84402 42.6823,-17.91912 7.1835,6.03159 -15.5345,18.07078 -17.4099,21.22002 -3.2679,5.48765 14.007,18.4464 19.6564,8.95954 3.3434,-5.61446 -15.6051,-21.97771 -19.6564,-20.2769 -9.3078,3.90766 -9.6612,13.01557 -19.0947,16.97601"
         id="path3325"
         inkscape:connector-curvature="0" />
    </g>
    <g
       id="g3976"
       transform="translate(0,-50)">
      <path
         sodipodi:nodetypes="cccc"
         inkscape:connector-curvature="0"
         id="path12710"
         d="m 3058.9606,673.6849 1676.5761,0 0,-335.66075 C 4325.6337,553.09103 3785.568,633.66571 3058.9606,673.6849 z"
         style="fill:#f9f9f9;fill-opacity:1;stroke:#000080;stroke-width:5.16719198;stroke-linecap:round;stroke-linejoin:round;stroke-miterlimit:4;stroke-opacity:1;stroke-dasharray:none" />
      <g
         id="g3964">
        <g
           id="g9961"
           transform="matrix(0.95476567,0,0,0.95476567,253.48274,-115.23564)">
          <path
             inkscape:connector-curvature="0"
             id="path3222"
             d="m 3702.2542,788.29563 1.7407,17.08602"
             style="fill:#0066ff;fill-opacity:1;stroke:#0066ff;stroke-width:6;stroke-linecap:butt;stroke-linejoin:miter;stroke-miterlimit:4;stroke-opacity:1;stroke-dasharray:none" />
          <path
             inkscape:connector-curvature="0"
             id="path3224"
             d="m 3692.7434,784.33755 0.9011,22.58384"
             style="fill:#0066ff;fill-opacity:1;stroke:#0066ff;stroke-width:6;stroke-linecap:butt;stroke-linejoin:miter;stroke-miterlimit:4;stroke-opacity:1;stroke-dasharray:none" />
          <path
             inkscape:connector-curvature="0"
             id="path3226"
             d="m 3680.5083,779.83583 2.1927,31.59717"
             style="fill:#0066ff;fill-opacity:1;stroke:#0066ff;stroke-width:6;stroke-linecap:butt;stroke-linejoin:miter;stroke-miterlimit:4;stroke-opacity:1;stroke-dasharray:none" />
          <path
             inkscape:connector-curvature="0"
             id="path3252"
             d="m 3739.4204,786.32737 0.5665,14.49834"
             style="fill:#0066ff;fill-opacity:1;stroke:#0066ff;stroke-width:6;stroke-linecap:butt;stroke-linejoin:miter;stroke-miterlimit:4;stroke-opacity:1;stroke-dasharray:none" />
          <path
             inkscape:connector-curvature="0"
             id="path3254"
             d="m 3749.3986,780.12444 0.3595,21.92282"
             style="fill:#0066ff;fill-opacity:1;stroke:#0066ff;stroke-width:6;stroke-linecap:butt;stroke-linejoin:miter;stroke-miterlimit:4;stroke-opacity:1;stroke-dasharray:none" />
          <g
             clip-path="url(#clipPath9957)"
             transform="matrix(-0.98066434,-0.19569735,-0.19569735,0.98066434,10011.172,1983.0859)"
             id="g3272"
             style="fill:#000080;fill-opacity:1">
            <path
               style="fill:#000080;fill-opacity:1;fill-rule:evenodd;stroke:none"
               d="m 6043.4894,-57.972432 c 14.212,0.187228 33.8299,5.960808 52,12.75 16.7967,6.276058 39.1078,17.7308 56.8438,28.875 -2.6005,0.0324 -5.2137,0.0733 -7.8126,0.0937 -7.6536,0.0602 -13.7148,0.24587 -24.4062,-0.28125 -22.3835,-1.10357 -46.3549,-4.69521 -66.5,-9.9375 -9.2835,-2.41581 -42.5935,-13.120045 -62.375,-19.875 3.9477,-1.622834 6.5669,-2.754965 8.4375,-3.34375 13.8797,-4.36877 27.6256,-7.673329 41.0313,-8.25 0.897,-0.0386 1.8337,-0.04373 2.7812,-0.03125 z m 124.1562,44.625 c 21.4044,-0.0749 43.5248,3.4353701 63.0313,8.5000001 3.3801,0.87762 16.0749,5.47145002 24.0313,9.4375 11.0624,5.5144499 30.0481,18.0142499 36.7187,24.1562499 1.049,0.88891 2.2054,1.88842 3.2813,2.8125 -29.6279,-0.99725 -56.6547,-6.10264 -77.5,-14.84375 -14.1377,-5.92821 -35.0221,-17.49045988 -54.625,-30 1.6777,-0.0518 3.3739,-0.0566 5.0624,-0.0625 z m 136.3126,48.4375 c 31.1718,0.0732 51.3812,1.27559 57.6562,3.4375 6.5942,2.27188 12.9436,6.58819 18.3125,12.40625 5.1676,5.59995 9.691,10.31634 13.8125,14.40625 -7.7373,0.52401 -15.1375,0.50247 -21.0938,-0.1875 -24.4526,-2.83258 -42.4732,-10.6301 -67.75,-29.34375 -0.297,-0.21998 -0.6267,-0.48452 -0.9374,-0.71875 z m 140.375,25.21875 c 1.4207,-0.0278 2.6294,0.0437 3.5624,0.21875 6.2373,1.17008 12.9631,7.57802 21.0626,20 2.663,4.08446 5.486,7.9396 8.4374,11.59375 -0.2788,0.002 -0.5673,-1.3e-4 -0.8437,0 -25.2686,0.0118 -45.2732,-5.96184 -65.625,-19.65625 -1.4865,-1.00025 -3.1249,-2.14964 -4.8125,-3.40625 4.2199,-0.95988 8.5902,-2.24985 13.5625,-3.90625 8.3947,-2.79645 18.4991,-4.7231 24.6563,-4.84375 z m 88.75,28 c 2.8305,-0.0293 5.226,0.23736 6.9687,0.8125 6.4013,2.1126 13.9086,10.72972 20.0937,23.062502 3.042,6.06518 6.2176,11.69965 9.5626,17 -27.257,-2.44114 -44.6968,-8.2459 -64.375,-21.3125 -3.7226,-2.47165 -8.3922,-6.26573 -13.3126,-10.687502 5.1883,-0.92089 10.5795,-2.39825 17.8438,-4.65625 8.5992,-2.67292 16.9914,-4.15437 23.2188,-4.21875 z m 93.5937,42.937502 c 8.9561,-0.14004 18.5277,0.70042 22.375,2.3125 5.4596,2.28767 10.187,6.06039 13.125,10.5 l 2.5,3.75 -2.0313,14.40625 c -1.0913,7.84746 -2.42,18.35185 -3,23.53125 -25.7399,-10.05319 -39.3745,-18.27398 -55.7812,-31.9375 -4.8164,-4.0111 -12.3,-11.11273 -16.625,-15.75 -0.4437,-0.47579 -0.9051,-1.01062 -1.375,-1.53125 8.9035,-0.62874 17.9314,-1.92363 26.75,-3.9375 3.5547,-0.81178 8.6888,-1.25972 14.0625,-1.34375 z m 46.1875,70.65625 c 2.1564,0.67757 4.3201,1.34367 6.5,1.96875 1.0754,0.30837 2.1698,0.61106 3.25,0.90625 l 10.4688,2.875 -9.4688,0.71875 c -3.3804,0.25628 -6.9177,0.61035 -10.5625,1.03125 -0.042,-1.85904 -0.08,-3.2954 -0.125,-5.25 -0.021,-0.89455 -0.042,-1.38551 -0.062,-2.25 z m -844.25,-263.512815 c 57.9073,-4.745394 97.5174,-1.988536 145,8.731563 l 3.75,1.5625 c 1.0509,0.43992 2.8118,1.108512 5.0312,1.90625 l 3.4688,-0.875 c 6.7375,-1.665658 12.4683,-3.173919 12.7188,-3.34375 15.323,-4.913404 28.2312,-9.179823 47.3437,-9.5 1.2742,-0.02135 2.5743,-0.01462 3.9063,0 l 7.875,0.65625 c 25.7159,2.14463 54.7248,14.552269 86.9062,37.1875 4.2003,2.95435 8.607,5.92253 13.125,8.875 19.9436,-0.25961 39.9171,-0.46012 59.7812,2 26.1762,3.24184 47.4766,14.61547012 67.75,33.84375 3.5414,3.35877 9.1883,8.18627 14.2813,12.25 6.2634,0.1147 12.6186,0.0671 19.0625,-0.1875 35.5527,-1.40471 40.7948,-1.18883 47.3125,2 4.0017,1.95785 7.0347,4.53125 10.8125,9.1875 4.2528,5.24164 14.4454,14.52226 23.875,22.0625 12.2543,-1.29648 24.6216,-3.81462 33.0312,-7.0625 17.38,-6.71214 19.9326,-6.06311 28.5938,7.125 4.6181,7.03165 14.25,17.67644 23.9375,26.96875 14.1751,-0.93109 29.6148,-3.69135 38.3437,-7.0625 11.3539,-4.38488 14.3967,-4.96849 18.5626,-3.59375 4.2888,1.41546 7.4675,5.1194 11.5624,13.4375 3.1385,6.375172 15.2908,23.016602 25.4063,35.218752 17.2999,0.51077 38.1053,-1.08355 50.375,-4.09375 23.3093,-5.7186 34.5225,-1.39313 37.1875,14.40625 0.6527,3.87016 1.8762,9.42407 2.7188,12.3125 1.019,3.49382 1.5898,13.23959 2.25,38.1875 3.8163,1.38024 7.8043,2.78808 12.125,4.28125 3.9306,1.35844 8.0075,2.74271 12.4062,4.21875 21.6353,7.25997 27.4415,8.86051 34.6562,9.40625 11.3035,0.85501 16.2368,2.454 16.6563,5.40625 0.2532,1.78277 -0.1443,2.25 -2,2.25 -1.2877,0 -5.5058,0.8767 -9.3437,1.96875 -3.8381,1.09204 -19.1188,3.58999 -33.9688,5.53125 -11.0187,1.44041 -20.7413,2.79035 -29.6875,4.1875 0.9782,47.17003 0.6231,55.40861 -1.625,66.53125 -1.1936,5.90583 -2.6121,14.64978 -3.1563,19.4375 -1.8549,16.32413 -7.1791,22.86253 -22.4062,27.5 -5.8719,1.78831 -8.4892,2.01643 -18,1.53125 l -0.625,-22.03125 c 12.9185,-0.17648 15.0316,-0.45483 19.2812,-2.53125 5.6911,-2.78069 13.0574,-9.87937 15.7813,-15.21875 2.1536,-4.2213 2.3616,-0.36325 -3.0625,-52.40625 -0.4569,-4.37365 -0.7335,-11.89299 -0.875,-20.3125 -19.5632,3.53658 -36.4585,7.73198 -57.6875,14.28125 l -8.75,-17.71875 c 20.876,-6.59628 44.7685,-12.14292 66.3437,-15.53125 0.049,-5.09566 0.1593,-9.98116 0.3126,-14.25 -16.5728,-6.22709 -31.9683,-13.91008 -44.8438,-22.46875 -15.7743,-10.4856 -28.3982,-22.56033 -39.1875,-37.6875 -15.0782,0.10417 -29.4109,-1.83174 -41.3125,-5.78125 -19.8944,-6.6019 -36.8601,-17.58345 -50.9062,-32.906252 -3.5636,0.2407 -7.4415,0.3273 -12.0938,0.3125 -16.3977,-0.052 -26.0847,-1.91442 -40.7812,-7.90625 -11.2428,-4.58363 -19.6825,-9.8966 -30.875,-20.3125 -5.6695,0.84798 -11.4429,1.2068 -18.3438,1.1875 -15.0727,-0.0423 -26.0291,-2.04864 -39.3438,-7.21875 -15.089,-5.85914 -29.5324,-18.1298 -42.4374,-29.25 -17.6018,0.004 -35.7909,-0.44603 -40.6876,-1.03125 -33.2157,-3.97002 -55.2518,-13.78421 -91.375,-40.6249999 -2.823,-2.09764 -5.9905,-4.2581701 -9.3437,-6.4687501 -1.4859,0.0904 -2.9654,0.18231 -4.4375,0.3125 l -11.438,1.03125 c -17.9875,1.59069 -52.1332,0.51004 -65.9375,-2.09375 -28.6785,-5.40937 -55.2119,-13.9578 -91.7812,-29.59375 l -10.1563,4.03125 c -17.1239,4.87472 -62.1052,16.64735 -144.1692,5.05862 l 0.8929,-7.142861 c 52.4906,9.091371 130.0224,5.962021 143.2143,-5.822009 l 0.7812,-0.1875 -0.7812,-0.34375 c -53.4709,-11.404732 -100.362,-13.248447 -145.5357,-6.682455 z"
               id="path3274"
               inkscape:connector-curvature="0"
               sodipodi:nodetypes="cccccsccccccsscsscccscccccccsccscccscscsscsccscscscsssssscsscscccsscssscscssssccccscsscsccscccsscssssccccssssccccsccsscscccccccscccccsccc" />
          </g>
        </g>
        <text
           xml:space="preserve"
           style="font-size:38.19062805px;font-style:normal;font-weight:normal;line-height:125%;letter-spacing:0px;word-spacing:0px;fill:#000000;fill-opacity:1;stroke:none;font-family:Sans"
           x="3681.4678"
           y="657.45386"
           id="text3299"
           sodipodi:linespacing="125%"><tspan
             sodipodi:role="line"
             id="tspan3301"
             x="3681.4678"
             y="657.45386">Gen</tspan></text>
      </g>
      <g
         id="g3957">
        <path
           sodipodi:nodetypes="cc"
           inkscape:connector-curvature="0"
           id="path3190"
           d="m 4200.252,575.82867 c 54.1062,-42.3809 99.9137,12.2127 138.259,-6.84068"
           style="fill:none;stroke:#000080;stroke-width:6.96978951;stroke-linecap:butt;stroke-linejoin:miter;stroke-miterlimit:4;stroke-opacity:1;stroke-dasharray:none" />
        <path
           style="fill:none;stroke:#800080;stroke-width:6.96978951;stroke-linecap:butt;stroke-linejoin:miter;stroke-miterlimit:4;stroke-opacity:1;stroke-dasharray:none"
           d="m 4161.3058,615.0071 c 50.2116,13.58827 99.2646,-25.72197 142.8028,0"
           id="path3192"
           inkscape:connector-curvature="0"
           sodipodi:nodetypes="cc" />
        <path
           sodipodi:nodetypes="cc"
           inkscape:connector-curvature="0"
           id="path3194"
           d="m 4380.7027,593.86319 c -50.2116,13.58827 -99.2646,-25.72197 -142.8028,0"
           style="fill:none;stroke:#ff00ff;stroke-width:6.96978951;stroke-linecap:butt;stroke-linejoin:miter;stroke-miterlimit:4;stroke-opacity:1;stroke-dasharray:none" />
        <text
           sodipodi:linespacing="125%"
           id="text3303"
           y="657.45386"
           x="3996.5403"
           style="font-size:38.19062805px;font-style:normal;font-weight:normal;line-height:125%;letter-spacing:0px;word-spacing:0px;fill:#000000;fill-opacity:1;stroke:none;font-family:Sans"
           xml:space="preserve"><tspan
             y="657.45386"
             x="3996.5403"
             id="tspan3305"
             sodipodi:role="line">Tránscritos</tspan></text>
      </g>
      <g
         id="g3944">
        <text
           xml:space="preserve"
           style="font-size:38.19062805px;font-style:normal;font-weight:normal;line-height:125%;letter-spacing:0px;word-spacing:0px;fill:#000000;fill-opacity:1;stroke:none;font-family:Sans"
           x="4512.1138"
           y="657.45386"
           id="text3307"
           sodipodi:linespacing="125%"><tspan
             sodipodi:role="line"
             id="tspan3309"
             x="4512.1138"
             y="657.45386">Proteínas</tspan></text>
        <path
           style="fill:none;stroke:#536c67;stroke-width:5.74593401;stroke-linecap:round;stroke-linejoin:round;stroke-miterlimit:4;stroke-opacity:1;stroke-dasharray:none"
           d="m 4647.609,512.58761 c 1.4323,-11.56577 26.419,-14.5581 18.9721,0.34517 -2.2418,4.48673 -9.2294,5.35423 -11.3832,9.66474 -1.8163,3.63493 1.2103,8.54443 4.1393,10.00992 6.9196,3.46197 7.2439,-10.75039 7.2439,-12.77127 0,-12.19089 -13.8136,-9.33538 -18.9721,-14.4971 -5.1226,-5.12596 2.1669,-12.89522 8.6237,-9.66475 17.4652,8.73818 33.9284,33.41969 10.3484,45.21718 -14.2575,7.13331 -23.8043,-35.2044 -34.8396,-24.16186"
           id="path3327"
           inkscape:connector-curvature="0" />
        <path
           style="fill:none;stroke:#000080;stroke-width:5.74593401;stroke-linecap:butt;stroke-linejoin:miter;stroke-miterlimit:4;stroke-opacity:1;stroke-dasharray:none"
           d="m 4534.3673,581.30073 c 0.22,13.53378 28.5719,10.29621 20.007,1.72585 -3.4287,-3.4309 -10.8598,-1.36855 -13.453,-6.55823 -1.9787,-3.95984 7.295,-17.79543 9.6586,-10.70025 6.4874,19.47481 -33.0617,37.46322 -25.1812,13.80678 3.2439,-9.73835 15.7069,-32.26155 28.6307,-19.32948 1.8473,1.84859 11.3573,9.37141 10.0035,12.08093 -9.8853,19.78336 -34.4478,-5.27169 -43.8086,13.46161 -0.6725,1.34617 -2.6659,3.984 -1.7246,5.86787 5.1805,10.36785 19.7968,8.60226 30.0105,6.55822 6.3097,-1.26275 13.117,-2.77035 13.108,-2.76135 -0.8166,0.81713 -2.1205,0.95871 -3.1045,1.38067"
           id="path3329"
           inkscape:connector-curvature="0" />
        <path
           style="fill:none;stroke:#ff6600;stroke-width:5.96022081;stroke-linecap:butt;stroke-linejoin:miter;stroke-miterlimit:4;stroke-opacity:1;stroke-dasharray:none"
           d="m 4600.2134,583.47403 c -3.2067,2.65455 -8.8382,5.70594 -12.6949,5.70594 -27.4026,0 3.5533,-13.67573 3.9062,-14.26484 1.4249,-2.37903 -5.0166,-8.03966 -6.3474,-6.92863 -4.3522,3.63281 26.3661,38.5517 26.3661,10.59674 0,-6.36727 -19.4395,-23.88063 -26.8545,-20.7859 -17.7405,7.40427 -9.7265,34.24639 6.3475,38.71882 5.3009,1.47495 25.4141,-4.50359 27.831,-6.52107 2.7438,-2.29032 -10.4977,-13.82329 4.3944,-15.89509"
           id="path3331"
           inkscape:connector-curvature="0" />
        <path
           inkscape:connector-curvature="0"
           id="path3333"
           d="m 4651.8542,571.75527 c -13.3506,2.17838 -6.0421,29.78012 1.1918,20.05862 2.8958,-3.89174 -0.22,-10.95042 4.536,-14.26969 3.6289,-2.53268 18.6533,4.64471 11.9797,8.01271 -18.3172,9.24439 -41.8337,-27.30671 -17.3002,-22.93141 10.0994,1.80106 34.1762,10.87755 23.2609,25.54663 -1.5603,2.09689 -7.6213,12.60237 -10.4967,11.65446 -20.9941,-6.92139 0.2225,-34.86998 -19.6574,-41.42397 -1.4286,-0.47095 -4.3257,-2.06251 -6.0521,-0.8576 -9.5015,6.6312 -5.6382,20.84673 -2.1374,30.66306 2.1628,6.06418 4.6396,12.58562 4.6294,12.57802 -0.9262,-0.69014 -1.2552,-1.96068 -1.815,-2.87373"
           style="fill:none;stroke:#008000;stroke-width:5.74593401;stroke-linecap:butt;stroke-linejoin:miter;stroke-miterlimit:4;stroke-opacity:1;stroke-dasharray:none" />
        <path
           inkscape:connector-curvature="0"
           id="path3335"
           d="m 4618.807,527.59058 c 6.6015,1.81467 1.3341,12.03304 -4.3831,9.63127 -2.8429,-1.19431 -11.3333,-13.13968 -12.1374,-12.464 -4.6044,3.86848 1.4045,11.28388 -2.3601,14.44692 -4.7424,3.98449 -12.0405,-2.10299 -13.8233,-5.09892 -6.1699,-10.36773 7.2928,-22.84044 14.1604,-28.61055 8.7661,-7.36515 6.3729,26.93868 25.6237,10.76437 4.3125,-3.6233 -9.3259,-10.85547 -10.4517,-12.74728 -1.9619,-3.29654 8.4088,-11.08111 11.8003,-5.38217 2.0071,3.37272 -9.3682,13.20243 -11.8003,12.18073 -5.5879,-2.34741 -5.8,-7.81871 -11.4633,-10.19781"
           style="fill:none;stroke:#ff5555;stroke-width:6.32052708;stroke-linecap:round;stroke-linejoin:round;stroke-miterlimit:4;stroke-opacity:1;stroke-dasharray:none" />
        <path
           inkscape:connector-curvature="0"
           id="path3337"
           d="m 4548.5187,523.72512 c 3.2067,2.65455 8.8382,5.70593 12.6949,5.70593 27.4026,0 -3.5533,-13.67573 -3.9062,-14.26483 -1.4249,-2.37903 5.0166,-8.03966 6.3474,-6.92863 4.3522,3.6328 -26.3661,38.55169 -26.3661,10.59673 0,-6.36726 19.4395,-23.88061 26.8545,-20.78589 17.7405,7.40428 9.7265,34.24638 -6.3475,38.71882 -5.3009,1.47494 -25.4141,-4.5036 -27.831,-6.52107 -2.7438,-2.29033 10.4977,-13.8233 -4.3943,-15.89509"
           style="fill:none;stroke:#008080;stroke-width:5.96022081;stroke-linecap:butt;stroke-linejoin:miter;stroke-miterlimit:4;stroke-opacity:1;stroke-dasharray:none" />
        <path
           inkscape:connector-curvature="0"
           id="path3339"
           d="m 4548.1431,447.47754 c 13.3506,2.17837 6.042,29.78012 -1.1918,20.05861 -2.8958,-3.89173 0.22,-10.95041 -4.5361,-14.26968 -3.6289,-2.53268 -18.6532,4.64471 -11.9796,8.0127 18.3171,9.24438 41.8337,-27.3067 17.3002,-22.93141 -10.0994,1.80107 -34.1762,10.87755 -23.261,25.54664 1.5603,2.09689 7.6213,12.60236 10.4967,11.65447 20.9941,-6.9214 -0.2224,-34.87 19.6574,-41.42398 1.4286,-0.47096 4.3257,-2.06251 6.0521,-0.85761 9.5015,6.63121 5.6382,20.84674 2.1374,30.66306 -2.1627,6.06418 -4.6395,12.58563 -4.6294,12.57803 0.9263,-0.69014 1.2552,-1.96068 1.815,-2.87374"
           style="fill:none;stroke:#806600;stroke-width:5.74593401;stroke-linecap:butt;stroke-linejoin:miter;stroke-miterlimit:4;stroke-opacity:1;stroke-dasharray:none" />
        <path
           inkscape:connector-curvature="0"
           id="path3341"
           d="m 4602.6018,458.59881 c -3.2068,2.65454 -8.8382,5.70594 -12.6948,5.70594 -27.4027,0 3.5533,-13.67573 3.9061,-14.26483 1.425,-2.37904 -5.0164,-8.03967 -6.3474,-6.92863 -4.3522,3.63279 26.3663,38.55169 26.3663,10.59672 0,-6.36726 -19.4396,-23.88062 -26.8546,-20.7859 -17.7405,7.40429 -9.7264,34.2464 6.3474,38.71883 5.301,1.47495 25.4142,-4.50361 27.8311,-6.52106 2.7438,-2.29033 -10.4978,-13.8233 4.3943,-15.8951"
           style="fill:none;stroke:#374845;stroke-width:5.96022081;stroke-linecap:butt;stroke-linejoin:miter;stroke-miterlimit:4;stroke-opacity:1;stroke-dasharray:none" />
        <path
           style="fill:none;stroke:#a02c5a;stroke-width:6.32052708;stroke-linecap:round;stroke-linejoin:round;stroke-miterlimit:4;stroke-opacity:1;stroke-dasharray:none"
           d="m 4670.1582,448.6819 c 6.6015,-1.81468 1.3342,-12.03305 -4.383,-9.63127 -2.843,1.1943 -11.3333,13.13968 -12.1376,12.46399 -4.6043,-3.86848 1.4046,-11.28388 -2.36,-14.44691 -4.7424,-3.9845 -12.0405,2.10298 -13.8234,5.09891 -6.1698,10.36774 7.2928,22.84044 14.1605,28.61055 8.7661,7.36516 6.3729,-26.93867 25.6236,-10.76436 4.3125,3.62329 -9.3258,10.85547 -10.4517,12.74727 -1.9618,3.29654 8.4089,11.08112 11.8004,5.38218 2.0071,-3.37272 -9.3683,-13.20244 -11.8004,-12.18073 -5.5878,2.34741 -5.7999,7.81871 -11.4632,10.19782"
           id="path3343"
           inkscape:connector-curvature="0" />
      </g>
    </g>
    <g
       id="g5385"
       transform="matrix(0.95476567,0,0,0.95476567,244.7997,30.590554)">
      <path
         inkscape:connector-curvature="0"
         id="path11784"
         d="m 3648.8764,-67.021276 -136.9717,0"
         style="fill:none;stroke:#000000;stroke-width:3;stroke-linecap:butt;stroke-linejoin:miter;stroke-miterlimit:4;stroke-opacity:1;stroke-dasharray:9, 9;stroke-dashoffset:0"
         sodipodi:nodetypes="cc" />
      <path
         inkscape:connector-curvature="0"
         id="path5371"
         d="m 3524.129,-75.11001 -10.68,7.77817 11.1219,8.22012"
         style="fill:none;stroke:#000000;stroke-width:2.5999999;stroke-linecap:round;stroke-linejoin:miter;stroke-miterlimit:4;stroke-opacity:1;stroke-dasharray:none"
         sodipodi:nodetypes="ccc" />
    </g>
    <g
       id="g5381"
       transform="matrix(0.95476567,0,0,0.95476567,244.7997,30.590554)">
      <path
         style="fill:none;stroke:#000000;stroke-width:3;stroke-linecap:butt;stroke-linejoin:miter;stroke-miterlimit:4;stroke-opacity:1;stroke-dasharray:9, 9;stroke-dashoffset:0"
         d="m 3648.8764,-24.188657 -136.9717,0"
         id="path11794"
         inkscape:connector-curvature="0"
         sodipodi:nodetypes="cc" />
      <path
         style="fill:none;stroke:#000000;stroke-width:2.5999999;stroke-linecap:round;stroke-linejoin:miter;stroke-miterlimit:4;stroke-opacity:1;stroke-dasharray:none"
         d="m 3524.129,-32.330051 -10.68,7.77817 11.1219,8.22012"
         id="path5373"
         inkscape:connector-curvature="0"
         sodipodi:nodetypes="ccc" />
    </g>
    <path
       style="fill:none;stroke:#000000;stroke-width:2.86429691;stroke-linecap:butt;stroke-linejoin:miter;stroke-miterlimit:4;stroke-opacity:1;stroke-dasharray:8.592891, 8.592891;stroke-dashoffset:0"
       d="m 3729.2968,46.969728 -130.7759,0"
       id="path11796"
       inkscape:connector-curvature="0"
       sodipodi:nodetypes="cc" />
    <path
       style="fill:none;stroke:#000000;stroke-width:2.48239064;stroke-linecap:round;stroke-linejoin:miter;stroke-miterlimit:4;stroke-opacity:1;stroke-dasharray:none"
       d="m 3609.5171,39.217525 -10.1969,7.42633 10.6188,7.848289"
       id="path5375"
       inkscape:connector-curvature="0"
       sodipodi:nodetypes="ccc" />
    <g
       id="g4037"
       transform="translate(0,-12)">
      <path
         style="fill:none;stroke:#000000;stroke-width:2.86429691;stroke-linecap:butt;stroke-linejoin:miter;stroke-miterlimit:4;stroke-opacity:1;stroke-dasharray:11.45718801, 11.45718801;stroke-dashoffset:0"
         d="m 3935.0828,326.34251 -178.4058,0"
         id="path12626"
         inkscape:connector-curvature="0" />
      <path
         sodipodi:nodetypes="ccc"
         style="fill:none;stroke:#000000;stroke-width:2.48239064;stroke-linecap:round;stroke-linejoin:miter;stroke-miterlimit:4;stroke-opacity:1;stroke-dasharray:none"
         d="m 3926.343,318.48648 9.8207,7.42633 -10.2426,7.84829"
         id="path5391"
         inkscape:connector-curvature="0" />
    </g>
    <g
       id="g3907"
       transform="matrix(0.85184006,0,0,0.85184006,590.74096,28.356164)">
      <path
         style="fill:#713775;fill-opacity:1;stroke:none"
         d="m 4153.5434,388.17083 c 6.114,-4.02313 7.657,-22.03165 -0.092,-24.77394 -18.0092,-6.37366 -73.638,-0.0202 -90.4565,7.52437 -10.0759,4.51996 -8.4595,15.21516 -1.7053,19.93591 9.96,1.18286 21.2936,-8.32805 40.6296,-10.49381 30.9619,-3.46786 40.8981,9.60999 51.6237,7.80747 z"
         id="path5227"
         inkscape:connector-curvature="0"
         sodipodi:nodetypes="csscsc" />
      <path
         sodipodi:nodetypes="sssssssss"
         inkscape:connector-curvature="0"
         id="path5229"
         d="m 4118.7585,260.43499 c -23.0503,-3.83762 -44.9834,8.53252 -54.014,15.35975 -14.3992,10.88622 -21.7738,25.26098 -23.2559,47.25401 -1.4821,21.9931 6.828,50.93536 22.0953,50.5361 5.074,-0.13271 8.6325,-4.03236 13.1509,-6.63796 9.7548,-5.62517 29.6491,-8.20614 38.6399,-6.70901 9.446,1.57294 35.5769,6.6913 38.2003,4.57205 12.3198,-9.95182 10.6715,-41.90876 6.9844,-58.62076 -4.3327,-19.63842 -13.5412,-41.04924 -41.8009,-45.75418 z"
         style="fill:#6f2972;fill-opacity:1;stroke:none" />
      <path
         sodipodi:nodetypes="ccccc"
         inkscape:connector-curvature="0"
         id="path5231"
         d="m 4035.7698,372.22932 -8.8837,-27.87739 3.3799,-7.03684 6.9794,4.72049 8.1841,27.51484"
         style="fill:#ff5496;fill-opacity:1;stroke:none" />
      <path
         sodipodi:nodetypes="ccccc"
         inkscape:connector-curvature="0"
         id="path5233"
         d="m 4053.2534,369.88695 -8.0208,-29.51546 3.5857,-6.88441 7.2194,4.02461 7.0537,30.23358"
         style="fill:#ff5496;fill-opacity:1;stroke:none" />
      <path
         sodipodi:nodetypes="cccc"
         inkscape:connector-curvature="0"
         id="path5235"
         d="m 4089.4365,364.20001 -4.453,-26.21104 c 2.4897,8.50181 12.0003,6.84963 11.4435,-1.22718 l 3.4714,25.61821"
         style="fill:#ff2d93;fill-opacity:1;stroke:none" />
      <path
         sodipodi:nodetypes="cccc"
         inkscape:connector-curvature="0"
         id="path5237"
         d="m 4081.4849,365.60223 -6.0286,-30.96871 c -1.3705,-9.14271 -12.403,-7.21375 -10.8504,1.77468 l 6.3688,31.89641"
         style="fill:#f10091;fill-opacity:1;stroke:none" />
      <path
         sodipodi:nodetypes="cccc"
         inkscape:connector-curvature="0"
         id="path5239"
         d="m 4119.2702,363.05125 -2.4411,-32.52955 c -0.946,-9.45556 -13.0078,-8.63834 -11.8663,0.84503 l 3.5931,33.76993"
         style="fill:#f10091;fill-opacity:1;stroke:none" />
      <path
         sodipodi:nodetypes="cccc"
         inkscape:connector-curvature="0"
         id="path5241"
         d="m 4138.7786,362.72317 -0.5721,-33.01349 c -0.4477,-9.07566 -12.7824,-8.68938 -12.1379,0.31143 l 1.685,33.41897"
         style="fill:#f10091;fill-opacity:1;stroke:none" />
      <path
         sodipodi:nodetypes="ccccc"
         inkscape:connector-curvature="0"
         id="path5243"
         d="m 4147.6412,363.32163 0.421,-27.16997 5.9925,6.25773 5.9732,-5.61858 -1.3556,27.73093"
         style="fill:#ff3575;fill-opacity:1;stroke:none" />
      <path
         sodipodi:nodetypes="cccc"
         inkscape:connector-curvature="0"
         id="path5245"
         d="m 4167.9411,363.33201 2.1348,-26.31075 c -0.2539,8.57212 10.9417,9.55145 12.324,1.57871 l -3.0891,25.71161"
         style="fill:#ff2d93;fill-opacity:1;stroke:none" />
      <path
         sodipodi:nodetypes="cccc"
         inkscape:connector-curvature="0"
         id="path5247"
         d="m 4188.2923,365.60542 4.3381,-26.1345 c -1.0437,8.50952 10.2267,10.78221 12.3386,2.97809 l -5.3046,25.3729"
         style="fill:#ff2d93;fill-opacity:1;stroke:none" />
      <path
         sodipodi:nodetypes="ccccc"
         inkscape:connector-curvature="0"
         id="path5249"
         d="m 4019.9144,378.14288 -9.0137,-23.94023 6.5482,3.17524 3.3743,-6.27565 7.9969,23.93881"
         style="fill:#ff3575;fill-opacity:1;stroke:none" />
      <path
         sodipodi:nodetypes="ssssss"
         inkscape:connector-curvature="0"
         id="path5251"
         d="m 4153.5434,388.17083 c 6.114,-4.02313 4.3728,-18.71734 -3.3756,-21.45959 -18.0091,-6.3737 -66.4321,-2.87689 -83.2505,4.66773 -10.076,4.51992 -12.3813,14.75745 -5.6271,19.4782 12.3494,8.63147 22.0757,-1.11211 41.4118,-3.27785 30.9617,-3.46787 38.576,8.66254 50.8414,0.59151 z"
         style="fill:#7f338b;fill-opacity:1;stroke:none" />
      <path
         sodipodi:nodetypes="cccc"
         inkscape:connector-curvature="0"
         id="path5253"
         d="m 4113.1392,288.86407 2.5194,31.90485 c -1.7919,-7.58889 -11.4666,-7.01015 -11.4702,0.57943 l -3.3518,-31.22337"
         style="fill:#33b67a;fill-opacity:1;stroke:none" />
      <path
         sodipodi:nodetypes="cccc"
         inkscape:connector-curvature="0"
         id="path5255"
         d="m 4136.8601,287.4045 0.8913,33.59658 c -1.3636,-7.53323 -10.856,-8.31412 -12.0585,-0.0491 l -1.8014,-32.92969"
         style="fill:#33b67a;fill-opacity:1;stroke:none" />
      <path
         sodipodi:nodetypes="ccccc"
         inkscape:connector-curvature="0"
         id="path5257"
         d="m 4161.1922,288.63483 -1.4771,40.04239 -5.8658,6.51957 -5.5733,-7.12407 0.1266,-36.96451"
         style="fill:#46c471;fill-opacity:1;stroke:none" />
      <path
         inkscape:connector-curvature="0"
         id="path5261"
         d="m 4054.9515,200.29206 1.1997,19.08702"
         style="fill:none;stroke:#2c8035;stroke-width:2.29526448;stroke-linecap:butt;stroke-linejoin:miter;stroke-miterlimit:4;stroke-opacity:1;stroke-dasharray:none" />
      <path
         style="fill:#2f9f52;fill-opacity:1;stroke:none"
         d="m 4141.2095,203.63316 -5.5259,0.27971 -18.8655,11.84352 1.265,20.27968 -3.2506,0.10991 c -1.9967,-2.56296 -5.1008,-4.21606 -8.5871,-4.21602 -6.0237,3e-5 -10.905,4.91551 -10.905,10.97966 10e-5,6.0642 4.8812,10.97971 10.905,10.97971 3.3834,-2e-5 6.4105,-1.55217 8.411,-3.98629 l 3.9709,-0.14984 2.4385,36.44305 -22.6533,0.60174 1.4638,10.10055 62.2479,-1.47214 0.8501,-9.96333 -22.8331,0.62406 0.1553,-37.59667 3.4622,-0.0999 c 1.9937,2.61446 5.1284,4.29594 8.6556,4.29593 6.0237,-3e-5 10.9049,-4.91554 10.905,-10.97969 0,-6.06416 -4.8813,-10.97966 -10.9051,-10.97968 -3.6327,3e-5 -6.8493,1.79633 -8.8315,4.54573 l -3.2275,0.11989 z"
         id="path5263"
         inkscape:connector-curvature="0"
         sodipodi:nodetypes="cccccsssccccccccccsssccc" />
      <path
         sodipodi:nodetypes="cccc"
         inkscape:connector-curvature="0"
         id="path5265"
         d="m 4068.4774,293.39264 5.6195,31.40818 c -2.9277,-6.97107 -11.1393,-4.63707 -11.3274,1.7452 l -6.3792,-30.6469"
         style="fill:#33b67a;fill-opacity:1;stroke:none" />
      <path
         sodipodi:nodetypes="cccc"
         inkscape:connector-curvature="0"
         id="path5267"
         d="m 4090.492,290.93313 4.7439,37.81135 c 0.3266,6.88314 -9.5903,7.73058 -11.1119,1.13178 l -5.2869,-34.72122"
         style="fill:#56ad73;fill-opacity:1;stroke:none" />
      <path
         sodipodi:nodetypes="ccccc"
         inkscape:connector-curvature="0"
         id="path5269"
         d="m 4046.4685,304.36308 6.7418,25.14311 -6.6759,-3.56344 -3.3415,6.93309 -6.7642,-26.84538"
         style="fill:#56ad5b;fill-opacity:1;stroke:none" />
      <g
         id="g5271"
         transform="matrix(0.84799901,0.26539609,-0.39398846,0.72399607,2733.9894,-261.30419)">
        <path
           sodipodi:nodetypes="cccccsssccccccccccsssccc"
           inkscape:connector-curvature="0"
           id="path5273"
           d="m 1597.4571,71.059742 -4.5931,3.180205 -8.5137,22.349161 14.4423,20.742932 -2.7378,1.81307 c -3.4132,-1.66252 -7.1848,-1.78663 -10.1988,0.0336 -5.2076,3.14495 -6.192,10.88123 -2.2004,17.28141 3.9917,6.40016 11.4471,9.03962 16.6548,5.89467 2.9249,-1.76642 4.5202,-4.98497 4.6475,-8.59842 l 3.3342,-2.23126 26.0962,37.18912 -19.1881,12.46212 7.914,9.89596 52.8452,-34.05252 -5.8232,-10.95923 -19.3288,12.5795 -24.6131,-39.76089 2.9274,-1.91301 c 3.4445,1.71844 7.2613,1.85651 10.3106,0.015 5.2076,-3.14495 6.1919,-10.88123 2.2003,-17.281388 -3.9916,-6.400182 -11.447,-9.039637 -16.6547,-5.894688 -3.1405,1.896614 -4.7389,5.471788 -4.6429,9.408446 l -2.7113,1.81158 z"
           style="fill:#2f9f52;fill-opacity:1;stroke:none" />
      </g>
      <path
         transform="matrix(0.95476567,0,0,0.95476567,256.3354,-565.1832)"
         clip-path="url(#clipPath5327)"
         sodipodi:nodetypes="ccssssssssssssssssscccssssssssssssssccc"
         inkscape:connector-curvature="0"
         id="path5217"
         d="m 3924.9016,1475.9635 c 0,-0.1252 -0.4023,-2.5409 -0.8897,-5.3681 -2.9846,-17.3118 -4.2846,-31.6313 -4.262,-46.9468 0.019,-13.0374 0.7284,-20.9077 2.8189,-31.2826 4.0595,-20.1479 12.3825,-36.7217 25.2216,-50.2252 21.4232,-22.5318 51.3389,-36.4551 105.4087,-49.0594 3.5976,-0.8387 13.4315,-3.0275 21.8531,-4.8641 24.8245,-5.4137 29.4512,-6.6035 40.2102,-10.3404 24.8239,-8.622 49.5943,-22.574 70.6988,-39.8213 20.5285,-16.7765 37.7674,-36.8217 48.8237,-56.7716 20.2182,-36.4813 23.7167,-74.8256 10.2058,-111.8541 -3.4983,-9.5873 -6.9464,-16.6686 -11.641,-23.9065 -16.5229,-25.4737 -47.033,-44.2625 -88.2784,-54.36386 -32.0616,-7.85215 -70.8213,-10.34399 -110.7521,-7.1202 -48.9223,3.94973 -98.2504,15.89357 -139.1462,33.69156 -6.8095,2.9635 -20.2633,9.6014 -26.6102,13.1291 -20.347,11.309 -36.4594,23.7026 -52.4772,40.3653 -6.5324,6.7955 -9.3366,10.0058 -14.4922,16.591 -11.0681,14.1373 -20.9708,31.2667 -26.9952,46.6956 -0.9458,2.4222 -2.0073,5.9613 -2.2673,6.1774 l -7.1729,0.506 -3.421,-6.2393 c -0.048,-0.036 0.6363,-1.9619 1.5209,-4.2792 12.4506,-32.6146 33.9365,-62.5247 62.1041,-86.4538 28.0064,-23.7921 66.134,-42.9934 114.0503,-57.4363 71.2832,-21.48615 150.229,-25.71189 209.8215,-11.23114 48.7016,11.83431 83.2394,34.69934 101.0994,66.93074 5.938,10.716 11.5993,26.171 14.5185,39.6348 2.2016,10.1539 3.1625,19.2134 3.1571,29.7641 -0.01,19.6918 -3.7911,37.9088 -11.8196,56.9465 -12.4997,29.64 -35.0482,57.8263 -64.1411,80.1779 -27.1613,20.8676 -58.0858,35.7523 -88.6017,42.6462 -2.6165,0.591 -12.3835,2.519 -21.7044,4.2843 -39.5112,7.4831 -54.032,10.9621 -73.4384,17.5951 -32.4814,11.1021 -53.885,25.874 -66.9137,46.1814 -16.6236,25.9106 -20.511,60.3417 -12.3151,109.0772 0.6501,3.8659 1.1821,7.1118 1.182,7.2132 0,0.1013 -1.2041,0.1843 -2.6758,0.1843 -1.4718,10e-5 -2.6775,-0.1025 -2.6794,-0.2278 z"
         style="fill:#000080;fill-opacity:1" />
      <g
         transform="matrix(-0.92223282,0.24711154,0.24711154,0.92223282,7780.7534,-969.07354)"
         id="g9205">
        <path
           inkscape:connector-curvature="0"
           id="path5213"
           d="m 3909.1514,155.06991 9.6108,8.28356"
           style="fill:none;stroke:#2c8035;stroke-width:1.80300617;stroke-linecap:butt;stroke-linejoin:miter;stroke-miterlimit:4;stroke-opacity:1;stroke-dasharray:none" />
        <path
           sodipodi:nodetypes="cc"
           inkscape:connector-curvature="0"
           id="path5215"
           d="m 3959.8543,171.12232 12.4597,6.64429"
           style="fill:none;stroke:#2c8035;stroke-width:1.80300617;stroke-linecap:butt;stroke-linejoin:miter;stroke-miterlimit:4;stroke-opacity:1;stroke-dasharray:none" />
        <path
           sodipodi:nodetypes="cccccc"
           inkscape:connector-curvature="0"
           id="path5219"
           d="m 3880.5054,129.34661 21.8563,29.80404 10.6855,-0.63579 -0.6224,-10.91524 -28.6494,-21.07607 z"
           style="fill:#4fc115;fill-opacity:1;stroke:none" />
        <path
           sodipodi:nodetypes="ccccccc"
           inkscape:connector-curvature="0"
           id="path5221"
           d="m 3916.491,166.67027 28.1968,15.23269 18.1987,-9.91904 -10.6881,-14.87672 -17.3151,9.45859 -17.8673,-15.94481 z"
           style="fill:#76cc2f;fill-opacity:1;stroke:none" />
        <path
           style="fill:none;stroke:#b0f0b5;stroke-width:2.40400815;stroke-linecap:butt;stroke-linejoin:miter;stroke-miterlimit:4;stroke-opacity:1;stroke-dasharray:none"
           d="m 4044.086,168.86163 44.9265,-9.46901"
           id="path5223"
           inkscape:connector-curvature="0"
           sodipodi:nodetypes="cc" />
        <path
           style="fill:none;stroke:#2c8035;stroke-width:2.10350728;stroke-linecap:butt;stroke-linejoin:miter;stroke-miterlimit:4;stroke-opacity:1;stroke-dasharray:none"
           d="m 3998.9107,178.72092 14.1159,-1.84079"
           id="path5225"
           inkscape:connector-curvature="0" />
        <path
           sodipodi:type="star"
           style="fill:#52dc26;fill-opacity:1;fill-rule:evenodd;stroke:none"
           id="path5275"
           sodipodi:sides="5"
           sodipodi:cx="1945.7144"
           sodipodi:cy="-150.49496"
           sodipodi:r1="40.613914"
           sodipodi:r2="27.818707"
           sodipodi:arg1="0.97303793"
           sodipodi:arg2="1.6013565"
           inkscape:flatsided="true"
           inkscape:rounded="0"
           inkscape:randomized="0"
           d="m 1968.5715,-116.92353 -47.7222,-1.45886 -13.3596,-45.83734 39.4656,-26.87019 37.7506,29.23066 z"
           inkscape:transform-center-x="0.76245111"
           inkscape:transform-center-y="9.1472979"
           transform="matrix(0.41272042,0.20253343,-0.19826959,0.42159607,3151.8399,-155.29558)" />
        <path
           style="fill:#50b530;fill-opacity:1;fill-rule:evenodd;stroke:none"
           inkscape:transform-center-x="9.4197883"
           inkscape:transform-center-y="-0.14052398"
           d="m 4006.8244,177.92382 9.6699,-24.5362 19.1453,-3.88411 13.0225,13.7287 -6.1228,17.6129 -23.5925,7.45812 z"
           id="path5277"
           inkscape:connector-curvature="0"
           sodipodi:nodetypes="ccccccc" />
        <path
           style="fill:#26dc55;fill-opacity:1;stroke:none"
           d="m 4095.8903,139.6348 -14.7767,34.60686 40.726,-5.89053 z"
           id="path5283"
           inkscape:connector-curvature="0" />
        <path
           style="fill:none;stroke:#4fc115;stroke-width:10.60000038;stroke-linecap:butt;stroke-linejoin:miter;stroke-miterlimit:0;stroke-opacity:1;stroke-dasharray:none"
           d="m 3896.6563,142.06259 c -23.5295,-23.1497 -16.6085,-40.64156 -5.25,-52.000001 10.913,-10.91301 29.6029,26.801491 36,30.000001 14.701,7.35054 34,-0.27171 34,-16 0,-41.69309 -48.7879,2.78786 -57,11"
           id="path9079"
           inkscape:connector-curvature="0"
           sodipodi:nodetypes="csssc" />
      </g>
    </g>
    <path
       style="opacity:0.69958849;fill:none;stroke:#4d4d4d;stroke-width:6.68335962;stroke-linecap:round;stroke-linejoin:round;stroke-miterlimit:4;stroke-opacity:1;stroke-dasharray:none;stroke-dashoffset:0"
       d="m 3130.4364,14.862745 c -69.6722,18.668601 -111.0187,90.282945 -92.3502,159.955115 15.2993,57.09739 71.3416,97.41945 130.4532,97.41944"
       id="path3913"
       inkscape:connector-curvature="0"
       sodipodi:nodetypes="csc" />
    <path
       style="fill:none;stroke:#838383;stroke-width:6.68335962;stroke-linecap:round;stroke-linejoin:round;stroke-miterlimit:4;stroke-opacity:1;stroke-dasharray:none"
       d="m 3147.8464,287.80221 20.693,-15.56491 -19.642,-16.51645"
       id="path4721"
       inkscape:connector-curvature="0"
       sodipodi:nodetypes="ccc" />
    <g
       id="g4008"
       transform="translate(0,-16)">
      <path
         sodipodi:nodetypes="cc"
         inkscape:connector-curvature="0"
         id="path4726"
         d="m 4613.561,169.95699 c 0,136.84214 -57.3301,154.47597 -154.4761,154.47599"
         style="fill:none;stroke:#838383;stroke-width:6.68335962;stroke-linecap:round;stroke-linejoin:round;stroke-miterlimit:4;stroke-opacity:1;stroke-dasharray:none;stroke-dashoffset:0" />
      <path
         style="fill:none;stroke:#838383;stroke-width:6.68335962;stroke-linecap:round;stroke-linejoin:round;stroke-miterlimit:4;stroke-opacity:1;stroke-dasharray:none"
         d="m 4628.7481,184.26972 -14.2589,-21.12836 -17.3871,20.07738"
         id="path4729"
         inkscape:connector-curvature="0"
         sodipodi:nodetypes="ccc" />
    </g>
  </g>
  <g
     inkscape:groupmode="layer"
     id="layer3"
     inkscape:label="Capa"
     transform="translate(-249.85564,-279.92853)" />
</svg>
